solid OpenSCAD_Model
  facet normal 0 0 -1
    outer loop
      vertex 3.53549 -68.5355 0
      vertex 1.91339 -69.6194 0
      vertex 0 -70 0
    endloop
  endfacet
  facet normal 0 0 -1
    outer loop
      vertex 3.53549 -61.4645 0
      vertex 4.61938 -63.0866 0
      vertex 4.61938 -66.9134 0
    endloop
  endfacet
  facet normal 0 0 -1
    outer loop
      vertex 4.61938 -63.0866 0
      vertex 5 -65 0
      vertex 4.61938 -66.9134 0
    endloop
  endfacet
  facet normal 0 0 -1
    outer loop
      vertex 3.53549 -68.5355 0
      vertex 3.53549 -61.4645 0
      vertex 4.61938 -66.9134 0
    endloop
  endfacet
  facet normal -0 0 -1
    outer loop
      vertex -3.75 41.25 0
      vertex -19.5357 38.11 0
      vertex -23.3625 47.3488 0
    endloop
  endfacet
  facet normal 0 0 -1
    outer loop
      vertex 3.53549 -68.5355 0
      vertex 0 -60 0
      vertex 3.53549 -61.4645 0
    endloop
  endfacet
  facet normal 0 0 -1
    outer loop
      vertex -51.0988 19.6125 0
      vertex -41.86 15.7857 0
      vertex -45 0 0
    endloop
  endfacet
  facet normal 0 0 -1
    outer loop
      vertex 3.53549 -61.4645 0
      vertex 0 -60 0
      vertex 1.91339 -60.3806 0
    endloop
  endfacet
  facet normal -0 0 -1
    outer loop
      vertex 3.53549 -68.5355 0
      vertex 0 -70 0
      vertex 0 -60 0
    endloop
  endfacet
  facet normal 0 0 -1
    outer loop
      vertex -32.3282 -44.4959 0
      vertex -17.2208 -41.5746 0
      vertex -16.9959 -52.3081 0
    endloop
  endfacet
  facet normal -0 0 -1
    outer loop
      vertex 0 -60 0
      vertex -18.1173 -67.6148 0
      vertex -18.541 -57.0634 0
    endloop
  endfacet
  facet normal -0 0 -1
    outer loop
      vertex 18.1547 -52.1246 0
      vertex 0 -55 0
      vertex 0 -45 0
    endloop
  endfacet
  facet normal 0 0 -1
    outer loop
      vertex -35 -60.6218 0
      vertex -49.4975 -49.4975 0
      vertex -35.2671 -48.541 0
    endloop
  endfacet
  facet normal 0 0 -1
    outer loop
      vertex 35.3945 -21.9656 0
      vertex 31.1809 -9.16559 0
      vertex 41.6087 -9.76949 0
    endloop
  endfacet
  facet normal -0 0 -1
    outer loop
      vertex -35.2671 -48.541 0
      vertex -49.4975 -49.4975 0
      vertex -48.541 -35.2671 0
    endloop
  endfacet
  facet normal 0 0 -1
    outer loop
      vertex -44.4959 -32.3282 0
      vertex -31.8198 -31.8198 0
      vertex -32.3282 -44.4959 0
    endloop
  endfacet
  facet normal 0 0 -1
    outer loop
      vertex -48.541 -35.2671 0
      vertex -60.6218 -35 0
      vertex -57.0634 -18.541 0
    endloop
  endfacet
  facet normal 0 0 -1
    outer loop
      vertex -57.0634 -18.541 0
      vertex -67.6148 -18.1173 0
      vertex -60 0 0
    endloop
  endfacet
  facet normal 0 0 -1
    outer loop
      vertex -60 0 0
      vertex -70 0 0
      vertex -67.7426 17.1468 0
    endloop
  endfacet
  facet normal 0 -0 -1
    outer loop
      vertex -51.0988 19.6125 0
      vertex -45 0 0
      vertex -55 0 0
    endloop
  endfacet
  facet normal -0 0 -1
    outer loop
      vertex -57.2469 17.3822 0
      vertex -67.7426 17.1468 0
      vertex -61.1242 33.125 0
    endloop
  endfacet
  facet normal 0 0 -1
    outer loop
      vertex -49.2572 33.0629 0
      vertex -50.5958 46.8458 0
      vertex -36.8129 45.5072 0
    endloop
  endfacet
  facet normal -0 0 -1
    outer loop
      vertex -45 0 0
      vertex -52.3081 -16.9959 0
      vertex -55 0 0
    endloop
  endfacet
  facet normal 0 0 -1
    outer loop
      vertex -36.8129 45.5072 0
      vertex -36.875 57.3742 0
      vertex -21.1322 53.4969 0
    endloop
  endfacet
  facet normal -0 0 -1
    outer loop
      vertex -32.9182 29.1682 0
      vertex -51.0988 19.6125 0
      vertex -39.9892 36.2392 0
    endloop
  endfacet
  facet normal 0 0 -1
    outer loop
      vertex -21.1322 53.4969 0
      vertex -20.8968 63.9926 0
      vertex -3.75 56.25 0
    endloop
  endfacet
  facet normal 0 0 -1
    outer loop
      vertex -3.75 56.25 0
      vertex -3.75 66.25 0
      vertex 12.4734 53.6805 0
    endloop
  endfacet
  facet normal 0 0 -1
    outer loop
      vertex 12.4734 53.6805 0
      vertex 15.5636 63.191 0
      vertex 27.1087 46.2234 0
    endloop
  endfacet
  facet normal -0 0 -1
    outer loop
      vertex 14.4275 47.6343 0
      vertex 10.6006 38.3955 0
      vertex -3.75 51.25 0
    endloop
  endfacet
  facet normal 0 0 -1
    outer loop
      vertex 27.1087 46.2234 0
      vertex 32.9866 54.3136 0
      vertex 38.7234 34.6087 0
    endloop
  endfacet
  facet normal 0 0 -1
    outer loop
      vertex 18.6558 -41.2891 0
      vertex 18.1547 -52.1246 0
      vertex 0 -45 0
    endloop
  endfacet
  facet normal 0 0 -1
    outer loop
      vertex 38.7234 34.6087 0
      vertex 46.8136 40.4866 0
      vertex 55.691 23.0636 0
    endloop
  endfacet
  facet normal 0 0 -1
    outer loop
      vertex 22.7665 30.2665 0
      vertex 14.4275 47.6343 0
      vertex 29.8376 37.3376 0
    endloop
  endfacet
  facet normal 0 0 -1
    outer loop
      vertex 46.1805 19.9734 0
      vertex 55.691 23.0636 0
      vertex 58.75 3.75 0
    endloop
  endfacet
  facet normal 0 0 -1
    outer loop
      vertex 43.75 3.75 0
      vertex 30.8955 18.1006 0
      vertex 40.1343 21.9275 0
    endloop
  endfacet
  facet normal 0 0 -1
    outer loop
      vertex 48.75 3.75 0
      vertex 58.75 3.75 0
      vertex 55.8746 -14.4047 0
    endloop
  endfacet
  facet normal 0 0 -1
    outer loop
      vertex 45.0391 -14.9058 0
      vertex 55.8746 -14.4047 0
      vertex 47.5297 -30.7824 0
    endloop
  endfacet
  facet normal 0 -0 -1
    outer loop
      vertex 18.6558 -41.2891 0
      vertex 34.5324 -43.7797 0
      vertex 18.1547 -52.1246 0
    endloop
  endfacet
  facet normal 0 0 -1
    outer loop
      vertex 34.4715 -30.7215 0
      vertex 47.5297 -30.7824 0
      vertex 34.5324 -43.7797 0
    endloop
  endfacet
  facet normal 0 0 -1
    outer loop
      vertex 35.3945 -21.9656 0
      vertex 23.8649 -20.1149 0
      vertex 31.1809 -9.16559 0
    endloop
  endfacet
  facet normal 0 -0 -1
    outer loop
      vertex -41.5746 -17.2208 0
      vertex -31.8198 -31.8198 0
      vertex -44.4959 -32.3282 0
    endloop
  endfacet
  facet normal 0 0 -1
    outer loop
      vertex 0 -40 0
      vertex 0 -30 0
      vertex 13.5195 -37.8587 0
    endloop
  endfacet
  facet normal 0 -0 -1
    outer loop
      vertex -45 0 0
      vertex -41.5746 -17.2208 0
      vertex -52.3081 -16.9959 0
    endloop
  endfacet
  facet normal 0 0 -1
    outer loop
      vertex -15.3073 -36.9552 0
      vertex -11.4805 -27.7164 0
      vertex 0 -30 0
    endloop
  endfacet
  facet normal 0 0 -1
    outer loop
      vertex -36.9552 -15.3073 0
      vertex -27.7164 -11.4805 0
      vertex -28.2843 -28.2843 0
    endloop
  endfacet
  facet normal 0 0 -1
    outer loop
      vertex -40 0 0
      vertex -30.3806 1.91339 0
      vertex -27.7164 -11.4805 0
    endloop
  endfacet
  facet normal 0 0 -1
    outer loop
      vertex -3.75 41.25 0
      vertex -23.3625 47.3488 0
      vertex -3.75 51.25 0
    endloop
  endfacet
  facet normal 0 0 -1
    outer loop
      vertex -33.0866 4.61938 0
      vertex -36.9134 4.61938 0
      vertex -35 5 0
    endloop
  endfacet
  facet normal 0 0 -1
    outer loop
      vertex 10.6006 38.3955 0
      vertex -3.75 41.25 0
      vertex -3.75 51.25 0
    endloop
  endfacet
  facet normal 0 0 -1
    outer loop
      vertex 33.75 3.75 0
      vertex 30.8955 18.1006 0
      vertex 43.75 3.75 0
    endloop
  endfacet
  facet normal 0 0 -1
    outer loop
      vertex 41.6087 -9.76949 0
      vertex 33.75 3.75 0
      vertex 43.75 3.75 0
    endloop
  endfacet
  facet normal -0 0 -1
    outer loop
      vertex 25.7156 -31.6445 0
      vertex 13.5195 -37.8587 0
      vertex 12.9156 -27.4309 0
    endloop
  endfacet
  facet normal 0 -0 -1
    outer loop
      vertex -38.5355 3.53549 0
      vertex -31.4645 3.53549 0
      vertex -40 0 0
    endloop
  endfacet
  facet normal -0 0 -1
    outer loop
      vertex -33.0866 4.61938 0
      vertex -38.5355 3.53549 0
      vertex -36.9134 4.61938 0
    endloop
  endfacet
  facet normal 0 -0 -1
    outer loop
      vertex -33.0866 4.61938 0
      vertex -31.4645 3.53549 0
      vertex -38.5355 3.53549 0
    endloop
  endfacet
  facet normal 0 0 -1
    outer loop
      vertex -38.5355 3.53549 0
      vertex -40 0 0
      vertex -39.6194 1.91339 0
    endloop
  endfacet
  facet normal 0 -0 -1
    outer loop
      vertex -31.4645 3.53549 0
      vertex -30.3806 1.91339 0
      vertex -40 0 0
    endloop
  endfacet
  facet normal 0 0 -1
    outer loop
      vertex -40 0 0
      vertex -27.7164 -11.4805 0
      vertex -36.9552 -15.3073 0
    endloop
  endfacet
  facet normal -0 0 -1
    outer loop
      vertex -11.4805 -27.7164 0
      vertex -28.2843 -28.2843 0
      vertex -21.2132 -21.2132 0
    endloop
  endfacet
  facet normal 0 0 -1
    outer loop
      vertex -28.2843 -28.2843 0
      vertex -27.7164 -11.4805 0
      vertex -21.2132 -21.2132 0
    endloop
  endfacet
  facet normal 0 0 -1
    outer loop
      vertex -15.3073 -36.9552 0
      vertex -28.2843 -28.2843 0
      vertex -11.4805 -27.7164 0
    endloop
  endfacet
  facet normal 0 0 -1
    outer loop
      vertex 0 -40 0
      vertex -15.3073 -36.9552 0
      vertex 0 -30 0
    endloop
  endfacet
  facet normal 0 0 -1
    outer loop
      vertex 13.5195 -37.8587 0
      vertex 0 -30 0
      vertex 12.9156 -27.4309 0
    endloop
  endfacet
  facet normal 0 0 -1
    outer loop
      vertex 25.7156 -31.6445 0
      vertex 12.9156 -27.4309 0
      vertex 23.8649 -20.1149 0
    endloop
  endfacet
  facet normal -0 0 -1
    outer loop
      vertex 35.3945 -21.9656 0
      vertex 25.7156 -31.6445 0
      vertex 23.8649 -20.1149 0
    endloop
  endfacet
  facet normal 0 0 -1
    outer loop
      vertex 41.6087 -9.76949 0
      vertex 31.1809 -9.16559 0
      vertex 33.75 3.75 0
    endloop
  endfacet
  facet normal 0 0 -1
    outer loop
      vertex 30.8955 18.1006 0
      vertex 22.7665 30.2665 0
      vertex 40.1343 21.9275 0
    endloop
  endfacet
  facet normal 0 0 -1
    outer loop
      vertex 22.7665 30.2665 0
      vertex 29.8376 37.3376 0
      vertex 40.1343 21.9275 0
    endloop
  endfacet
  facet normal 0 0 -1
    outer loop
      vertex 10.6006 38.3955 0
      vertex 14.4275 47.6343 0
      vertex 22.7665 30.2665 0
    endloop
  endfacet
  facet normal -0 0 -1
    outer loop
      vertex -19.5357 38.11 0
      vertex -32.9182 29.1682 0
      vertex -23.3625 47.3488 0
    endloop
  endfacet
  facet normal 0 0 -1
    outer loop
      vertex -32.9182 29.1682 0
      vertex -39.9892 36.2392 0
      vertex -23.3625 47.3488 0
    endloop
  endfacet
  facet normal 0 0 -1
    outer loop
      vertex -41.86 15.7857 0
      vertex -51.0988 19.6125 0
      vertex -32.9182 29.1682 0
    endloop
  endfacet
  facet normal -0 0 -1
    outer loop
      vertex -41.5746 -17.2208 0
      vertex -44.4959 -32.3282 0
      vertex -52.3081 -16.9959 0
    endloop
  endfacet
  facet normal 0 0 -1
    outer loop
      vertex -32.3282 -44.4959 0
      vertex -31.8198 -31.8198 0
      vertex -17.2208 -41.5746 0
    endloop
  endfacet
  facet normal 0 0 -1
    outer loop
      vertex -16.9959 -52.3081 0
      vertex -17.2208 -41.5746 0
      vertex 0 -45 0
    endloop
  endfacet
  facet normal 0 -0 -1
    outer loop
      vertex 0 -45 0
      vertex 0 -55 0
      vertex -16.9959 -52.3081 0
    endloop
  endfacet
  facet normal 0 0 -1
    outer loop
      vertex 18.6558 -41.2891 0
      vertex 34.4715 -30.7215 0
      vertex 34.5324 -43.7797 0
    endloop
  endfacet
  facet normal 0 0 -1
    outer loop
      vertex 34.4715 -30.7215 0
      vertex 45.0391 -14.9058 0
      vertex 47.5297 -30.7824 0
    endloop
  endfacet
  facet normal 0 0 -1
    outer loop
      vertex 45.0391 -14.9058 0
      vertex 48.75 3.75 0
      vertex 55.8746 -14.4047 0
    endloop
  endfacet
  facet normal 0 0 -1
    outer loop
      vertex 48.75 3.75 0
      vertex 46.1805 19.9734 0
      vertex 58.75 3.75 0
    endloop
  endfacet
  facet normal 0 0 -1
    outer loop
      vertex 46.1805 19.9734 0
      vertex 38.7234 34.6087 0
      vertex 55.691 23.0636 0
    endloop
  endfacet
  facet normal 0 0 -1
    outer loop
      vertex 38.7234 34.6087 0
      vertex 32.9866 54.3136 0
      vertex 46.8136 40.4866 0
    endloop
  endfacet
  facet normal 0 0 -1
    outer loop
      vertex 27.1087 46.2234 0
      vertex 15.5636 63.191 0
      vertex 32.9866 54.3136 0
    endloop
  endfacet
  facet normal 0 0 -1
    outer loop
      vertex 12.4734 53.6805 0
      vertex -3.75 66.25 0
      vertex 15.5636 63.191 0
    endloop
  endfacet
  facet normal 0 0 -1
    outer loop
      vertex -3.75 56.25 0
      vertex -20.8968 63.9926 0
      vertex -3.75 66.25 0
    endloop
  endfacet
  facet normal 0 0 -1
    outer loop
      vertex -21.1322 53.4969 0
      vertex -36.875 57.3742 0
      vertex -20.8968 63.9926 0
    endloop
  endfacet
  facet normal 0 0 -1
    outer loop
      vertex -36.8129 45.5072 0
      vertex -50.5958 46.8458 0
      vertex -36.875 57.3742 0
    endloop
  endfacet
  facet normal 0 0 -1
    outer loop
      vertex -49.2572 33.0629 0
      vertex -61.1242 33.125 0
      vertex -50.5958 46.8458 0
    endloop
  endfacet
  facet normal -0 0 -1
    outer loop
      vertex -49.2572 33.0629 0
      vertex -57.2469 17.3822 0
      vertex -61.1242 33.125 0
    endloop
  endfacet
  facet normal 0 0 -1
    outer loop
      vertex -57.2469 17.3822 0
      vertex -60 0 0
      vertex -67.7426 17.1468 0
    endloop
  endfacet
  facet normal -0 0 -1
    outer loop
      vertex -60 0 0
      vertex -67.6148 -18.1173 0
      vertex -70 0 0
    endloop
  endfacet
  facet normal -0 0 -1
    outer loop
      vertex -57.0634 -18.541 0
      vertex -60.6218 -35 0
      vertex -67.6148 -18.1173 0
    endloop
  endfacet
  facet normal -0 0 -1
    outer loop
      vertex -48.541 -35.2671 0
      vertex -49.4975 -49.4975 0
      vertex -60.6218 -35 0
    endloop
  endfacet
  facet normal -0 0 -1
    outer loop
      vertex -18.541 -57.0634 0
      vertex -35 -60.6218 0
      vertex -35.2671 -48.541 0
    endloop
  endfacet
  facet normal 0 -0 -1
    outer loop
      vertex -18.541 -57.0634 0
      vertex -18.1173 -67.6148 0
      vertex -35 -60.6218 0
    endloop
  endfacet
  facet normal 0 -0 -1
    outer loop
      vertex 0 -60 0
      vertex 0 -70 0
      vertex -18.1173 -67.6148 0
    endloop
  endfacet
  facet normal 0 0 1
    outer loop
      vertex 0 -70 50
      vertex 1.91339 -69.6194 50
      vertex 3.53549 -68.5355 50
    endloop
  endfacet
  facet normal 0 -0 1
    outer loop
      vertex 4.61938 -66.9134 50
      vertex 4.61938 -63.0866 50
      vertex 3.53549 -61.4645 50
    endloop
  endfacet
  facet normal 0 0 1
    outer loop
      vertex 4.61938 -66.9134 50
      vertex 5 -65 50
      vertex 4.61938 -63.0866 50
    endloop
  endfacet
  facet normal 0 0 1
    outer loop
      vertex 4.61938 -66.9134 50
      vertex 3.53549 -61.4645 50
      vertex 3.53549 -68.5355 50
    endloop
  endfacet
  facet normal 0 0 1
    outer loop
      vertex -23.3625 47.3488 50
      vertex -19.5357 38.11 50
      vertex -3.75 41.25 50
    endloop
  endfacet
  facet normal 0 0 1
    outer loop
      vertex 3.53549 -61.4645 50
      vertex 0 -60 50
      vertex 3.53549 -68.5355 50
    endloop
  endfacet
  facet normal 0 -0 1
    outer loop
      vertex -45 0 50
      vertex -41.86 15.7857 50
      vertex -51.0988 19.6125 50
    endloop
  endfacet
  facet normal 0 0 1
    outer loop
      vertex 1.91339 -60.3806 50
      vertex 0 -60 50
      vertex 3.53549 -61.4645 50
    endloop
  endfacet
  facet normal 0 0 1
    outer loop
      vertex 0 -60 50
      vertex 0 -70 50
      vertex 3.53549 -68.5355 50
    endloop
  endfacet
  facet normal 0 0 1
    outer loop
      vertex -16.9959 -52.3081 50
      vertex -17.2208 -41.5746 50
      vertex -32.3282 -44.4959 50
    endloop
  endfacet
  facet normal 0 0 1
    outer loop
      vertex -18.541 -57.0634 50
      vertex -18.1173 -67.6148 50
      vertex 0 -60 50
    endloop
  endfacet
  facet normal 0 0 1
    outer loop
      vertex 0 -45 50
      vertex 0 -55 50
      vertex 18.1547 -52.1246 50
    endloop
  endfacet
  facet normal 0 0 1
    outer loop
      vertex -35.2671 -48.541 50
      vertex -49.4975 -49.4975 50
      vertex -35 -60.6218 50
    endloop
  endfacet
  facet normal 0 0 1
    outer loop
      vertex 41.6087 -9.76949 50
      vertex 31.1809 -9.16559 50
      vertex 35.3945 -21.9656 50
    endloop
  endfacet
  facet normal 0 0 1
    outer loop
      vertex -48.541 -35.2671 50
      vertex -49.4975 -49.4975 50
      vertex -35.2671 -48.541 50
    endloop
  endfacet
  facet normal 0 -0 1
    outer loop
      vertex -32.3282 -44.4959 50
      vertex -31.8198 -31.8198 50
      vertex -44.4959 -32.3282 50
    endloop
  endfacet
  facet normal 0 0 1
    outer loop
      vertex -57.0634 -18.541 50
      vertex -60.6218 -35 50
      vertex -48.541 -35.2671 50
    endloop
  endfacet
  facet normal 0 0 1
    outer loop
      vertex -60 0 50
      vertex -67.6148 -18.1173 50
      vertex -57.0634 -18.541 50
    endloop
  endfacet
  facet normal 0 0 1
    outer loop
      vertex -67.7426 17.1468 50
      vertex -70 0 50
      vertex -60 0 50
    endloop
  endfacet
  facet normal 0 0 1
    outer loop
      vertex -55 0 50
      vertex -45 0 50
      vertex -51.0988 19.6125 50
    endloop
  endfacet
  facet normal 0 0 1
    outer loop
      vertex -61.1242 33.125 50
      vertex -67.7426 17.1468 50
      vertex -57.2469 17.3822 50
    endloop
  endfacet
  facet normal 0 0 1
    outer loop
      vertex -36.8129 45.5072 50
      vertex -50.5958 46.8458 50
      vertex -49.2572 33.0629 50
    endloop
  endfacet
  facet normal -0 0 1
    outer loop
      vertex -55 0 50
      vertex -52.3081 -16.9959 50
      vertex -45 0 50
    endloop
  endfacet
  facet normal 0 0 1
    outer loop
      vertex -21.1322 53.4969 50
      vertex -36.875 57.3742 50
      vertex -36.8129 45.5072 50
    endloop
  endfacet
  facet normal 0 0 1
    outer loop
      vertex -39.9892 36.2392 50
      vertex -51.0988 19.6125 50
      vertex -32.9182 29.1682 50
    endloop
  endfacet
  facet normal 0 0 1
    outer loop
      vertex -3.75 56.25 50
      vertex -20.8968 63.9926 50
      vertex -21.1322 53.4969 50
    endloop
  endfacet
  facet normal 0 0 1
    outer loop
      vertex 12.4734 53.6805 50
      vertex -3.75 66.25 50
      vertex -3.75 56.25 50
    endloop
  endfacet
  facet normal 0 0 1
    outer loop
      vertex 27.1087 46.2234 50
      vertex 15.5636 63.191 50
      vertex 12.4734 53.6805 50
    endloop
  endfacet
  facet normal 0 0 1
    outer loop
      vertex -3.75 51.25 50
      vertex 10.6006 38.3955 50
      vertex 14.4275 47.6343 50
    endloop
  endfacet
  facet normal 0 0 1
    outer loop
      vertex 38.7234 34.6087 50
      vertex 32.9866 54.3136 50
      vertex 27.1087 46.2234 50
    endloop
  endfacet
  facet normal -0 0 1
    outer loop
      vertex 0 -45 50
      vertex 18.1547 -52.1246 50
      vertex 18.6558 -41.2891 50
    endloop
  endfacet
  facet normal 0 0 1
    outer loop
      vertex 55.691 23.0636 50
      vertex 46.8136 40.4866 50
      vertex 38.7234 34.6087 50
    endloop
  endfacet
  facet normal 0 0 1
    outer loop
      vertex 29.8376 37.3376 50
      vertex 14.4275 47.6343 50
      vertex 22.7665 30.2665 50
    endloop
  endfacet
  facet normal 0 0 1
    outer loop
      vertex 58.75 3.75 50
      vertex 55.691 23.0636 50
      vertex 46.1805 19.9734 50
    endloop
  endfacet
  facet normal 0 0 1
    outer loop
      vertex 40.1343 21.9275 50
      vertex 30.8955 18.1006 50
      vertex 43.75 3.75 50
    endloop
  endfacet
  facet normal 0 -0 1
    outer loop
      vertex 55.8746 -14.4047 50
      vertex 58.75 3.75 50
      vertex 48.75 3.75 50
    endloop
  endfacet
  facet normal 0 -0 1
    outer loop
      vertex 47.5297 -30.7824 50
      vertex 55.8746 -14.4047 50
      vertex 45.0391 -14.9058 50
    endloop
  endfacet
  facet normal 0 0 1
    outer loop
      vertex 18.1547 -52.1246 50
      vertex 34.5324 -43.7797 50
      vertex 18.6558 -41.2891 50
    endloop
  endfacet
  facet normal 0 -0 1
    outer loop
      vertex 34.5324 -43.7797 50
      vertex 47.5297 -30.7824 50
      vertex 34.4715 -30.7215 50
    endloop
  endfacet
  facet normal 0 0 1
    outer loop
      vertex 31.1809 -9.16559 50
      vertex 23.8649 -20.1149 50
      vertex 35.3945 -21.9656 50
    endloop
  endfacet
  facet normal 0 0 1
    outer loop
      vertex -44.4959 -32.3282 50
      vertex -31.8198 -31.8198 50
      vertex -41.5746 -17.2208 50
    endloop
  endfacet
  facet normal 0 0 1
    outer loop
      vertex 13.5195 -37.8587 50
      vertex 0 -30 50
      vertex 0 -40 50
    endloop
  endfacet
  facet normal -0 0 1
    outer loop
      vertex -52.3081 -16.9959 50
      vertex -41.5746 -17.2208 50
      vertex -45 0 50
    endloop
  endfacet
  facet normal 0 0 1
    outer loop
      vertex 0 -30 50
      vertex -11.4805 -27.7164 50
      vertex -15.3073 -36.9552 50
    endloop
  endfacet
  facet normal 0 -0 1
    outer loop
      vertex -28.2843 -28.2843 50
      vertex -27.7164 -11.4805 50
      vertex -36.9552 -15.3073 50
    endloop
  endfacet
  facet normal 0 0 1
    outer loop
      vertex -27.7164 -11.4805 50
      vertex -30.3806 1.91339 50
      vertex -40 0 50
    endloop
  endfacet
  facet normal 0 0 1
    outer loop
      vertex -3.75 51.25 50
      vertex -23.3625 47.3488 50
      vertex -3.75 41.25 50
    endloop
  endfacet
  facet normal 0 0 1
    outer loop
      vertex -35 5 50
      vertex -36.9134 4.61938 50
      vertex -33.0866 4.61938 50
    endloop
  endfacet
  facet normal 0 0 1
    outer loop
      vertex -3.75 51.25 50
      vertex -3.75 41.25 50
      vertex 10.6006 38.3955 50
    endloop
  endfacet
  facet normal 0 0 1
    outer loop
      vertex 43.75 3.75 50
      vertex 30.8955 18.1006 50
      vertex 33.75 3.75 50
    endloop
  endfacet
  facet normal 0 0 1
    outer loop
      vertex 43.75 3.75 50
      vertex 33.75 3.75 50
      vertex 41.6087 -9.76949 50
    endloop
  endfacet
  facet normal 0 0 1
    outer loop
      vertex 12.9156 -27.4309 50
      vertex 13.5195 -37.8587 50
      vertex 25.7156 -31.6445 50
    endloop
  endfacet
  facet normal 0 0 1
    outer loop
      vertex -40 0 50
      vertex -31.4645 3.53549 50
      vertex -38.5355 3.53549 50
    endloop
  endfacet
  facet normal -0 0 1
    outer loop
      vertex -36.9134 4.61938 50
      vertex -38.5355 3.53549 50
      vertex -33.0866 4.61938 50
    endloop
  endfacet
  facet normal 0 0 1
    outer loop
      vertex -38.5355 3.53549 50
      vertex -31.4645 3.53549 50
      vertex -33.0866 4.61938 50
    endloop
  endfacet
  facet normal -0 0 1
    outer loop
      vertex -39.6194 1.91339 50
      vertex -40 0 50
      vertex -38.5355 3.53549 50
    endloop
  endfacet
  facet normal 0 0 1
    outer loop
      vertex -40 0 50
      vertex -30.3806 1.91339 50
      vertex -31.4645 3.53549 50
    endloop
  endfacet
  facet normal 0 -0 1
    outer loop
      vertex -36.9552 -15.3073 50
      vertex -27.7164 -11.4805 50
      vertex -40 0 50
    endloop
  endfacet
  facet normal 0 0 1
    outer loop
      vertex -21.2132 -21.2132 50
      vertex -28.2843 -28.2843 50
      vertex -11.4805 -27.7164 50
    endloop
  endfacet
  facet normal 0 0 1
    outer loop
      vertex -21.2132 -21.2132 50
      vertex -27.7164 -11.4805 50
      vertex -28.2843 -28.2843 50
    endloop
  endfacet
  facet normal 0 0 1
    outer loop
      vertex -11.4805 -27.7164 50
      vertex -28.2843 -28.2843 50
      vertex -15.3073 -36.9552 50
    endloop
  endfacet
  facet normal 0 0 1
    outer loop
      vertex 0 -30 50
      vertex -15.3073 -36.9552 50
      vertex 0 -40 50
    endloop
  endfacet
  facet normal 0 0 1
    outer loop
      vertex 12.9156 -27.4309 50
      vertex 0 -30 50
      vertex 13.5195 -37.8587 50
    endloop
  endfacet
  facet normal 0 0 1
    outer loop
      vertex 23.8649 -20.1149 50
      vertex 12.9156 -27.4309 50
      vertex 25.7156 -31.6445 50
    endloop
  endfacet
  facet normal 0 0 1
    outer loop
      vertex 23.8649 -20.1149 50
      vertex 25.7156 -31.6445 50
      vertex 35.3945 -21.9656 50
    endloop
  endfacet
  facet normal 0 0 1
    outer loop
      vertex 33.75 3.75 50
      vertex 31.1809 -9.16559 50
      vertex 41.6087 -9.76949 50
    endloop
  endfacet
  facet normal 0 0 1
    outer loop
      vertex 40.1343 21.9275 50
      vertex 22.7665 30.2665 50
      vertex 30.8955 18.1006 50
    endloop
  endfacet
  facet normal 0 0 1
    outer loop
      vertex 40.1343 21.9275 50
      vertex 29.8376 37.3376 50
      vertex 22.7665 30.2665 50
    endloop
  endfacet
  facet normal 0 0 1
    outer loop
      vertex 22.7665 30.2665 50
      vertex 14.4275 47.6343 50
      vertex 10.6006 38.3955 50
    endloop
  endfacet
  facet normal 0 0 1
    outer loop
      vertex -23.3625 47.3488 50
      vertex -32.9182 29.1682 50
      vertex -19.5357 38.11 50
    endloop
  endfacet
  facet normal 0 0 1
    outer loop
      vertex -23.3625 47.3488 50
      vertex -39.9892 36.2392 50
      vertex -32.9182 29.1682 50
    endloop
  endfacet
  facet normal 0 0 1
    outer loop
      vertex -32.9182 29.1682 50
      vertex -51.0988 19.6125 50
      vertex -41.86 15.7857 50
    endloop
  endfacet
  facet normal 0 0 1
    outer loop
      vertex -52.3081 -16.9959 50
      vertex -44.4959 -32.3282 50
      vertex -41.5746 -17.2208 50
    endloop
  endfacet
  facet normal 0 0 1
    outer loop
      vertex -17.2208 -41.5746 50
      vertex -31.8198 -31.8198 50
      vertex -32.3282 -44.4959 50
    endloop
  endfacet
  facet normal 0 0 1
    outer loop
      vertex 0 -45 50
      vertex -17.2208 -41.5746 50
      vertex -16.9959 -52.3081 50
    endloop
  endfacet
  facet normal -0 0 1
    outer loop
      vertex -16.9959 -52.3081 50
      vertex 0 -55 50
      vertex 0 -45 50
    endloop
  endfacet
  facet normal 0 0 1
    outer loop
      vertex 34.5324 -43.7797 50
      vertex 34.4715 -30.7215 50
      vertex 18.6558 -41.2891 50
    endloop
  endfacet
  facet normal 0 0 1
    outer loop
      vertex 47.5297 -30.7824 50
      vertex 45.0391 -14.9058 50
      vertex 34.4715 -30.7215 50
    endloop
  endfacet
  facet normal 0 0 1
    outer loop
      vertex 55.8746 -14.4047 50
      vertex 48.75 3.75 50
      vertex 45.0391 -14.9058 50
    endloop
  endfacet
  facet normal 0 0 1
    outer loop
      vertex 58.75 3.75 50
      vertex 46.1805 19.9734 50
      vertex 48.75 3.75 50
    endloop
  endfacet
  facet normal 0 0 1
    outer loop
      vertex 55.691 23.0636 50
      vertex 38.7234 34.6087 50
      vertex 46.1805 19.9734 50
    endloop
  endfacet
  facet normal 0 0 1
    outer loop
      vertex 46.8136 40.4866 50
      vertex 32.9866 54.3136 50
      vertex 38.7234 34.6087 50
    endloop
  endfacet
  facet normal 0 0 1
    outer loop
      vertex 32.9866 54.3136 50
      vertex 15.5636 63.191 50
      vertex 27.1087 46.2234 50
    endloop
  endfacet
  facet normal 0 0 1
    outer loop
      vertex 15.5636 63.191 50
      vertex -3.75 66.25 50
      vertex 12.4734 53.6805 50
    endloop
  endfacet
  facet normal 0 0 1
    outer loop
      vertex -3.75 66.25 50
      vertex -20.8968 63.9926 50
      vertex -3.75 56.25 50
    endloop
  endfacet
  facet normal 0 0 1
    outer loop
      vertex -20.8968 63.9926 50
      vertex -36.875 57.3742 50
      vertex -21.1322 53.4969 50
    endloop
  endfacet
  facet normal 0 0 1
    outer loop
      vertex -36.875 57.3742 50
      vertex -50.5958 46.8458 50
      vertex -36.8129 45.5072 50
    endloop
  endfacet
  facet normal 0 0 1
    outer loop
      vertex -50.5958 46.8458 50
      vertex -61.1242 33.125 50
      vertex -49.2572 33.0629 50
    endloop
  endfacet
  facet normal 0 0 1
    outer loop
      vertex -61.1242 33.125 50
      vertex -57.2469 17.3822 50
      vertex -49.2572 33.0629 50
    endloop
  endfacet
  facet normal -0 0 1
    outer loop
      vertex -67.7426 17.1468 50
      vertex -60 0 50
      vertex -57.2469 17.3822 50
    endloop
  endfacet
  facet normal -0 0 1
    outer loop
      vertex -70 0 50
      vertex -67.6148 -18.1173 50
      vertex -60 0 50
    endloop
  endfacet
  facet normal 0 0 1
    outer loop
      vertex -67.6148 -18.1173 50
      vertex -60.6218 -35 50
      vertex -57.0634 -18.541 50
    endloop
  endfacet
  facet normal 0 0 1
    outer loop
      vertex -60.6218 -35 50
      vertex -49.4975 -49.4975 50
      vertex -48.541 -35.2671 50
    endloop
  endfacet
  facet normal 0 0 1
    outer loop
      vertex -35.2671 -48.541 50
      vertex -35 -60.6218 50
      vertex -18.541 -57.0634 50
    endloop
  endfacet
  facet normal -0 0 1
    outer loop
      vertex -35 -60.6218 50
      vertex -18.1173 -67.6148 50
      vertex -18.541 -57.0634 50
    endloop
  endfacet
  facet normal -0 0 1
    outer loop
      vertex -18.1173 -67.6148 50
      vertex 0 -70 50
      vertex 0 -60 50
    endloop
  endfacet
  facet normal 0.555587 -0.831458 0
    outer loop
      vertex 3.53549 -68.5355 0
      vertex 1.91339 -69.6194 50
      vertex 1.91339 -69.6194 0
    endloop
  endfacet
  facet normal 0.555587 -0.831458 0
    outer loop
      vertex 3.53549 -68.5355 0
      vertex 3.53549 -68.5355 50
      vertex 1.91339 -69.6194 50
    endloop
  endfacet
  facet normal 0.831461 -0.555583 0
    outer loop
      vertex 4.61938 -66.9134 0
      vertex 3.53549 -68.5355 50
      vertex 3.53549 -68.5355 0
    endloop
  endfacet
  facet normal 0.831461 -0.555583 0
    outer loop
      vertex 4.61938 -66.9134 0
      vertex 4.61938 -66.9134 50
      vertex 3.53549 -68.5355 50
    endloop
  endfacet
  facet normal 0.980783 -0.195101 0
    outer loop
      vertex 5 -65 0
      vertex 4.61938 -66.9134 50
      vertex 4.61938 -66.9134 0
    endloop
  endfacet
  facet normal 0.980783 -0.195101 0
    outer loop
      vertex 5 -65 0
      vertex 5 -65 50
      vertex 4.61938 -66.9134 50
    endloop
  endfacet
  facet normal 0.980783 0.195101 0
    outer loop
      vertex 4.61938 -63.0866 0
      vertex 5 -65 50
      vertex 5 -65 0
    endloop
  endfacet
  facet normal 0.980783 0.195101 -0
    outer loop
      vertex 4.61938 -63.0866 0
      vertex 4.61938 -63.0866 50
      vertex 5 -65 50
    endloop
  endfacet
  facet normal 0.831461 0.555583 0
    outer loop
      vertex 3.53549 -61.4645 0
      vertex 4.61938 -63.0866 50
      vertex 4.61938 -63.0866 0
    endloop
  endfacet
  facet normal 0.831461 0.555583 -0
    outer loop
      vertex 3.53549 -61.4645 0
      vertex 3.53549 -61.4645 50
      vertex 4.61938 -63.0866 50
    endloop
  endfacet
  facet normal 0.555587 0.831458 0
    outer loop
      vertex 1.91339 -60.3806 0
      vertex 3.53549 -61.4645 50
      vertex 3.53549 -61.4645 0
    endloop
  endfacet
  facet normal 0.555587 0.831458 -0
    outer loop
      vertex 1.91339 -60.3806 0
      vertex 1.91339 -60.3806 50
      vertex 3.53549 -61.4645 50
    endloop
  endfacet
  facet normal 0.195092 0.980785 0
    outer loop
      vertex 0 -60 0
      vertex 1.91339 -60.3806 50
      vertex 1.91339 -60.3806 0
    endloop
  endfacet
  facet normal 0.195092 0.980785 -0
    outer loop
      vertex 0 -60 0
      vertex 0 -60 50
      vertex 1.91339 -60.3806 50
    endloop
  endfacet
  facet normal 0.156434 0.987688 0
    outer loop
      vertex -18.541 -57.0634 0
      vertex 0 -60 50
      vertex 0 -60 0
    endloop
  endfacet
  facet normal 0.156434 0.987688 -0
    outer loop
      vertex -18.541 -57.0634 0
      vertex -18.541 -57.0634 50
      vertex 0 -60 50
    endloop
  endfacet
  facet normal 0.453992 0.891006 0
    outer loop
      vertex -35.2671 -48.541 0
      vertex -18.541 -57.0634 50
      vertex -18.541 -57.0634 0
    endloop
  endfacet
  facet normal 0.453992 0.891006 -0
    outer loop
      vertex -35.2671 -48.541 0
      vertex -35.2671 -48.541 50
      vertex -18.541 -57.0634 50
    endloop
  endfacet
  facet normal 0.707107 0.707107 0
    outer loop
      vertex -48.541 -35.2671 0
      vertex -35.2671 -48.541 50
      vertex -35.2671 -48.541 0
    endloop
  endfacet
  facet normal 0.707107 0.707107 -0
    outer loop
      vertex -48.541 -35.2671 0
      vertex -48.541 -35.2671 50
      vertex -35.2671 -48.541 50
    endloop
  endfacet
  facet normal 0.891006 0.453992 0
    outer loop
      vertex -57.0634 -18.541 0
      vertex -48.541 -35.2671 50
      vertex -48.541 -35.2671 0
    endloop
  endfacet
  facet normal 0.891006 0.453992 -0
    outer loop
      vertex -57.0634 -18.541 0
      vertex -57.0634 -18.541 50
      vertex -48.541 -35.2671 50
    endloop
  endfacet
  facet normal 0.987688 0.156434 0
    outer loop
      vertex -60 0 0
      vertex -57.0634 -18.541 50
      vertex -57.0634 -18.541 0
    endloop
  endfacet
  facet normal 0.987688 0.156434 -0
    outer loop
      vertex -60 0 0
      vertex -60 0 50
      vertex -57.0634 -18.541 50
    endloop
  endfacet
  facet normal 0.987688 -0.156436 0
    outer loop
      vertex -57.2469 17.3822 0
      vertex -60 0 50
      vertex -60 0 0
    endloop
  endfacet
  facet normal 0.987688 -0.156436 0
    outer loop
      vertex -57.2469 17.3822 0
      vertex -57.2469 17.3822 50
      vertex -60 0 50
    endloop
  endfacet
  facet normal 0.891007 -0.45399 0
    outer loop
      vertex -49.2572 33.0629 0
      vertex -57.2469 17.3822 50
      vertex -57.2469 17.3822 0
    endloop
  endfacet
  facet normal 0.891007 -0.45399 0
    outer loop
      vertex -49.2572 33.0629 0
      vertex -49.2572 33.0629 50
      vertex -57.2469 17.3822 50
    endloop
  endfacet
  facet normal 0.707107 -0.707107 0
    outer loop
      vertex -36.8129 45.5072 0
      vertex -49.2572 33.0629 50
      vertex -49.2572 33.0629 0
    endloop
  endfacet
  facet normal 0.707107 -0.707107 0
    outer loop
      vertex -36.8129 45.5072 0
      vertex -36.8129 45.5072 50
      vertex -49.2572 33.0629 50
    endloop
  endfacet
  facet normal 0.45399 -0.891007 0
    outer loop
      vertex -21.1322 53.4969 0
      vertex -36.8129 45.5072 50
      vertex -36.8129 45.5072 0
    endloop
  endfacet
  facet normal 0.45399 -0.891007 0
    outer loop
      vertex -21.1322 53.4969 0
      vertex -21.1322 53.4969 50
      vertex -36.8129 45.5072 50
    endloop
  endfacet
  facet normal 0.156436 -0.987688 0
    outer loop
      vertex -3.75 56.25 0
      vertex -21.1322 53.4969 50
      vertex -21.1322 53.4969 0
    endloop
  endfacet
  facet normal 0.156436 -0.987688 0
    outer loop
      vertex -3.75 56.25 0
      vertex -3.75 56.25 50
      vertex -21.1322 53.4969 50
    endloop
  endfacet
  facet normal -0.156432 -0.987689 0
    outer loop
      vertex 12.4734 53.6805 0
      vertex -3.75 56.25 50
      vertex -3.75 56.25 0
    endloop
  endfacet
  facet normal -0.156432 -0.987689 0
    outer loop
      vertex 12.4734 53.6805 0
      vertex 12.4734 53.6805 50
      vertex -3.75 56.25 50
    endloop
  endfacet
  facet normal -0.453993 -0.891005 0
    outer loop
      vertex 27.1087 46.2234 0
      vertex 12.4734 53.6805 50
      vertex 12.4734 53.6805 0
    endloop
  endfacet
  facet normal -0.453993 -0.891005 0
    outer loop
      vertex 27.1087 46.2234 0
      vertex 27.1087 46.2234 50
      vertex 12.4734 53.6805 50
    endloop
  endfacet
  facet normal -0.707107 -0.707107 0
    outer loop
      vertex 38.7234 34.6087 0
      vertex 27.1087 46.2234 50
      vertex 27.1087 46.2234 0
    endloop
  endfacet
  facet normal -0.707107 -0.707107 0
    outer loop
      vertex 38.7234 34.6087 0
      vertex 38.7234 34.6087 50
      vertex 27.1087 46.2234 50
    endloop
  endfacet
  facet normal -0.891005 -0.453993 0
    outer loop
      vertex 46.1805 19.9734 0
      vertex 38.7234 34.6087 50
      vertex 38.7234 34.6087 0
    endloop
  endfacet
  facet normal -0.891005 -0.453993 0
    outer loop
      vertex 46.1805 19.9734 0
      vertex 46.1805 19.9734 50
      vertex 38.7234 34.6087 50
    endloop
  endfacet
  facet normal -0.987689 -0.156432 0
    outer loop
      vertex 48.75 3.75 0
      vertex 46.1805 19.9734 50
      vertex 46.1805 19.9734 0
    endloop
  endfacet
  facet normal -0.987689 -0.156432 0
    outer loop
      vertex 48.75 3.75 0
      vertex 48.75 3.75 50
      vertex 46.1805 19.9734 50
    endloop
  endfacet
  facet normal -0.980785 0.195092 0
    outer loop
      vertex 45.0391 -14.9058 0
      vertex 48.75 3.75 50
      vertex 48.75 3.75 0
    endloop
  endfacet
  facet normal -0.980785 0.195092 0
    outer loop
      vertex 45.0391 -14.9058 0
      vertex 45.0391 -14.9058 50
      vertex 48.75 3.75 50
    endloop
  endfacet
  facet normal -0.831472 0.555566 0
    outer loop
      vertex 34.4715 -30.7215 0
      vertex 45.0391 -14.9058 50
      vertex 45.0391 -14.9058 0
    endloop
  endfacet
  facet normal -0.831472 0.555566 0
    outer loop
      vertex 34.4715 -30.7215 0
      vertex 34.4715 -30.7215 50
      vertex 45.0391 -14.9058 50
    endloop
  endfacet
  facet normal -0.555566 0.831472 0
    outer loop
      vertex 18.6558 -41.2891 0
      vertex 34.4715 -30.7215 50
      vertex 34.4715 -30.7215 0
    endloop
  endfacet
  facet normal -0.555566 0.831472 0
    outer loop
      vertex 18.6558 -41.2891 0
      vertex 18.6558 -41.2891 50
      vertex 34.4715 -30.7215 50
    endloop
  endfacet
  facet normal -0.195092 0.980785 0
    outer loop
      vertex 0 -45 0
      vertex 18.6558 -41.2891 50
      vertex 18.6558 -41.2891 0
    endloop
  endfacet
  facet normal -0.195092 0.980785 0
    outer loop
      vertex 0 -45 0
      vertex 0 -45 50
      vertex 18.6558 -41.2891 50
    endloop
  endfacet
  facet normal 0.195089 0.980786 0
    outer loop
      vertex -17.2208 -41.5746 0
      vertex 0 -45 50
      vertex 0 -45 0
    endloop
  endfacet
  facet normal 0.195089 0.980786 -0
    outer loop
      vertex -17.2208 -41.5746 0
      vertex -17.2208 -41.5746 50
      vertex 0 -45 50
    endloop
  endfacet
  facet normal 0.555573 0.831468 0
    outer loop
      vertex -31.8198 -31.8198 0
      vertex -17.2208 -41.5746 50
      vertex -17.2208 -41.5746 0
    endloop
  endfacet
  facet normal 0.555573 0.831468 -0
    outer loop
      vertex -31.8198 -31.8198 0
      vertex -31.8198 -31.8198 50
      vertex -17.2208 -41.5746 50
    endloop
  endfacet
  facet normal 0.831468 0.555573 0
    outer loop
      vertex -41.5746 -17.2208 0
      vertex -31.8198 -31.8198 50
      vertex -31.8198 -31.8198 0
    endloop
  endfacet
  facet normal 0.831468 0.555573 -0
    outer loop
      vertex -41.5746 -17.2208 0
      vertex -41.5746 -17.2208 50
      vertex -31.8198 -31.8198 50
    endloop
  endfacet
  facet normal 0.980786 0.195089 0
    outer loop
      vertex -45 0 0
      vertex -41.5746 -17.2208 50
      vertex -41.5746 -17.2208 0
    endloop
  endfacet
  facet normal 0.980786 0.195089 -0
    outer loop
      vertex -45 0 0
      vertex -45 0 50
      vertex -41.5746 -17.2208 50
    endloop
  endfacet
  facet normal 0.980785 -0.195092 0
    outer loop
      vertex -41.86 15.7857 0
      vertex -45 0 50
      vertex -45 0 0
    endloop
  endfacet
  facet normal 0.980785 -0.195092 0
    outer loop
      vertex -41.86 15.7857 0
      vertex -41.86 15.7857 50
      vertex -45 0 50
    endloop
  endfacet
  facet normal 0.831473 -0.555566 0
    outer loop
      vertex -32.9182 29.1682 0
      vertex -41.86 15.7857 50
      vertex -41.86 15.7857 0
    endloop
  endfacet
  facet normal 0.831473 -0.555566 0
    outer loop
      vertex -32.9182 29.1682 0
      vertex -32.9182 29.1682 50
      vertex -41.86 15.7857 50
    endloop
  endfacet
  facet normal 0.555566 -0.831473 0
    outer loop
      vertex -19.5357 38.11 0
      vertex -32.9182 29.1682 50
      vertex -32.9182 29.1682 0
    endloop
  endfacet
  facet normal 0.555566 -0.831473 0
    outer loop
      vertex -19.5357 38.11 0
      vertex -19.5357 38.11 50
      vertex -32.9182 29.1682 50
    endloop
  endfacet
  facet normal 0.195092 -0.980785 0
    outer loop
      vertex -3.75 41.25 0
      vertex -19.5357 38.11 50
      vertex -19.5357 38.11 0
    endloop
  endfacet
  facet normal 0.195092 -0.980785 0
    outer loop
      vertex -3.75 41.25 0
      vertex -3.75 41.25 50
      vertex -19.5357 38.11 50
    endloop
  endfacet
  facet normal -0.19509 -0.980785 0
    outer loop
      vertex 10.6006 38.3955 0
      vertex -3.75 41.25 50
      vertex -3.75 41.25 0
    endloop
  endfacet
  facet normal -0.19509 -0.980785 0
    outer loop
      vertex 10.6006 38.3955 0
      vertex 10.6006 38.3955 50
      vertex -3.75 41.25 50
    endloop
  endfacet
  facet normal -0.55557 -0.831469 0
    outer loop
      vertex 22.7665 30.2665 0
      vertex 10.6006 38.3955 50
      vertex 10.6006 38.3955 0
    endloop
  endfacet
  facet normal -0.55557 -0.831469 0
    outer loop
      vertex 22.7665 30.2665 0
      vertex 22.7665 30.2665 50
      vertex 10.6006 38.3955 50
    endloop
  endfacet
  facet normal -0.831469 -0.55557 0
    outer loop
      vertex 30.8955 18.1006 0
      vertex 22.7665 30.2665 50
      vertex 22.7665 30.2665 0
    endloop
  endfacet
  facet normal -0.831469 -0.55557 0
    outer loop
      vertex 30.8955 18.1006 0
      vertex 30.8955 18.1006 50
      vertex 22.7665 30.2665 50
    endloop
  endfacet
  facet normal -0.980785 -0.19509 0
    outer loop
      vertex 33.75 3.75 0
      vertex 30.8955 18.1006 50
      vertex 30.8955 18.1006 0
    endloop
  endfacet
  facet normal -0.980785 -0.19509 0
    outer loop
      vertex 33.75 3.75 0
      vertex 33.75 3.75 50
      vertex 30.8955 18.1006 50
    endloop
  endfacet
  facet normal -0.980785 0.195092 0
    outer loop
      vertex 31.1809 -9.16559 0
      vertex 33.75 3.75 50
      vertex 33.75 3.75 0
    endloop
  endfacet
  facet normal -0.980785 0.195092 0
    outer loop
      vertex 31.1809 -9.16559 0
      vertex 31.1809 -9.16559 50
      vertex 33.75 3.75 50
    endloop
  endfacet
  facet normal -0.831473 0.555565 0
    outer loop
      vertex 23.8649 -20.1149 0
      vertex 31.1809 -9.16559 50
      vertex 31.1809 -9.16559 0
    endloop
  endfacet
  facet normal -0.831473 0.555565 0
    outer loop
      vertex 23.8649 -20.1149 0
      vertex 23.8649 -20.1149 50
      vertex 31.1809 -9.16559 50
    endloop
  endfacet
  facet normal -0.555566 0.831473 0
    outer loop
      vertex 12.9156 -27.4309 0
      vertex 23.8649 -20.1149 50
      vertex 23.8649 -20.1149 0
    endloop
  endfacet
  facet normal -0.555566 0.831473 0
    outer loop
      vertex 12.9156 -27.4309 0
      vertex 12.9156 -27.4309 50
      vertex 23.8649 -20.1149 50
    endloop
  endfacet
  facet normal -0.195092 0.980785 0
    outer loop
      vertex 0 -30 0
      vertex 12.9156 -27.4309 50
      vertex 12.9156 -27.4309 0
    endloop
  endfacet
  facet normal -0.195092 0.980785 0
    outer loop
      vertex 0 -30 0
      vertex 0 -30 50
      vertex 12.9156 -27.4309 50
    endloop
  endfacet
  facet normal 0.195089 0.980785 0
    outer loop
      vertex -11.4805 -27.7164 0
      vertex 0 -30 50
      vertex 0 -30 0
    endloop
  endfacet
  facet normal 0.195089 0.980785 -0
    outer loop
      vertex -11.4805 -27.7164 0
      vertex -11.4805 -27.7164 50
      vertex 0 -30 50
    endloop
  endfacet
  facet normal 0.555571 0.831469 0
    outer loop
      vertex -21.2132 -21.2132 0
      vertex -11.4805 -27.7164 50
      vertex -11.4805 -27.7164 0
    endloop
  endfacet
  facet normal 0.555571 0.831469 -0
    outer loop
      vertex -21.2132 -21.2132 0
      vertex -21.2132 -21.2132 50
      vertex -11.4805 -27.7164 50
    endloop
  endfacet
  facet normal 0.831469 0.555571 0
    outer loop
      vertex -27.7164 -11.4805 0
      vertex -21.2132 -21.2132 50
      vertex -21.2132 -21.2132 0
    endloop
  endfacet
  facet normal 0.831469 0.555571 -0
    outer loop
      vertex -27.7164 -11.4805 0
      vertex -27.7164 -11.4805 50
      vertex -21.2132 -21.2132 50
    endloop
  endfacet
  facet normal 0.980785 0.19509 0
    outer loop
      vertex -30.3806 1.91339 0
      vertex -27.7164 -11.4805 50
      vertex -27.7164 -11.4805 0
    endloop
  endfacet
  facet normal 0.980785 0.19509 -0
    outer loop
      vertex -30.3806 1.91339 0
      vertex -30.3806 1.91339 50
      vertex -27.7164 -11.4805 50
    endloop
  endfacet
  facet normal 0.831458 0.555587 0
    outer loop
      vertex -31.4645 3.53549 0
      vertex -30.3806 1.91339 50
      vertex -30.3806 1.91339 0
    endloop
  endfacet
  facet normal 0.831458 0.555587 -0
    outer loop
      vertex -31.4645 3.53549 0
      vertex -31.4645 3.53549 50
      vertex -30.3806 1.91339 50
    endloop
  endfacet
  facet normal 0.555583 0.831461 0
    outer loop
      vertex -33.0866 4.61938 0
      vertex -31.4645 3.53549 50
      vertex -31.4645 3.53549 0
    endloop
  endfacet
  facet normal 0.555583 0.831461 -0
    outer loop
      vertex -33.0866 4.61938 0
      vertex -33.0866 4.61938 50
      vertex -31.4645 3.53549 50
    endloop
  endfacet
  facet normal 0.195101 0.980783 0
    outer loop
      vertex -35 5 0
      vertex -33.0866 4.61938 50
      vertex -33.0866 4.61938 0
    endloop
  endfacet
  facet normal 0.195101 0.980783 -0
    outer loop
      vertex -35 5 0
      vertex -35 5 50
      vertex -33.0866 4.61938 50
    endloop
  endfacet
  facet normal -0.195101 0.980783 0
    outer loop
      vertex -36.9134 4.61938 0
      vertex -35 5 50
      vertex -35 5 0
    endloop
  endfacet
  facet normal -0.195101 0.980783 0
    outer loop
      vertex -36.9134 4.61938 0
      vertex -36.9134 4.61938 50
      vertex -35 5 50
    endloop
  endfacet
  facet normal -0.555583 0.831461 0
    outer loop
      vertex -38.5355 3.53549 0
      vertex -36.9134 4.61938 50
      vertex -36.9134 4.61938 0
    endloop
  endfacet
  facet normal -0.555583 0.831461 0
    outer loop
      vertex -38.5355 3.53549 0
      vertex -38.5355 3.53549 50
      vertex -36.9134 4.61938 50
    endloop
  endfacet
  facet normal -0.831458 0.555587 0
    outer loop
      vertex -39.6194 1.91339 0
      vertex -38.5355 3.53549 50
      vertex -38.5355 3.53549 0
    endloop
  endfacet
  facet normal -0.831458 0.555587 0
    outer loop
      vertex -39.6194 1.91339 0
      vertex -39.6194 1.91339 50
      vertex -38.5355 3.53549 50
    endloop
  endfacet
  facet normal -0.980785 0.195092 0
    outer loop
      vertex -40 0 0
      vertex -39.6194 1.91339 50
      vertex -39.6194 1.91339 0
    endloop
  endfacet
  facet normal -0.980785 0.195092 0
    outer loop
      vertex -40 0 0
      vertex -40 0 50
      vertex -39.6194 1.91339 50
    endloop
  endfacet
  facet normal -0.980785 -0.19509 0
    outer loop
      vertex -36.9552 -15.3073 0
      vertex -40 0 50
      vertex -40 0 0
    endloop
  endfacet
  facet normal -0.980785 -0.19509 0
    outer loop
      vertex -36.9552 -15.3073 0
      vertex -36.9552 -15.3073 50
      vertex -40 0 50
    endloop
  endfacet
  facet normal -0.831471 -0.555568 0
    outer loop
      vertex -28.2843 -28.2843 0
      vertex -36.9552 -15.3073 50
      vertex -36.9552 -15.3073 0
    endloop
  endfacet
  facet normal -0.831471 -0.555568 0
    outer loop
      vertex -28.2843 -28.2843 0
      vertex -28.2843 -28.2843 50
      vertex -36.9552 -15.3073 50
    endloop
  endfacet
  facet normal -0.555568 -0.831471 0
    outer loop
      vertex -15.3073 -36.9552 0
      vertex -28.2843 -28.2843 50
      vertex -28.2843 -28.2843 0
    endloop
  endfacet
  facet normal -0.555568 -0.831471 0
    outer loop
      vertex -15.3073 -36.9552 0
      vertex -15.3073 -36.9552 50
      vertex -28.2843 -28.2843 50
    endloop
  endfacet
  facet normal -0.19509 -0.980785 0
    outer loop
      vertex 0 -40 0
      vertex -15.3073 -36.9552 50
      vertex -15.3073 -36.9552 0
    endloop
  endfacet
  facet normal -0.19509 -0.980785 0
    outer loop
      vertex 0 -40 0
      vertex 0 -40 50
      vertex -15.3073 -36.9552 50
    endloop
  endfacet
  facet normal 0.156436 -0.987688 0
    outer loop
      vertex 13.5195 -37.8587 0
      vertex 0 -40 50
      vertex 0 -40 0
    endloop
  endfacet
  facet normal 0.156436 -0.987688 0
    outer loop
      vertex 13.5195 -37.8587 0
      vertex 13.5195 -37.8587 50
      vertex 0 -40 50
    endloop
  endfacet
  facet normal 0.453989 -0.891007 0
    outer loop
      vertex 25.7156 -31.6445 0
      vertex 13.5195 -37.8587 50
      vertex 13.5195 -37.8587 0
    endloop
  endfacet
  facet normal 0.453989 -0.891007 0
    outer loop
      vertex 25.7156 -31.6445 0
      vertex 25.7156 -31.6445 50
      vertex 13.5195 -37.8587 50
    endloop
  endfacet
  facet normal 0.707107 -0.707107 0
    outer loop
      vertex 35.3945 -21.9656 0
      vertex 25.7156 -31.6445 50
      vertex 25.7156 -31.6445 0
    endloop
  endfacet
  facet normal 0.707107 -0.707107 0
    outer loop
      vertex 35.3945 -21.9656 0
      vertex 35.3945 -21.9656 50
      vertex 25.7156 -31.6445 50
    endloop
  endfacet
  facet normal 0.891007 -0.453989 0
    outer loop
      vertex 41.6087 -9.76949 0
      vertex 35.3945 -21.9656 50
      vertex 35.3945 -21.9656 0
    endloop
  endfacet
  facet normal 0.891007 -0.453989 0
    outer loop
      vertex 41.6087 -9.76949 0
      vertex 41.6087 -9.76949 50
      vertex 35.3945 -21.9656 50
    endloop
  endfacet
  facet normal 0.987688 -0.156436 0
    outer loop
      vertex 43.75 3.75 0
      vertex 41.6087 -9.76949 50
      vertex 41.6087 -9.76949 0
    endloop
  endfacet
  facet normal 0.987688 -0.156436 0
    outer loop
      vertex 43.75 3.75 0
      vertex 43.75 3.75 50
      vertex 41.6087 -9.76949 50
    endloop
  endfacet
  facet normal 0.980786 0.195089 0
    outer loop
      vertex 40.1343 21.9275 0
      vertex 43.75 3.75 50
      vertex 43.75 3.75 0
    endloop
  endfacet
  facet normal 0.980786 0.195089 -0
    outer loop
      vertex 40.1343 21.9275 0
      vertex 40.1343 21.9275 50
      vertex 43.75 3.75 50
    endloop
  endfacet
  facet normal 0.83147 0.55557 0
    outer loop
      vertex 29.8376 37.3376 0
      vertex 40.1343 21.9275 50
      vertex 40.1343 21.9275 0
    endloop
  endfacet
  facet normal 0.83147 0.55557 -0
    outer loop
      vertex 29.8376 37.3376 0
      vertex 29.8376 37.3376 50
      vertex 40.1343 21.9275 50
    endloop
  endfacet
  facet normal 0.55557 0.83147 0
    outer loop
      vertex 14.4275 47.6343 0
      vertex 29.8376 37.3376 50
      vertex 29.8376 37.3376 0
    endloop
  endfacet
  facet normal 0.55557 0.83147 -0
    outer loop
      vertex 14.4275 47.6343 0
      vertex 14.4275 47.6343 50
      vertex 29.8376 37.3376 50
    endloop
  endfacet
  facet normal 0.195089 0.980786 0
    outer loop
      vertex -3.75 51.25 0
      vertex 14.4275 47.6343 50
      vertex 14.4275 47.6343 0
    endloop
  endfacet
  facet normal 0.195089 0.980786 -0
    outer loop
      vertex -3.75 51.25 0
      vertex -3.75 51.25 50
      vertex 14.4275 47.6343 50
    endloop
  endfacet
  facet normal -0.195092 0.980785 0
    outer loop
      vertex -23.3625 47.3488 0
      vertex -3.75 51.25 50
      vertex -3.75 51.25 0
    endloop
  endfacet
  facet normal -0.195092 0.980785 0
    outer loop
      vertex -23.3625 47.3488 0
      vertex -23.3625 47.3488 50
      vertex -3.75 51.25 50
    endloop
  endfacet
  facet normal -0.55557 0.83147 0
    outer loop
      vertex -39.9892 36.2392 0
      vertex -23.3625 47.3488 50
      vertex -23.3625 47.3488 0
    endloop
  endfacet
  facet normal -0.55557 0.83147 0
    outer loop
      vertex -39.9892 36.2392 0
      vertex -39.9892 36.2392 50
      vertex -23.3625 47.3488 50
    endloop
  endfacet
  facet normal -0.83147 0.55557 0
    outer loop
      vertex -51.0988 19.6125 0
      vertex -39.9892 36.2392 50
      vertex -39.9892 36.2392 0
    endloop
  endfacet
  facet normal -0.83147 0.55557 0
    outer loop
      vertex -51.0988 19.6125 0
      vertex -51.0988 19.6125 50
      vertex -39.9892 36.2392 50
    endloop
  endfacet
  facet normal -0.980785 0.195092 0
    outer loop
      vertex -55 0 0
      vertex -51.0988 19.6125 50
      vertex -51.0988 19.6125 0
    endloop
  endfacet
  facet normal -0.980785 0.195092 0
    outer loop
      vertex -55 0 0
      vertex -55 0 50
      vertex -51.0988 19.6125 50
    endloop
  endfacet
  facet normal -0.987688 -0.156435 0
    outer loop
      vertex -52.3081 -16.9959 0
      vertex -55 0 50
      vertex -55 0 0
    endloop
  endfacet
  facet normal -0.987688 -0.156435 0
    outer loop
      vertex -52.3081 -16.9959 0
      vertex -52.3081 -16.9959 50
      vertex -55 0 50
    endloop
  endfacet
  facet normal -0.891006 -0.453991 0
    outer loop
      vertex -44.4959 -32.3282 0
      vertex -52.3081 -16.9959 50
      vertex -52.3081 -16.9959 0
    endloop
  endfacet
  facet normal -0.891006 -0.453991 0
    outer loop
      vertex -44.4959 -32.3282 0
      vertex -44.4959 -32.3282 50
      vertex -52.3081 -16.9959 50
    endloop
  endfacet
  facet normal -0.707107 -0.707107 0
    outer loop
      vertex -32.3282 -44.4959 0
      vertex -44.4959 -32.3282 50
      vertex -44.4959 -32.3282 0
    endloop
  endfacet
  facet normal -0.707107 -0.707107 0
    outer loop
      vertex -32.3282 -44.4959 0
      vertex -32.3282 -44.4959 50
      vertex -44.4959 -32.3282 50
    endloop
  endfacet
  facet normal -0.453991 -0.891006 0
    outer loop
      vertex -16.9959 -52.3081 0
      vertex -32.3282 -44.4959 50
      vertex -32.3282 -44.4959 0
    endloop
  endfacet
  facet normal -0.453991 -0.891006 0
    outer loop
      vertex -16.9959 -52.3081 0
      vertex -16.9959 -52.3081 50
      vertex -32.3282 -44.4959 50
    endloop
  endfacet
  facet normal -0.156435 -0.987688 0
    outer loop
      vertex 0 -55 0
      vertex -16.9959 -52.3081 50
      vertex -16.9959 -52.3081 0
    endloop
  endfacet
  facet normal -0.156435 -0.987688 0
    outer loop
      vertex 0 -55 0
      vertex 0 -55 50
      vertex -16.9959 -52.3081 50
    endloop
  endfacet
  facet normal 0.156433 -0.987689 0
    outer loop
      vertex 18.1547 -52.1246 0
      vertex 0 -55 50
      vertex 0 -55 0
    endloop
  endfacet
  facet normal 0.156433 -0.987689 0
    outer loop
      vertex 18.1547 -52.1246 0
      vertex 18.1547 -52.1246 50
      vertex 0 -55 50
    endloop
  endfacet
  facet normal 0.453992 -0.891006 0
    outer loop
      vertex 34.5324 -43.7797 0
      vertex 18.1547 -52.1246 50
      vertex 18.1547 -52.1246 0
    endloop
  endfacet
  facet normal 0.453992 -0.891006 0
    outer loop
      vertex 34.5324 -43.7797 0
      vertex 34.5324 -43.7797 50
      vertex 18.1547 -52.1246 50
    endloop
  endfacet
  facet normal 0.707107 -0.707107 0
    outer loop
      vertex 47.5297 -30.7824 0
      vertex 34.5324 -43.7797 50
      vertex 34.5324 -43.7797 0
    endloop
  endfacet
  facet normal 0.707107 -0.707107 0
    outer loop
      vertex 47.5297 -30.7824 0
      vertex 47.5297 -30.7824 50
      vertex 34.5324 -43.7797 50
    endloop
  endfacet
  facet normal 0.891006 -0.453992 0
    outer loop
      vertex 55.8746 -14.4047 0
      vertex 47.5297 -30.7824 50
      vertex 47.5297 -30.7824 0
    endloop
  endfacet
  facet normal 0.891006 -0.453992 0
    outer loop
      vertex 55.8746 -14.4047 0
      vertex 55.8746 -14.4047 50
      vertex 47.5297 -30.7824 50
    endloop
  endfacet
  facet normal 0.987689 -0.156433 0
    outer loop
      vertex 58.75 3.75 0
      vertex 55.8746 -14.4047 50
      vertex 55.8746 -14.4047 0
    endloop
  endfacet
  facet normal 0.987689 -0.156433 0
    outer loop
      vertex 58.75 3.75 0
      vertex 58.75 3.75 50
      vertex 55.8746 -14.4047 50
    endloop
  endfacet
  facet normal 0.987688 0.156436 0
    outer loop
      vertex 55.691 23.0636 0
      vertex 58.75 3.75 50
      vertex 58.75 3.75 0
    endloop
  endfacet
  facet normal 0.987688 0.156436 -0
    outer loop
      vertex 55.691 23.0636 0
      vertex 55.691 23.0636 50
      vertex 58.75 3.75 50
    endloop
  endfacet
  facet normal 0.891008 0.453988 0
    outer loop
      vertex 46.8136 40.4866 0
      vertex 55.691 23.0636 50
      vertex 55.691 23.0636 0
    endloop
  endfacet
  facet normal 0.891008 0.453988 -0
    outer loop
      vertex 46.8136 40.4866 0
      vertex 46.8136 40.4866 50
      vertex 55.691 23.0636 50
    endloop
  endfacet
  facet normal 0.707107 0.707107 0
    outer loop
      vertex 32.9866 54.3136 0
      vertex 46.8136 40.4866 50
      vertex 46.8136 40.4866 0
    endloop
  endfacet
  facet normal 0.707107 0.707107 -0
    outer loop
      vertex 32.9866 54.3136 0
      vertex 32.9866 54.3136 50
      vertex 46.8136 40.4866 50
    endloop
  endfacet
  facet normal 0.453988 0.891008 0
    outer loop
      vertex 15.5636 63.191 0
      vertex 32.9866 54.3136 50
      vertex 32.9866 54.3136 0
    endloop
  endfacet
  facet normal 0.453988 0.891008 -0
    outer loop
      vertex 15.5636 63.191 0
      vertex 15.5636 63.191 50
      vertex 32.9866 54.3136 50
    endloop
  endfacet
  facet normal 0.156436 0.987688 0
    outer loop
      vertex -3.75 66.25 0
      vertex 15.5636 63.191 50
      vertex 15.5636 63.191 0
    endloop
  endfacet
  facet normal 0.156436 0.987688 -0
    outer loop
      vertex -3.75 66.25 0
      vertex -3.75 66.25 50
      vertex 15.5636 63.191 50
    endloop
  endfacet
  facet normal -0.130525 0.991445 0
    outer loop
      vertex -20.8968 63.9926 0
      vertex -3.75 66.25 50
      vertex -3.75 66.25 0
    endloop
  endfacet
  facet normal -0.130525 0.991445 0
    outer loop
      vertex -20.8968 63.9926 0
      vertex -20.8968 63.9926 50
      vertex -3.75 66.25 50
    endloop
  endfacet
  facet normal -0.382684 0.923879 0
    outer loop
      vertex -36.875 57.3742 0
      vertex -20.8968 63.9926 50
      vertex -20.8968 63.9926 0
    endloop
  endfacet
  facet normal -0.382684 0.923879 0
    outer loop
      vertex -36.875 57.3742 0
      vertex -36.875 57.3742 50
      vertex -20.8968 63.9926 50
    endloop
  endfacet
  facet normal -0.608764 0.793352 0
    outer loop
      vertex -50.5958 46.8458 0
      vertex -36.875 57.3742 50
      vertex -36.875 57.3742 0
    endloop
  endfacet
  facet normal -0.608764 0.793352 0
    outer loop
      vertex -50.5958 46.8458 0
      vertex -50.5958 46.8458 50
      vertex -36.875 57.3742 50
    endloop
  endfacet
  facet normal -0.793352 0.608764 0
    outer loop
      vertex -61.1242 33.125 0
      vertex -50.5958 46.8458 50
      vertex -50.5958 46.8458 0
    endloop
  endfacet
  facet normal -0.793352 0.608764 0
    outer loop
      vertex -61.1242 33.125 0
      vertex -61.1242 33.125 50
      vertex -50.5958 46.8458 50
    endloop
  endfacet
  facet normal -0.923879 0.382684 0
    outer loop
      vertex -67.7426 17.1468 0
      vertex -61.1242 33.125 50
      vertex -61.1242 33.125 0
    endloop
  endfacet
  facet normal -0.923879 0.382684 0
    outer loop
      vertex -67.7426 17.1468 0
      vertex -67.7426 17.1468 50
      vertex -61.1242 33.125 50
    endloop
  endfacet
  facet normal -0.991445 0.130525 0
    outer loop
      vertex -70 0 0
      vertex -67.7426 17.1468 50
      vertex -67.7426 17.1468 0
    endloop
  endfacet
  facet normal -0.991445 0.130525 0
    outer loop
      vertex -70 0 0
      vertex -70 0 50
      vertex -67.7426 17.1468 50
    endloop
  endfacet
  facet normal -0.991445 -0.130527 0
    outer loop
      vertex -67.6148 -18.1173 0
      vertex -70 0 50
      vertex -70 0 0
    endloop
  endfacet
  facet normal -0.991445 -0.130527 0
    outer loop
      vertex -67.6148 -18.1173 0
      vertex -67.6148 -18.1173 50
      vertex -70 0 50
    endloop
  endfacet
  facet normal -0.92388 -0.382681 0
    outer loop
      vertex -60.6218 -35 0
      vertex -67.6148 -18.1173 50
      vertex -67.6148 -18.1173 0
    endloop
  endfacet
  facet normal -0.92388 -0.382681 0
    outer loop
      vertex -60.6218 -35 0
      vertex -60.6218 -35 50
      vertex -67.6148 -18.1173 50
    endloop
  endfacet
  facet normal -0.793354 -0.608761 0
    outer loop
      vertex -49.4975 -49.4975 0
      vertex -60.6218 -35 50
      vertex -60.6218 -35 0
    endloop
  endfacet
  facet normal -0.793354 -0.608761 0
    outer loop
      vertex -49.4975 -49.4975 0
      vertex -49.4975 -49.4975 50
      vertex -60.6218 -35 50
    endloop
  endfacet
  facet normal -0.608761 -0.793354 0
    outer loop
      vertex -35 -60.6218 0
      vertex -49.4975 -49.4975 50
      vertex -49.4975 -49.4975 0
    endloop
  endfacet
  facet normal -0.608761 -0.793354 0
    outer loop
      vertex -35 -60.6218 0
      vertex -35 -60.6218 50
      vertex -49.4975 -49.4975 50
    endloop
  endfacet
  facet normal -0.382681 -0.92388 0
    outer loop
      vertex -18.1173 -67.6148 0
      vertex -35 -60.6218 50
      vertex -35 -60.6218 0
    endloop
  endfacet
  facet normal -0.382681 -0.92388 0
    outer loop
      vertex -18.1173 -67.6148 0
      vertex -18.1173 -67.6148 50
      vertex -35 -60.6218 50
    endloop
  endfacet
  facet normal -0.130527 -0.991445 0
    outer loop
      vertex 0 -70 0
      vertex -18.1173 -67.6148 50
      vertex -18.1173 -67.6148 0
    endloop
  endfacet
  facet normal -0.130527 -0.991445 0
    outer loop
      vertex 0 -70 0
      vertex 0 -70 50
      vertex -18.1173 -67.6148 50
    endloop
  endfacet
  facet normal 0.195092 -0.980785 0
    outer loop
      vertex 1.91339 -69.6194 0
      vertex 0 -70 50
      vertex 0 -70 0
    endloop
  endfacet
  facet normal 0.195092 -0.980785 0
    outer loop
      vertex 1.91339 -69.6194 0
      vertex 1.91339 -69.6194 50
      vertex 0 -70 50
    endloop
  endfacet
endsolid OpenSCAD_Model
