<svg width="152" height="160" viewBox="-78 -78 152 160" xmlns="http://www.w3.org/2000/svg"><path d="M -30.0000 -3.7500 A 5.0000 5.0000 0 0 0 -40.0000 -3.7500 A 40.0000 40.0000 0 0 0 -0.0000 36.2500 A 43.7500 43.7500 0 0 0 43.7500 -7.5000 A 47.5000 47.5000 0 0 0 -3.7500 -55.0000 A 51.2500 51.2500 0 0 0 -55.0000 -3.7500 A 55.0000 55.0000 0 0 0 -0.0000 51.2500 A 58.7500 58.7500 0 0 0 58.7500 -7.5000 A 62.5000 62.5000 0 0 0 -3.7500 -70.0000 A 66.2500 66.2500 0 0 0 -70.0000 -3.7500 A 70.0000 70.0000 0 0 0 -0.0000 66.2500 A 5.0000 5.0000 0 0 0 -0.0000 56.2500 A 60.0000 60.0000 0 0 1 -60.0000 -3.7500 A 56.2500 56.2500 0 0 1 -3.7500 -60.0000 A 52.5000 52.5000 0 0 1 48.7500 -7.5000 A 48.7500 48.7500 0 0 1 -0.0000 41.2500 A 45.0000 45.0000 0 0 1 -45.0000 -3.7500 A 41.2500 41.2500 0 0 1 -3.7500 -45.0000 A 37.5000 37.5000 0 0 1 33.7500 -7.5000 A 33.7500 33.7500 0 0 1 -0.0000 26.2500 A 30.0000 30.0000 0 0 1 -30.0000 -3.7500 Z" stroke="green" stroke-width="1" fill="none" /></svg>