solid OpenSCAD_Model
  facet normal 0 0 -1
    outer loop
      vertex 130.888 0.457886 0
      vertex 130.291 0.117889 0
      vertex 129.615 0 0
    endloop
  endfacet
  facet normal 0 0 -1
    outer loop
      vertex 130.888 0.457886 0
      vertex 130.942 3.49609 0
      vertex 131.579 1.6218 0
    endloop
  endfacet
  facet normal 0 0 -1
    outer loop
      vertex 130.888 0.457886 0
      vertex 131.579 1.6218 0
      vertex 131.335 0.979599 0
    endloop
  endfacet
  facet normal 0 0 -1
    outer loop
      vertex 130.942 3.49609 0
      vertex 131.37 2.95889 0
      vertex 131.591 2.30849 0
    endloop
  endfacet
  facet normal 0 0 -1
    outer loop
      vertex 131.579 1.6218 0
      vertex 130.942 3.49609 0
      vertex 131.591 2.30849 0
    endloop
  endfacet
  facet normal -0 0 -1
    outer loop
      vertex 130.888 0.457886 0
      vertex 129.615 0 0
      vertex 130.942 3.49609 0
    endloop
  endfacet
  facet normal -0 0 -1
    outer loop
      vertex 130.942 3.49609 0
      vertex 129.615 0 0
      vertex 130.358 3.85699 0
    endloop
  endfacet
  facet normal 0 -0 -1
    outer loop
      vertex 36 20 0
      vertex 42.9385 16.3198 0
      vertex 34.7821 13.8771 0
    endloop
  endfacet
  facet normal 0 0 -1
    outer loop
      vertex 1.38199 39.9021 0
      vertex 0.0978851 38.618 0
      vertex 0.824387 39.618 0
    endloop
  endfacet
  facet normal 0 0 -1
    outer loop
      vertex 0.824387 39.618 0
      vertex 0.0978851 38.618 0
      vertex 0.381989 39.1756 0
    endloop
  endfacet
  facet normal 0 0 -1
    outer loop
      vertex 1.38199 39.9021 0
      vertex 0 38 0
      vertex 0.0978851 38.618 0
    endloop
  endfacet
  facet normal 0 -0 -1
    outer loop
      vertex 1.38199 39.9021 0
      vertex 2 40 0
      vertex 0 38 0
    endloop
  endfacet
  facet normal -0 0 -1
    outer loop
      vertex 20 4 0
      vertex 2 0 0
      vertex 13.8771 5.2179 0
    endloop
  endfacet
  facet normal 0 0 -1
    outer loop
      vertex 0.152191 1.23459 0
      vertex 0 2 0
      vertex 0.585785 0.585785 0
    endloop
  endfacet
  facet normal 0 0 -1
    outer loop
      vertex 0.585785 0.585785 0
      vertex 2 0 0
      vertex 1.23459 0.152191 0
    endloop
  endfacet
  facet normal 0 0 -1
    outer loop
      vertex 0.585785 0.585785 0
      vertex 0 2 0
      vertex 2 0 0
    endloop
  endfacet
  facet normal 0 0 -1
    outer loop
      vertex 0 38 0
      vertex 5.2179 26.1229 0
      vertex 4 20 0
    endloop
  endfacet
  facet normal 0 0 -1
    outer loop
      vertex 0 38 0
      vertex 8.68629 31.3137 0
      vertex 5.2179 26.1229 0
    endloop
  endfacet
  facet normal 0 0 -1
    outer loop
      vertex 34.7821 13.8771 0
      vertex 42.9385 16.3198 0
      vertex 43.8763 11.6052 0
    endloop
  endfacet
  facet normal 0 0 -1
    outer loop
      vertex 31.3137 31.3137 0
      vertex 26.1229 34.7821 0
      vertex 39.6148 40 0
    endloop
  endfacet
  facet normal 0 -0 -1
    outer loop
      vertex 55.2582 4 0
      vertex 129.615 0 0
      vertex 2 0 0
    endloop
  endfacet
  facet normal -0 0 -1
    outer loop
      vertex 13.8771 5.2179 0
      vertex 2 0 0
      vertex 8.68629 8.68629 0
    endloop
  endfacet
  facet normal 0 0 -1
    outer loop
      vertex 8.68629 8.68629 0
      vertex 2 0 0
      vertex 0 2 0
    endloop
  endfacet
  facet normal 0 -0 -1
    outer loop
      vertex 4 20 0
      vertex 5.2179 13.8771 0
      vertex 0 2 0
    endloop
  endfacet
  facet normal 0 -0 -1
    outer loop
      vertex 5.2179 13.8771 0
      vertex 8.68629 8.68629 0
      vertex 0 2 0
    endloop
  endfacet
  facet normal 0 0 -1
    outer loop
      vertex 0 38 0
      vertex 4 20 0
      vertex 0 2 0
    endloop
  endfacet
  facet normal 0 0 -1
    outer loop
      vertex 0 38 0
      vertex 2 40 0
      vertex 8.68629 31.3137 0
    endloop
  endfacet
  facet normal 0 0 -1
    outer loop
      vertex 8.68629 31.3137 0
      vertex 2 40 0
      vertex 13.8771 34.7821 0
    endloop
  endfacet
  facet normal 0 0 -1
    outer loop
      vertex 13.8771 34.7821 0
      vertex 2 40 0
      vertex 20 36 0
    endloop
  endfacet
  facet normal -0 0 -1
    outer loop
      vertex 39.6148 40 0
      vertex 20 36 0
      vertex 2 40 0
    endloop
  endfacet
  facet normal 0 0 -1
    outer loop
      vertex 39.6148 40 0
      vertex 26.1229 34.7821 0
      vertex 20 36 0
    endloop
  endfacet
  facet normal -0 0 -1
    outer loop
      vertex 40.3576 39.857 0
      vertex 31.3137 31.3137 0
      vertex 39.6148 40 0
    endloop
  endfacet
  facet normal 0 0 -1
    outer loop
      vertex 40.3576 39.857 0
      vertex 34.7821 26.1229 0
      vertex 31.3137 31.3137 0
    endloop
  endfacet
  facet normal 0 0 -1
    outer loop
      vertex 129.615 0 0
      vertex 55.2582 4 0
      vertex 80.7549 4 0
    endloop
  endfacet
  facet normal 0 0 -1
    outer loop
      vertex 77.9194 18.2551 0
      vertex 63.9696 25.0312 0
      vertex 80.7549 18.8191 0
    endloop
  endfacet
  facet normal -0 0 -1
    outer loop
      vertex 55.2582 4 0
      vertex 2 0 0
      vertex 20 4 0
    endloop
  endfacet
  facet normal -0 0 -1
    outer loop
      vertex 50.5437 4.93779 0
      vertex 20 4 0
      vertex 26.1229 5.2179 0
    endloop
  endfacet
  facet normal 0 0 -1
    outer loop
      vertex 55.2582 4 0
      vertex 20 4 0
      vertex 50.5437 4.93779 0
    endloop
  endfacet
  facet normal -0 0 -1
    outer loop
      vertex 46.5468 7.6084 0
      vertex 26.1229 5.2179 0
      vertex 31.3137 8.68629 0
    endloop
  endfacet
  facet normal 0 0 -1
    outer loop
      vertex 50.5437 4.93779 0
      vertex 26.1229 5.2179 0
      vertex 46.5468 7.6084 0
    endloop
  endfacet
  facet normal -0 0 -1
    outer loop
      vertex 43.8763 11.6052 0
      vertex 31.3137 8.68629 0
      vertex 34.7821 13.8771 0
    endloop
  endfacet
  facet normal 0 0 -1
    outer loop
      vertex 46.5468 7.6084 0
      vertex 31.3137 8.68629 0
      vertex 43.8763 11.6052 0
    endloop
  endfacet
  facet normal 0 0 -1
    outer loop
      vertex 36 20 0
      vertex 43.8763 21.0343 0
      vertex 42.9385 16.3198 0
    endloop
  endfacet
  facet normal 0 0 -1
    outer loop
      vertex 36 20 0
      vertex 34.7821 26.1229 0
      vertex 43.8763 21.0343 0
    endloop
  endfacet
  facet normal -0 0 -1
    outer loop
      vertex 46.5468 25.0312 0
      vertex 43.8763 21.0343 0
      vertex 34.7821 26.1229 0
    endloop
  endfacet
  facet normal 0 0 -1
    outer loop
      vertex 46.5468 25.0312 0
      vertex 34.7821 26.1229 0
      vertex 40.3576 39.857 0
    endloop
  endfacet
  facet normal -0 0 -1
    outer loop
      vertex 50.5437 27.7018 0
      vertex 46.5468 25.0312 0
      vertex 40.3576 39.857 0
    endloop
  endfacet
  facet normal -0 0 -1
    outer loop
      vertex 55.2582 28.6395 0
      vertex 50.5437 27.7018 0
      vertex 40.3576 39.857 0
    endloop
  endfacet
  facet normal 0 0 -1
    outer loop
      vertex 80.7549 18.8191 0
      vertex 59.9728 27.7018 0
      vertex 83.5904 18.2551 0
    endloop
  endfacet
  facet normal 0 0 -1
    outer loop
      vertex 59.9728 27.7018 0
      vertex 55.2582 28.6395 0
      vertex 40.3576 39.857 0
    endloop
  endfacet
  facet normal 0 0 -1
    outer loop
      vertex 66.6402 21.0343 0
      vertex 75.5155 16.6489 0
      vertex 67.578 16.3198 0
    endloop
  endfacet
  facet normal 0 -0 -1
    outer loop
      vertex 67.578 16.3198 0
      vertex 73.3453 11.4096 0
      vertex 66.6402 11.6052 0
    endloop
  endfacet
  facet normal 0 0 -1
    outer loop
      vertex 67.578 16.3198 0
      vertex 75.5155 16.6489 0
      vertex 73.9093 14.2451 0
    endloop
  endfacet
  facet normal 0 0 -1
    outer loop
      vertex 63.9696 7.6084 0
      vertex 73.9093 8.57399 0
      vertex 75.5155 6.1702 0
    endloop
  endfacet
  facet normal 0 0 -1
    outer loop
      vertex 59.9728 4.93779 0
      vertex 63.9696 7.6084 0
      vertex 75.5155 6.1702 0
    endloop
  endfacet
  facet normal 0 0 -1
    outer loop
      vertex 55.2582 4 0
      vertex 77.9194 4.564 0
      vertex 80.7549 4 0
    endloop
  endfacet
  facet normal 0 0 -1
    outer loop
      vertex 85.9942 16.6489 0
      vertex 97.3767 12.417 0
      vertex 95.7662 12.0966 0
    endloop
  endfacet
  facet normal 0 0 -1
    outer loop
      vertex 55.2582 4 0
      vertex 59.9728 4.93779 0
      vertex 77.9194 4.564 0
    endloop
  endfacet
  facet normal 0 0 -1
    outer loop
      vertex 77.9194 4.564 0
      vertex 59.9728 4.93779 0
      vertex 75.5155 6.1702 0
    endloop
  endfacet
  facet normal 0 0 -1
    outer loop
      vertex 63.9696 7.6084 0
      vertex 66.6402 11.6052 0
      vertex 73.9093 8.57399 0
    endloop
  endfacet
  facet normal 0 0 -1
    outer loop
      vertex 73.9093 8.57399 0
      vertex 66.6402 11.6052 0
      vertex 73.3453 11.4096 0
    endloop
  endfacet
  facet normal 0 0 -1
    outer loop
      vertex 73.3453 11.4096 0
      vertex 67.578 16.3198 0
      vertex 73.9093 14.2451 0
    endloop
  endfacet
  facet normal 0 0 -1
    outer loop
      vertex 66.6402 21.0343 0
      vertex 77.9194 18.2551 0
      vertex 75.5155 16.6489 0
    endloop
  endfacet
  facet normal 0 0 -1
    outer loop
      vertex 66.6402 21.0343 0
      vertex 63.9696 25.0312 0
      vertex 77.9194 18.2551 0
    endloop
  endfacet
  facet normal 0 0 -1
    outer loop
      vertex 63.9696 25.0312 0
      vertex 59.9728 27.7018 0
      vertex 80.7549 18.8191 0
    endloop
  endfacet
  facet normal 0 0 -1
    outer loop
      vertex 59.9728 27.7018 0
      vertex 40.3576 39.857 0
      vertex 83.5904 18.2551 0
    endloop
  endfacet
  facet normal 0 0 -1
    outer loop
      vertex 83.5904 18.2551 0
      vertex 40.3576 39.857 0
      vertex 130.358 3.85699 0
    endloop
  endfacet
  facet normal 0 0 -1
    outer loop
      vertex 94.4009 11.1843 0
      vertex 88.1645 11.4096 0
      vertex 87.6004 14.2451 0
    endloop
  endfacet
  facet normal 0 0 -1
    outer loop
      vertex 93.4886 6.59799 0
      vertex 87.6004 8.57399 0
      vertex 93.1682 8.2085 0
    endloop
  endfacet
  facet normal 0 0 -1
    outer loop
      vertex 83.5904 18.2551 0
      vertex 130.358 3.85699 0
      vertex 98.9873 12.0966 0
    endloop
  endfacet
  facet normal 0 -0 -1
    outer loop
      vertex 87.6004 8.57399 0
      vertex 93.4886 6.59799 0
      vertex 85.9942 6.1702 0
    endloop
  endfacet
  facet normal 0 -0 -1
    outer loop
      vertex 85.9942 6.1702 0
      vertex 94.4009 5.23259 0
      vertex 83.5904 4.564 0
    endloop
  endfacet
  facet normal 0 0 -1
    outer loop
      vertex 80.7549 4 0
      vertex 97.3767 4 0
      vertex 129.615 0 0
    endloop
  endfacet
  facet normal 0 -0 -1
    outer loop
      vertex 83.5904 4.564 0
      vertex 95.7662 4.32039 0
      vertex 80.7549 4 0
    endloop
  endfacet
  facet normal 0 -0 -1
    outer loop
      vertex 95.7662 4.32039 0
      vertex 97.3767 4 0
      vertex 80.7549 4 0
    endloop
  endfacet
  facet normal -0 0 -1
    outer loop
      vertex 108.213 8.24329 0
      vertex 107.401 8.08179 0
      vertex 100.353 11.1843 0
    endloop
  endfacet
  facet normal 0 -0 -1
    outer loop
      vertex 94.4009 5.23259 0
      vertex 95.7662 4.32039 0
      vertex 83.5904 4.564 0
    endloop
  endfacet
  facet normal 0 -0 -1
    outer loop
      vertex 88.1645 11.4096 0
      vertex 93.1682 8.2085 0
      vertex 87.6004 8.57399 0
    endloop
  endfacet
  facet normal 0 -0 -1
    outer loop
      vertex 93.4886 6.59799 0
      vertex 94.4009 5.23259 0
      vertex 85.9942 6.1702 0
    endloop
  endfacet
  facet normal 0 0 -1
    outer loop
      vertex 88.1645 11.4096 0
      vertex 93.4886 9.81898 0
      vertex 93.1682 8.2085 0
    endloop
  endfacet
  facet normal 0 0 -1
    outer loop
      vertex 101.585 8.2085 0
      vertex 106.253 6.93349 0
      vertex 106.091 6.1216 0
    endloop
  endfacet
  facet normal -0 0 -1
    outer loop
      vertex 94.4009 11.1843 0
      vertex 93.4886 9.81898 0
      vertex 88.1645 11.4096 0
    endloop
  endfacet
  facet normal -0 0 -1
    outer loop
      vertex 95.7662 12.0966 0
      vertex 94.4009 11.1843 0
      vertex 87.6004 14.2451 0
    endloop
  endfacet
  facet normal 0 0 -1
    outer loop
      vertex 85.9942 16.6489 0
      vertex 95.7662 12.0966 0
      vertex 87.6004 14.2451 0
    endloop
  endfacet
  facet normal 0 0 -1
    outer loop
      vertex 83.5904 18.2551 0
      vertex 97.3767 12.417 0
      vertex 85.9942 16.6489 0
    endloop
  endfacet
  facet normal 0 0 -1
    outer loop
      vertex 83.5904 18.2551 0
      vertex 98.9873 12.0966 0
      vertex 97.3767 12.417 0
    endloop
  endfacet
  facet normal 0 0 -1
    outer loop
      vertex 101.265 6.59799 0
      vertex 106.091 6.1216 0
      vertex 106.253 5.30969 0
    endloop
  endfacet
  facet normal 0 0 -1
    outer loop
      vertex 130.358 3.85699 0
      vertex 109.713 7.62189 0
      vertex 109.025 8.08179 0
    endloop
  endfacet
  facet normal 0 0 -1
    outer loop
      vertex 108.213 4 0
      vertex 97.3767 4 0
      vertex 107.401 4.1615 0
    endloop
  endfacet
  facet normal -0 -0 -1
    outer loop
      vertex 108.213 4 0
      vertex 129.615 0 0
      vertex 97.3767 4 0
    endloop
  endfacet
  facet normal 0 0 -1
    outer loop
      vertex 129.615 0 0
      vertex 108.213 4 0
      vertex 109.025 4.1615 0
    endloop
  endfacet
  facet normal 0 0 -1
    outer loop
      vertex 97.3767 4 0
      vertex 98.9873 4.32039 0
      vertex 107.401 4.1615 0
    endloop
  endfacet
  facet normal -0 0 -1
    outer loop
      vertex 106.713 4.6214 0
      vertex 98.9873 4.32039 0
      vertex 100.353 5.23259 0
    endloop
  endfacet
  facet normal 0 0 -1
    outer loop
      vertex 107.401 4.1615 0
      vertex 98.9873 4.32039 0
      vertex 106.713 4.6214 0
    endloop
  endfacet
  facet normal -0 0 -1
    outer loop
      vertex 106.253 5.30969 0
      vertex 100.353 5.23259 0
      vertex 101.265 6.59799 0
    endloop
  endfacet
  facet normal 0 0 -1
    outer loop
      vertex 106.713 4.6214 0
      vertex 100.353 5.23259 0
      vertex 106.253 5.30969 0
    endloop
  endfacet
  facet normal 0 0 -1
    outer loop
      vertex 106.091 6.1216 0
      vertex 101.265 6.59799 0
      vertex 101.585 8.2085 0
    endloop
  endfacet
  facet normal 0 0 -1
    outer loop
      vertex 101.585 8.2085 0
      vertex 106.713 7.62189 0
      vertex 106.253 6.93349 0
    endloop
  endfacet
  facet normal 0 0 -1
    outer loop
      vertex 101.585 8.2085 0
      vertex 101.265 9.81898 0
      vertex 106.713 7.62189 0
    endloop
  endfacet
  facet normal 0 0 -1
    outer loop
      vertex 106.713 7.62189 0
      vertex 101.265 9.81898 0
      vertex 107.401 8.08179 0
    endloop
  endfacet
  facet normal 0 0 -1
    outer loop
      vertex 107.401 8.08179 0
      vertex 101.265 9.81898 0
      vertex 100.353 11.1843 0
    endloop
  endfacet
  facet normal 0 0 -1
    outer loop
      vertex 109.025 8.08179 0
      vertex 108.213 8.24329 0
      vertex 98.9873 12.0966 0
    endloop
  endfacet
  facet normal 0 0 -1
    outer loop
      vertex 108.213 8.24329 0
      vertex 100.353 11.1843 0
      vertex 98.9873 12.0966 0
    endloop
  endfacet
  facet normal 0 0 -1
    outer loop
      vertex 130.358 3.85699 0
      vertex 109.025 8.08179 0
      vertex 98.9873 12.0966 0
    endloop
  endfacet
  facet normal 0 0 -1
    outer loop
      vertex 110.173 6.93349 0
      vertex 109.713 7.62189 0
      vertex 130.358 3.85699 0
    endloop
  endfacet
  facet normal 0 0 -1
    outer loop
      vertex 110.334 6.1216 0
      vertex 110.173 6.93349 0
      vertex 130.358 3.85699 0
    endloop
  endfacet
  facet normal 0 0 -1
    outer loop
      vertex 129.615 0 0
      vertex 110.334 6.1216 0
      vertex 130.358 3.85699 0
    endloop
  endfacet
  facet normal 0 0 -1
    outer loop
      vertex 129.615 0 0
      vertex 110.173 5.30969 0
      vertex 110.334 6.1216 0
    endloop
  endfacet
  facet normal 0 0 -1
    outer loop
      vertex 129.615 0 0
      vertex 109.713 4.6214 0
      vertex 110.173 5.30969 0
    endloop
  endfacet
  facet normal 0 0 -1
    outer loop
      vertex 129.615 0 0
      vertex 109.025 4.1615 0
      vertex 109.713 4.6214 0
    endloop
  endfacet
  facet normal 0 0 1
    outer loop
      vertex 129.615 0 30
      vertex 130.291 0.117889 30
      vertex 130.888 0.457886 30
    endloop
  endfacet
  facet normal 0 0 1
    outer loop
      vertex 131.579 1.6218 30
      vertex 130.942 3.49609 30
      vertex 130.888 0.457886 30
    endloop
  endfacet
  facet normal 0 -0 1
    outer loop
      vertex 131.335 0.979599 30
      vertex 131.579 1.6218 30
      vertex 130.888 0.457886 30
    endloop
  endfacet
  facet normal 0 0 1
    outer loop
      vertex 131.591 2.30849 30
      vertex 131.37 2.95889 30
      vertex 130.942 3.49609 30
    endloop
  endfacet
  facet normal 0 0 1
    outer loop
      vertex 131.591 2.30849 30
      vertex 130.942 3.49609 30
      vertex 131.579 1.6218 30
    endloop
  endfacet
  facet normal 0 0 1
    outer loop
      vertex 130.942 3.49609 30
      vertex 129.615 0 30
      vertex 130.888 0.457886 30
    endloop
  endfacet
  facet normal 0 0 1
    outer loop
      vertex 130.358 3.85699 30
      vertex 129.615 0 30
      vertex 130.942 3.49609 30
    endloop
  endfacet
  facet normal 0 0 1
    outer loop
      vertex 34.7821 13.8771 30
      vertex 42.9385 16.3198 30
      vertex 36 20 30
    endloop
  endfacet
  facet normal -0 0 1
    outer loop
      vertex 0.824387 39.618 30
      vertex 0.0978851 38.618 30
      vertex 1.38199 39.9021 30
    endloop
  endfacet
  facet normal -0 0 1
    outer loop
      vertex 0.381989 39.1756 30
      vertex 0.0978851 38.618 30
      vertex 0.824387 39.618 30
    endloop
  endfacet
  facet normal -0 0 1
    outer loop
      vertex 0.0978851 38.618 30
      vertex 0 38 30
      vertex 1.38199 39.9021 30
    endloop
  endfacet
  facet normal 0 0 1
    outer loop
      vertex 0 38 30
      vertex 2 40 30
      vertex 1.38199 39.9021 30
    endloop
  endfacet
  facet normal 0 0 1
    outer loop
      vertex 13.8771 5.2179 30
      vertex 2 0 30
      vertex 20 4 30
    endloop
  endfacet
  facet normal 0 0 1
    outer loop
      vertex 0.585785 0.585785 30
      vertex 0 2 30
      vertex 0.152191 1.23459 30
    endloop
  endfacet
  facet normal -0 -0 1
    outer loop
      vertex 1.23459 0.152191 30
      vertex 2 0 30
      vertex 0.585785 0.585785 30
    endloop
  endfacet
  facet normal 0 0 1
    outer loop
      vertex 2 0 30
      vertex 0 2 30
      vertex 0.585785 0.585785 30
    endloop
  endfacet
  facet normal 0 -0 1
    outer loop
      vertex 4 20 30
      vertex 5.2179 26.1229 30
      vertex 0 38 30
    endloop
  endfacet
  facet normal 0 -0 1
    outer loop
      vertex 5.2179 26.1229 30
      vertex 8.68629 31.3137 30
      vertex 0 38 30
    endloop
  endfacet
  facet normal 0 0 1
    outer loop
      vertex 43.8763 11.6052 30
      vertex 42.9385 16.3198 30
      vertex 34.7821 13.8771 30
    endloop
  endfacet
  facet normal 0 0 1
    outer loop
      vertex 39.6148 40 30
      vertex 26.1229 34.7821 30
      vertex 31.3137 31.3137 30
    endloop
  endfacet
  facet normal 0 0 1
    outer loop
      vertex 2 0 30
      vertex 129.615 0 30
      vertex 55.2582 4 30
    endloop
  endfacet
  facet normal 0 0 1
    outer loop
      vertex 8.68629 8.68629 30
      vertex 2 0 30
      vertex 13.8771 5.2179 30
    endloop
  endfacet
  facet normal -0 0 1
    outer loop
      vertex 0 2 30
      vertex 2 0 30
      vertex 8.68629 8.68629 30
    endloop
  endfacet
  facet normal 0 0 1
    outer loop
      vertex 0 2 30
      vertex 5.2179 13.8771 30
      vertex 4 20 30
    endloop
  endfacet
  facet normal 0 0 1
    outer loop
      vertex 0 2 30
      vertex 8.68629 8.68629 30
      vertex 5.2179 13.8771 30
    endloop
  endfacet
  facet normal 0 0 1
    outer loop
      vertex 0 2 30
      vertex 4 20 30
      vertex 0 38 30
    endloop
  endfacet
  facet normal 0 0 1
    outer loop
      vertex 8.68629 31.3137 30
      vertex 2 40 30
      vertex 0 38 30
    endloop
  endfacet
  facet normal 0 0 1
    outer loop
      vertex 13.8771 34.7821 30
      vertex 2 40 30
      vertex 8.68629 31.3137 30
    endloop
  endfacet
  facet normal 0 0 1
    outer loop
      vertex 20 36 30
      vertex 2 40 30
      vertex 13.8771 34.7821 30
    endloop
  endfacet
  facet normal -0 0 1
    outer loop
      vertex 2 40 30
      vertex 20 36 30
      vertex 39.6148 40 30
    endloop
  endfacet
  facet normal -0 0 1
    outer loop
      vertex 20 36 30
      vertex 26.1229 34.7821 30
      vertex 39.6148 40 30
    endloop
  endfacet
  facet normal 0 0 1
    outer loop
      vertex 39.6148 40 30
      vertex 31.3137 31.3137 30
      vertex 40.3576 39.857 30
    endloop
  endfacet
  facet normal -0 0 1
    outer loop
      vertex 31.3137 31.3137 30
      vertex 34.7821 26.1229 30
      vertex 40.3576 39.857 30
    endloop
  endfacet
  facet normal 0 0 1
    outer loop
      vertex 80.7549 4 30
      vertex 55.2582 4 30
      vertex 129.615 0 30
    endloop
  endfacet
  facet normal 0 0 1
    outer loop
      vertex 80.7549 18.8191 30
      vertex 63.9696 25.0312 30
      vertex 77.9194 18.2551 30
    endloop
  endfacet
  facet normal -0 0 1
    outer loop
      vertex 20 4 30
      vertex 2 0 30
      vertex 55.2582 4 30
    endloop
  endfacet
  facet normal 0 0 1
    outer loop
      vertex 26.1229 5.2179 30
      vertex 20 4 30
      vertex 50.5437 4.93779 30
    endloop
  endfacet
  facet normal 0 0 1
    outer loop
      vertex 50.5437 4.93779 30
      vertex 20 4 30
      vertex 55.2582 4 30
    endloop
  endfacet
  facet normal 0 0 1
    outer loop
      vertex 31.3137 8.68629 30
      vertex 26.1229 5.2179 30
      vertex 46.5468 7.6084 30
    endloop
  endfacet
  facet normal 0 0 1
    outer loop
      vertex 46.5468 7.6084 30
      vertex 26.1229 5.2179 30
      vertex 50.5437 4.93779 30
    endloop
  endfacet
  facet normal 0 0 1
    outer loop
      vertex 34.7821 13.8771 30
      vertex 31.3137 8.68629 30
      vertex 43.8763 11.6052 30
    endloop
  endfacet
  facet normal 0 0 1
    outer loop
      vertex 43.8763 11.6052 30
      vertex 31.3137 8.68629 30
      vertex 46.5468 7.6084 30
    endloop
  endfacet
  facet normal 0 -0 1
    outer loop
      vertex 42.9385 16.3198 30
      vertex 43.8763 21.0343 30
      vertex 36 20 30
    endloop
  endfacet
  facet normal 0 0 1
    outer loop
      vertex 43.8763 21.0343 30
      vertex 34.7821 26.1229 30
      vertex 36 20 30
    endloop
  endfacet
  facet normal 0 0 1
    outer loop
      vertex 34.7821 26.1229 30
      vertex 43.8763 21.0343 30
      vertex 46.5468 25.0312 30
    endloop
  endfacet
  facet normal 0 0 1
    outer loop
      vertex 40.3576 39.857 30
      vertex 34.7821 26.1229 30
      vertex 46.5468 25.0312 30
    endloop
  endfacet
  facet normal 0 0 1
    outer loop
      vertex 40.3576 39.857 30
      vertex 46.5468 25.0312 30
      vertex 50.5437 27.7018 30
    endloop
  endfacet
  facet normal 0 0 1
    outer loop
      vertex 40.3576 39.857 30
      vertex 50.5437 27.7018 30
      vertex 55.2582 28.6395 30
    endloop
  endfacet
  facet normal 0 0 1
    outer loop
      vertex 83.5904 18.2551 30
      vertex 59.9728 27.7018 30
      vertex 80.7549 18.8191 30
    endloop
  endfacet
  facet normal 0 0 1
    outer loop
      vertex 40.3576 39.857 30
      vertex 55.2582 28.6395 30
      vertex 59.9728 27.7018 30
    endloop
  endfacet
  facet normal 0 -0 1
    outer loop
      vertex 67.578 16.3198 30
      vertex 75.5155 16.6489 30
      vertex 66.6402 21.0343 30
    endloop
  endfacet
  facet normal -0 0 1
    outer loop
      vertex 66.6402 11.6052 30
      vertex 73.3453 11.4096 30
      vertex 67.578 16.3198 30
    endloop
  endfacet
  facet normal 0 -0 1
    outer loop
      vertex 73.9093 14.2451 30
      vertex 75.5155 16.6489 30
      vertex 67.578 16.3198 30
    endloop
  endfacet
  facet normal 0 0 1
    outer loop
      vertex 75.5155 6.1702 30
      vertex 73.9093 8.57399 30
      vertex 63.9696 7.6084 30
    endloop
  endfacet
  facet normal 0 0 1
    outer loop
      vertex 75.5155 6.1702 30
      vertex 63.9696 7.6084 30
      vertex 59.9728 4.93779 30
    endloop
  endfacet
  facet normal 0 0 1
    outer loop
      vertex 80.7549 4 30
      vertex 77.9194 4.564 30
      vertex 55.2582 4 30
    endloop
  endfacet
  facet normal 0 -0 1
    outer loop
      vertex 95.7662 12.0966 30
      vertex 97.3767 12.417 30
      vertex 85.9942 16.6489 30
    endloop
  endfacet
  facet normal 0 0 1
    outer loop
      vertex 77.9194 4.564 30
      vertex 59.9728 4.93779 30
      vertex 55.2582 4 30
    endloop
  endfacet
  facet normal 0 0 1
    outer loop
      vertex 75.5155 6.1702 30
      vertex 59.9728 4.93779 30
      vertex 77.9194 4.564 30
    endloop
  endfacet
  facet normal 0 0 1
    outer loop
      vertex 73.9093 8.57399 30
      vertex 66.6402 11.6052 30
      vertex 63.9696 7.6084 30
    endloop
  endfacet
  facet normal 0 0 1
    outer loop
      vertex 73.3453 11.4096 30
      vertex 66.6402 11.6052 30
      vertex 73.9093 8.57399 30
    endloop
  endfacet
  facet normal 0 0 1
    outer loop
      vertex 73.9093 14.2451 30
      vertex 67.578 16.3198 30
      vertex 73.3453 11.4096 30
    endloop
  endfacet
  facet normal 0 -0 1
    outer loop
      vertex 75.5155 16.6489 30
      vertex 77.9194 18.2551 30
      vertex 66.6402 21.0343 30
    endloop
  endfacet
  facet normal 0 0 1
    outer loop
      vertex 77.9194 18.2551 30
      vertex 63.9696 25.0312 30
      vertex 66.6402 21.0343 30
    endloop
  endfacet
  facet normal 0 0 1
    outer loop
      vertex 80.7549 18.8191 30
      vertex 59.9728 27.7018 30
      vertex 63.9696 25.0312 30
    endloop
  endfacet
  facet normal 0 0 1
    outer loop
      vertex 83.5904 18.2551 30
      vertex 40.3576 39.857 30
      vertex 59.9728 27.7018 30
    endloop
  endfacet
  facet normal 0 0 1
    outer loop
      vertex 130.358 3.85699 30
      vertex 40.3576 39.857 30
      vertex 83.5904 18.2551 30
    endloop
  endfacet
  facet normal 0 0 1
    outer loop
      vertex 87.6004 14.2451 30
      vertex 88.1645 11.4096 30
      vertex 94.4009 11.1843 30
    endloop
  endfacet
  facet normal 0 0 1
    outer loop
      vertex 93.1682 8.2085 30
      vertex 87.6004 8.57399 30
      vertex 93.4886 6.59799 30
    endloop
  endfacet
  facet normal -0 -0 1
    outer loop
      vertex 98.9873 12.0966 30
      vertex 130.358 3.85699 30
      vertex 83.5904 18.2551 30
    endloop
  endfacet
  facet normal 0 0 1
    outer loop
      vertex 85.9942 6.1702 30
      vertex 93.4886 6.59799 30
      vertex 87.6004 8.57399 30
    endloop
  endfacet
  facet normal 0 0 1
    outer loop
      vertex 83.5904 4.564 30
      vertex 94.4009 5.23259 30
      vertex 85.9942 6.1702 30
    endloop
  endfacet
  facet normal 0 0 1
    outer loop
      vertex 129.615 0 30
      vertex 97.3767 4 30
      vertex 80.7549 4 30
    endloop
  endfacet
  facet normal 0 0 1
    outer loop
      vertex 80.7549 4 30
      vertex 95.7662 4.32039 30
      vertex 83.5904 4.564 30
    endloop
  endfacet
  facet normal 0 0 1
    outer loop
      vertex 80.7549 4 30
      vertex 97.3767 4 30
      vertex 95.7662 4.32039 30
    endloop
  endfacet
  facet normal 0 0 1
    outer loop
      vertex 100.353 11.1843 30
      vertex 107.401 8.08179 30
      vertex 108.213 8.24329 30
    endloop
  endfacet
  facet normal -0 0 1
    outer loop
      vertex 83.5904 4.564 30
      vertex 95.7662 4.32039 30
      vertex 94.4009 5.23259 30
    endloop
  endfacet
  facet normal -0 0 1
    outer loop
      vertex 87.6004 8.57399 30
      vertex 93.1682 8.2085 30
      vertex 88.1645 11.4096 30
    endloop
  endfacet
  facet normal -0 0 1
    outer loop
      vertex 85.9942 6.1702 30
      vertex 94.4009 5.23259 30
      vertex 93.4886 6.59799 30
    endloop
  endfacet
  facet normal 0 -0 1
    outer loop
      vertex 93.1682 8.2085 30
      vertex 93.4886 9.81898 30
      vertex 88.1645 11.4096 30
    endloop
  endfacet
  facet normal 0 -0 1
    outer loop
      vertex 106.091 6.1216 30
      vertex 106.253 6.93349 30
      vertex 101.585 8.2085 30
    endloop
  endfacet
  facet normal 0 0 1
    outer loop
      vertex 88.1645 11.4096 30
      vertex 93.4886 9.81898 30
      vertex 94.4009 11.1843 30
    endloop
  endfacet
  facet normal 0 0 1
    outer loop
      vertex 87.6004 14.2451 30
      vertex 94.4009 11.1843 30
      vertex 95.7662 12.0966 30
    endloop
  endfacet
  facet normal -0 -0 1
    outer loop
      vertex 87.6004 14.2451 30
      vertex 95.7662 12.0966 30
      vertex 85.9942 16.6489 30
    endloop
  endfacet
  facet normal -0 -0 1
    outer loop
      vertex 85.9942 16.6489 30
      vertex 97.3767 12.417 30
      vertex 83.5904 18.2551 30
    endloop
  endfacet
  facet normal -0 -0 1
    outer loop
      vertex 97.3767 12.417 30
      vertex 98.9873 12.0966 30
      vertex 83.5904 18.2551 30
    endloop
  endfacet
  facet normal 0 0 1
    outer loop
      vertex 106.253 5.30969 30
      vertex 106.091 6.1216 30
      vertex 101.265 6.59799 30
    endloop
  endfacet
  facet normal 0 0 1
    outer loop
      vertex 109.025 8.08179 30
      vertex 109.713 7.62189 30
      vertex 130.358 3.85699 30
    endloop
  endfacet
  facet normal 0 0 1
    outer loop
      vertex 107.401 4.1615 30
      vertex 97.3767 4 30
      vertex 108.213 4 30
    endloop
  endfacet
  facet normal -0 0 1
    outer loop
      vertex 97.3767 4 30
      vertex 129.615 0 30
      vertex 108.213 4 30
    endloop
  endfacet
  facet normal 0 0 1
    outer loop
      vertex 109.025 4.1615 30
      vertex 108.213 4 30
      vertex 129.615 0 30
    endloop
  endfacet
  facet normal 0 0 1
    outer loop
      vertex 107.401 4.1615 30
      vertex 98.9873 4.32039 30
      vertex 97.3767 4 30
    endloop
  endfacet
  facet normal 0 0 1
    outer loop
      vertex 100.353 5.23259 30
      vertex 98.9873 4.32039 30
      vertex 106.713 4.6214 30
    endloop
  endfacet
  facet normal 0 0 1
    outer loop
      vertex 106.713 4.6214 30
      vertex 98.9873 4.32039 30
      vertex 107.401 4.1615 30
    endloop
  endfacet
  facet normal 0 0 1
    outer loop
      vertex 101.265 6.59799 30
      vertex 100.353 5.23259 30
      vertex 106.253 5.30969 30
    endloop
  endfacet
  facet normal 0 0 1
    outer loop
      vertex 106.253 5.30969 30
      vertex 100.353 5.23259 30
      vertex 106.713 4.6214 30
    endloop
  endfacet
  facet normal 0 0 1
    outer loop
      vertex 101.585 8.2085 30
      vertex 101.265 6.59799 30
      vertex 106.091 6.1216 30
    endloop
  endfacet
  facet normal 0 -0 1
    outer loop
      vertex 106.253 6.93349 30
      vertex 106.713 7.62189 30
      vertex 101.585 8.2085 30
    endloop
  endfacet
  facet normal 0 0 1
    outer loop
      vertex 106.713 7.62189 30
      vertex 101.265 9.81898 30
      vertex 101.585 8.2085 30
    endloop
  endfacet
  facet normal 0 0 1
    outer loop
      vertex 107.401 8.08179 30
      vertex 101.265 9.81898 30
      vertex 106.713 7.62189 30
    endloop
  endfacet
  facet normal 0 0 1
    outer loop
      vertex 100.353 11.1843 30
      vertex 101.265 9.81898 30
      vertex 107.401 8.08179 30
    endloop
  endfacet
  facet normal 0 0 1
    outer loop
      vertex 98.9873 12.0966 30
      vertex 108.213 8.24329 30
      vertex 109.025 8.08179 30
    endloop
  endfacet
  facet normal 0 0 1
    outer loop
      vertex 98.9873 12.0966 30
      vertex 100.353 11.1843 30
      vertex 108.213 8.24329 30
    endloop
  endfacet
  facet normal 0 0 1
    outer loop
      vertex 98.9873 12.0966 30
      vertex 109.025 8.08179 30
      vertex 130.358 3.85699 30
    endloop
  endfacet
  facet normal 0 0 1
    outer loop
      vertex 130.358 3.85699 30
      vertex 109.713 7.62189 30
      vertex 110.173 6.93349 30
    endloop
  endfacet
  facet normal 0 0 1
    outer loop
      vertex 130.358 3.85699 30
      vertex 110.173 6.93349 30
      vertex 110.334 6.1216 30
    endloop
  endfacet
  facet normal 0 0 1
    outer loop
      vertex 130.358 3.85699 30
      vertex 110.334 6.1216 30
      vertex 129.615 0 30
    endloop
  endfacet
  facet normal 0 0 1
    outer loop
      vertex 110.334 6.1216 30
      vertex 110.173 5.30969 30
      vertex 129.615 0 30
    endloop
  endfacet
  facet normal 0 0 1
    outer loop
      vertex 110.173 5.30969 30
      vertex 109.713 4.6214 30
      vertex 129.615 0 30
    endloop
  endfacet
  facet normal 0 0 1
    outer loop
      vertex 109.713 4.6214 30
      vertex 109.025 4.1615 30
      vertex 129.615 0 30
    endloop
  endfacet
  facet normal 0.494881 -0.868961 0
    outer loop
      vertex 130.888 0.457886 0
      vertex 130.291 0.117889 30
      vertex 130.291 0.117889 0
    endloop
  endfacet
  facet normal 0.494881 -0.868961 0
    outer loop
      vertex 130.888 0.457886 0
      vertex 130.888 0.457886 30
      vertex 130.291 0.117889 30
    endloop
  endfacet
  facet normal 0.759388 -0.650638 0
    outer loop
      vertex 131.335 0.979599 0
      vertex 130.888 0.457886 30
      vertex 130.888 0.457886 0
    endloop
  endfacet
  facet normal 0.759388 -0.650638 0
    outer loop
      vertex 131.335 0.979599 0
      vertex 131.335 0.979599 30
      vertex 130.888 0.457886 30
    endloop
  endfacet
  facet normal 0.934801 -0.355171 0
    outer loop
      vertex 131.579 1.6218 0
      vertex 131.335 0.979599 30
      vertex 131.335 0.979599 0
    endloop
  endfacet
  facet normal 0.934801 -0.355171 0
    outer loop
      vertex 131.579 1.6218 0
      vertex 131.579 1.6218 30
      vertex 131.335 0.979599 30
    endloop
  endfacet
  facet normal 0.999847 -0.0174725 0
    outer loop
      vertex 131.591 2.30849 0
      vertex 131.579 1.6218 30
      vertex 131.579 1.6218 0
    endloop
  endfacet
  facet normal 0.999847 -0.0174725 0
    outer loop
      vertex 131.591 2.30849 0
      vertex 131.591 2.30849 30
      vertex 131.579 1.6218 30
    endloop
  endfacet
  facet normal 0.946833 0.321725 0
    outer loop
      vertex 131.37 2.95889 0
      vertex 131.591 2.30849 30
      vertex 131.591 2.30849 0
    endloop
  endfacet
  facet normal 0.946833 0.321725 -0
    outer loop
      vertex 131.37 2.95889 0
      vertex 131.37 2.95889 30
      vertex 131.591 2.30849 30
    endloop
  endfacet
  facet normal 0.782117 0.623131 0
    outer loop
      vertex 130.942 3.49609 0
      vertex 131.37 2.95889 30
      vertex 131.37 2.95889 0
    endloop
  endfacet
  facet normal 0.782117 0.623131 -0
    outer loop
      vertex 130.942 3.49609 0
      vertex 130.942 3.49609 30
      vertex 131.37 2.95889 30
    endloop
  endfacet
  facet normal 0.525698 0.850672 0
    outer loop
      vertex 130.358 3.85699 0
      vertex 130.942 3.49609 30
      vertex 130.942 3.49609 0
    endloop
  endfacet
  facet normal 0.525698 0.850672 -0
    outer loop
      vertex 130.358 3.85699 0
      vertex 130.358 3.85699 30
      vertex 130.942 3.49609 30
    endloop
  endfacet
  facet normal 0.371389 0.928477 0
    outer loop
      vertex 40.3576 39.857 0
      vertex 130.358 3.85699 30
      vertex 130.358 3.85699 0
    endloop
  endfacet
  facet normal 0.371389 0.928477 -0
    outer loop
      vertex 40.3576 39.857 0
      vertex 40.3576 39.857 30
      vertex 130.358 3.85699 30
    endloop
  endfacet
  facet normal 0.189044 0.981969 0
    outer loop
      vertex 39.6148 40 0
      vertex 40.3576 39.857 30
      vertex 40.3576 39.857 0
    endloop
  endfacet
  facet normal 0.189044 0.981969 -0
    outer loop
      vertex 39.6148 40 0
      vertex 39.6148 40 30
      vertex 40.3576 39.857 30
    endloop
  endfacet
  facet normal 0 1 0
    outer loop
      vertex 2 40 0
      vertex 39.6148 40 30
      vertex 39.6148 40 0
    endloop
  endfacet
  facet normal 0 1 0
    outer loop
      vertex 2 40 0
      vertex 2 40 30
      vertex 39.6148 40 30
    endloop
  endfacet
  facet normal -0.156461 0.987684 0
    outer loop
      vertex 1.38199 39.9021 0
      vertex 2 40 30
      vertex 2 40 0
    endloop
  endfacet
  facet normal -0.156461 0.987684 0
    outer loop
      vertex 1.38199 39.9021 0
      vertex 1.38199 39.9021 30
      vertex 2 40 30
    endloop
  endfacet
  facet normal -0.453974 0.891015 0
    outer loop
      vertex 0.824387 39.618 0
      vertex 1.38199 39.9021 30
      vertex 1.38199 39.9021 0
    endloop
  endfacet
  facet normal -0.453974 0.891015 0
    outer loop
      vertex 0.824387 39.618 0
      vertex 0.824387 39.618 30
      vertex 1.38199 39.9021 30
    endloop
  endfacet
  facet normal -0.707108 0.707105 0
    outer loop
      vertex 0.381989 39.1756 0
      vertex 0.824387 39.618 30
      vertex 0.824387 39.618 0
    endloop
  endfacet
  facet normal -0.707108 0.707105 0
    outer loop
      vertex 0.381989 39.1756 0
      vertex 0.381989 39.1756 30
      vertex 0.824387 39.618 30
    endloop
  endfacet
  facet normal -0.891011 0.453981 0
    outer loop
      vertex 0.0978851 38.618 0
      vertex 0.381989 39.1756 30
      vertex 0.381989 39.1756 0
    endloop
  endfacet
  facet normal -0.891011 0.453981 0
    outer loop
      vertex 0.0978851 38.618 0
      vertex 0.0978851 38.618 30
      vertex 0.381989 39.1756 30
    endloop
  endfacet
  facet normal -0.987687 0.15644 0
    outer loop
      vertex 0 38 0
      vertex 0.0978851 38.618 30
      vertex 0.0978851 38.618 0
    endloop
  endfacet
  facet normal -0.987687 0.15644 0
    outer loop
      vertex 0 38 0
      vertex 0 38 30
      vertex 0.0978851 38.618 30
    endloop
  endfacet
  facet normal -1 0 0
    outer loop
      vertex 0 2 0
      vertex 0 38 30
      vertex 0 38 0
    endloop
  endfacet
  facet normal -1 0 0
    outer loop
      vertex 0 2 0
      vertex 0 2 30
      vertex 0 38 30
    endloop
  endfacet
  facet normal -0.9808 -0.195018 0
    outer loop
      vertex 0.152191 1.23459 0
      vertex 0 2 30
      vertex 0 2 0
    endloop
  endfacet
  facet normal -0.9808 -0.195018 0
    outer loop
      vertex 0.152191 1.23459 0
      vertex 0.152191 1.23459 30
      vertex 0 2 30
    endloop
  endfacet
  facet normal -0.831424 -0.555638 0
    outer loop
      vertex 0.585785 0.585785 0
      vertex 0.152191 1.23459 30
      vertex 0.152191 1.23459 0
    endloop
  endfacet
  facet normal -0.831424 -0.555638 0
    outer loop
      vertex 0.585785 0.585785 0
      vertex 0.585785 0.585785 30
      vertex 0.152191 1.23459 30
    endloop
  endfacet
  facet normal -0.555638 -0.831424 0
    outer loop
      vertex 1.23459 0.152191 0
      vertex 0.585785 0.585785 30
      vertex 0.585785 0.585785 0
    endloop
  endfacet
  facet normal -0.555638 -0.831424 0
    outer loop
      vertex 1.23459 0.152191 0
      vertex 1.23459 0.152191 30
      vertex 0.585785 0.585785 30
    endloop
  endfacet
  facet normal -0.195018 -0.9808 0
    outer loop
      vertex 2 0 0
      vertex 1.23459 0.152191 30
      vertex 1.23459 0.152191 0
    endloop
  endfacet
  facet normal -0.195018 -0.9808 0
    outer loop
      vertex 2 0 0
      vertex 2 0 30
      vertex 1.23459 0.152191 30
    endloop
  endfacet
  facet normal 0 -1 0
    outer loop
      vertex 129.615 0 0
      vertex 2 0 30
      vertex 2 0 0
    endloop
  endfacet
  facet normal 0 -1 0
    outer loop
      vertex 129.615 0 0
      vertex 129.615 0 30
      vertex 2 0 30
    endloop
  endfacet
  facet normal 0.171799 -0.985132 0
    outer loop
      vertex 130.291 0.117889 0
      vertex 129.615 0 30
      vertex 129.615 0 0
    endloop
  endfacet
  facet normal 0.171799 -0.985132 0
    outer loop
      vertex 130.291 0.117889 0
      vertex 130.291 0.117889 30
      vertex 129.615 0 30
    endloop
  endfacet
  facet normal 0.55557 0.831469 -0
    outer loop
      vertex 8.68629 8.68629 0
      vertex 8.68629 8.68629 30
      vertex 13.8771 5.2179 0
    endloop
  endfacet
  facet normal 0.55557 0.831469 0
    outer loop
      vertex 13.8771 5.2179 30
      vertex 13.8771 5.2179 0
      vertex 8.68629 8.68629 30
    endloop
  endfacet
  facet normal 0.831469 0.55557 -0
    outer loop
      vertex 5.2179 13.8771 0
      vertex 5.2179 13.8771 30
      vertex 8.68629 8.68629 0
    endloop
  endfacet
  facet normal 0.831469 0.55557 0
    outer loop
      vertex 8.68629 8.68629 30
      vertex 8.68629 8.68629 0
      vertex 5.2179 13.8771 30
    endloop
  endfacet
  facet normal 0.980786 0.195087 -0
    outer loop
      vertex 4 20 0
      vertex 4 20 30
      vertex 5.2179 13.8771 0
    endloop
  endfacet
  facet normal 0.980786 0.195087 0
    outer loop
      vertex 5.2179 13.8771 30
      vertex 5.2179 13.8771 0
      vertex 4 20 30
    endloop
  endfacet
  facet normal 0.980786 -0.195087 0
    outer loop
      vertex 5.2179 26.1229 0
      vertex 5.2179 26.1229 30
      vertex 4 20 0
    endloop
  endfacet
  facet normal 0.980786 -0.195087 0
    outer loop
      vertex 4 20 30
      vertex 4 20 0
      vertex 5.2179 26.1229 30
    endloop
  endfacet
  facet normal 0.831469 -0.555571 0
    outer loop
      vertex 8.68629 31.3137 0
      vertex 8.68629 31.3137 30
      vertex 5.2179 26.1229 0
    endloop
  endfacet
  facet normal 0.831469 -0.555571 0
    outer loop
      vertex 5.2179 26.1229 30
      vertex 5.2179 26.1229 0
      vertex 8.68629 31.3137 30
    endloop
  endfacet
  facet normal 0.555572 -0.831469 0
    outer loop
      vertex 13.8771 34.7821 0
      vertex 13.8771 34.7821 30
      vertex 8.68629 31.3137 0
    endloop
  endfacet
  facet normal 0.555572 -0.831469 0
    outer loop
      vertex 8.68629 31.3137 30
      vertex 8.68629 31.3137 0
      vertex 13.8771 34.7821 30
    endloop
  endfacet
  facet normal 0.195087 -0.980786 0
    outer loop
      vertex 20 36 0
      vertex 20 36 30
      vertex 13.8771 34.7821 0
    endloop
  endfacet
  facet normal 0.195087 -0.980786 0
    outer loop
      vertex 13.8771 34.7821 30
      vertex 13.8771 34.7821 0
      vertex 20 36 30
    endloop
  endfacet
  facet normal -0.195087 -0.980786 0
    outer loop
      vertex 26.1229 34.7821 0
      vertex 26.1229 34.7821 30
      vertex 20 36 0
    endloop
  endfacet
  facet normal -0.195087 -0.980786 -0
    outer loop
      vertex 20 36 30
      vertex 20 36 0
      vertex 26.1229 34.7821 30
    endloop
  endfacet
  facet normal -0.555572 -0.831468 0
    outer loop
      vertex 31.3137 31.3137 0
      vertex 31.3137 31.3137 30
      vertex 26.1229 34.7821 0
    endloop
  endfacet
  facet normal -0.555572 -0.831468 -0
    outer loop
      vertex 26.1229 34.7821 30
      vertex 26.1229 34.7821 0
      vertex 31.3137 31.3137 30
    endloop
  endfacet
  facet normal -0.831468 -0.555572 0
    outer loop
      vertex 34.7821 26.1229 0
      vertex 34.7821 26.1229 30
      vertex 31.3137 31.3137 0
    endloop
  endfacet
  facet normal -0.831468 -0.555572 -0
    outer loop
      vertex 31.3137 31.3137 30
      vertex 31.3137 31.3137 0
      vertex 34.7821 26.1229 30
    endloop
  endfacet
  facet normal -0.980786 -0.195087 0
    outer loop
      vertex 36 20 0
      vertex 36 20 30
      vertex 34.7821 26.1229 0
    endloop
  endfacet
  facet normal -0.980786 -0.195087 -0
    outer loop
      vertex 34.7821 26.1229 30
      vertex 34.7821 26.1229 0
      vertex 36 20 30
    endloop
  endfacet
  facet normal -0.980786 0.195087 0
    outer loop
      vertex 34.7821 13.8771 0
      vertex 34.7821 13.8771 30
      vertex 36 20 0
    endloop
  endfacet
  facet normal -0.980786 0.195087 0
    outer loop
      vertex 36 20 30
      vertex 36 20 0
      vertex 34.7821 13.8771 30
    endloop
  endfacet
  facet normal -0.831469 0.555572 0
    outer loop
      vertex 31.3137 8.68629 0
      vertex 31.3137 8.68629 30
      vertex 34.7821 13.8771 0
    endloop
  endfacet
  facet normal -0.831469 0.555572 0
    outer loop
      vertex 34.7821 13.8771 30
      vertex 34.7821 13.8771 0
      vertex 31.3137 8.68629 30
    endloop
  endfacet
  facet normal -0.555571 0.831469 0
    outer loop
      vertex 26.1229 5.2179 0
      vertex 26.1229 5.2179 30
      vertex 31.3137 8.68629 0
    endloop
  endfacet
  facet normal -0.555571 0.831469 0
    outer loop
      vertex 31.3137 8.68629 30
      vertex 31.3137 8.68629 0
      vertex 26.1229 5.2179 30
    endloop
  endfacet
  facet normal -0.195087 0.980786 0
    outer loop
      vertex 20 4 0
      vertex 20 4 30
      vertex 26.1229 5.2179 0
    endloop
  endfacet
  facet normal -0.195087 0.980786 0
    outer loop
      vertex 26.1229 5.2179 30
      vertex 26.1229 5.2179 0
      vertex 20 4 30
    endloop
  endfacet
  facet normal 0.195087 0.980786 -0
    outer loop
      vertex 13.8771 5.2179 0
      vertex 13.8771 5.2179 30
      vertex 20 4 0
    endloop
  endfacet
  facet normal 0.195087 0.980786 0
    outer loop
      vertex 20 4 30
      vertex 20 4 0
      vertex 13.8771 5.2179 30
    endloop
  endfacet
  facet normal 0.555565 0.831473 -0
    outer loop
      vertex 46.5468 7.6084 0
      vertex 46.5468 7.6084 30
      vertex 50.5437 4.93779 0
    endloop
  endfacet
  facet normal 0.555565 0.831473 0
    outer loop
      vertex 50.5437 4.93779 30
      vertex 50.5437 4.93779 0
      vertex 46.5468 7.6084 30
    endloop
  endfacet
  facet normal 0.831477 0.555559 -0
    outer loop
      vertex 43.8763 11.6052 0
      vertex 43.8763 11.6052 30
      vertex 46.5468 7.6084 0
    endloop
  endfacet
  facet normal 0.831477 0.555559 0
    outer loop
      vertex 46.5468 7.6084 30
      vertex 46.5468 7.6084 0
      vertex 43.8763 11.6052 30
    endloop
  endfacet
  facet normal 0.980785 0.195092 -0
    outer loop
      vertex 42.9385 16.3198 0
      vertex 42.9385 16.3198 30
      vertex 43.8763 11.6052 0
    endloop
  endfacet
  facet normal 0.980785 0.195092 0
    outer loop
      vertex 43.8763 11.6052 30
      vertex 43.8763 11.6052 0
      vertex 42.9385 16.3198 30
    endloop
  endfacet
  facet normal 0.980784 -0.195096 0
    outer loop
      vertex 43.8763 21.0343 0
      vertex 43.8763 21.0343 30
      vertex 42.9385 16.3198 0
    endloop
  endfacet
  facet normal 0.980784 -0.195096 0
    outer loop
      vertex 42.9385 16.3198 30
      vertex 42.9385 16.3198 0
      vertex 43.8763 21.0343 30
    endloop
  endfacet
  facet normal 0.831483 -0.55555 0
    outer loop
      vertex 46.5468 25.0312 0
      vertex 46.5468 25.0312 30
      vertex 43.8763 21.0343 0
    endloop
  endfacet
  facet normal 0.831483 -0.55555 0
    outer loop
      vertex 43.8763 21.0343 30
      vertex 43.8763 21.0343 0
      vertex 46.5468 25.0312 30
    endloop
  endfacet
  facet normal 0.555564 -0.831474 0
    outer loop
      vertex 50.5437 27.7018 0
      vertex 50.5437 27.7018 30
      vertex 46.5468 25.0312 0
    endloop
  endfacet
  facet normal 0.555564 -0.831474 0
    outer loop
      vertex 46.5468 25.0312 30
      vertex 46.5468 25.0312 0
      vertex 50.5437 27.7018 30
    endloop
  endfacet
  facet normal 0.195076 -0.980788 0
    outer loop
      vertex 55.2582 28.6395 0
      vertex 55.2582 28.6395 30
      vertex 50.5437 27.7018 0
    endloop
  endfacet
  facet normal 0.195076 -0.980788 0
    outer loop
      vertex 50.5437 27.7018 30
      vertex 50.5437 27.7018 0
      vertex 55.2582 28.6395 30
    endloop
  endfacet
  facet normal -0.195072 -0.980789 0
    outer loop
      vertex 59.9728 27.7018 0
      vertex 59.9728 27.7018 30
      vertex 55.2582 28.6395 0
    endloop
  endfacet
  facet normal -0.195072 -0.980789 -0
    outer loop
      vertex 55.2582 28.6395 30
      vertex 55.2582 28.6395 0
      vertex 59.9728 27.7018 30
    endloop
  endfacet
  facet normal -0.555574 -0.831467 0
    outer loop
      vertex 63.9696 25.0312 0
      vertex 63.9696 25.0312 30
      vertex 59.9728 27.7018 0
    endloop
  endfacet
  facet normal -0.555574 -0.831467 -0
    outer loop
      vertex 59.9728 27.7018 30
      vertex 59.9728 27.7018 0
      vertex 63.9696 25.0312 30
    endloop
  endfacet
  facet normal -0.831474 -0.555564 0
    outer loop
      vertex 66.6402 21.0343 0
      vertex 66.6402 21.0343 30
      vertex 63.9696 25.0312 0
    endloop
  endfacet
  facet normal -0.831474 -0.555564 -0
    outer loop
      vertex 63.9696 25.0312 30
      vertex 63.9696 25.0312 0
      vertex 66.6402 21.0343 30
    endloop
  endfacet
  facet normal -0.980784 -0.195096 0
    outer loop
      vertex 67.578 16.3198 0
      vertex 67.578 16.3198 30
      vertex 66.6402 21.0343 0
    endloop
  endfacet
  facet normal -0.980784 -0.195096 -0
    outer loop
      vertex 66.6402 21.0343 30
      vertex 66.6402 21.0343 0
      vertex 67.578 16.3198 30
    endloop
  endfacet
  facet normal -0.980785 0.195092 0
    outer loop
      vertex 66.6402 11.6052 0
      vertex 66.6402 11.6052 30
      vertex 67.578 16.3198 0
    endloop
  endfacet
  facet normal -0.980785 0.195092 0
    outer loop
      vertex 67.578 16.3198 30
      vertex 67.578 16.3198 0
      vertex 66.6402 11.6052 30
    endloop
  endfacet
  facet normal -0.831467 0.555574 0
    outer loop
      vertex 63.9696 7.6084 0
      vertex 63.9696 7.6084 30
      vertex 66.6402 11.6052 0
    endloop
  endfacet
  facet normal -0.831467 0.555574 0
    outer loop
      vertex 66.6402 11.6052 30
      vertex 66.6402 11.6052 0
      vertex 63.9696 7.6084 30
    endloop
  endfacet
  facet normal -0.555575 0.831466 0
    outer loop
      vertex 59.9728 4.93779 0
      vertex 59.9728 4.93779 30
      vertex 63.9696 7.6084 0
    endloop
  endfacet
  facet normal -0.555575 0.831466 0
    outer loop
      vertex 63.9696 7.6084 30
      vertex 63.9696 7.6084 0
      vertex 59.9728 4.93779 30
    endloop
  endfacet
  facet normal -0.19509 0.980785 0
    outer loop
      vertex 55.2582 4 0
      vertex 55.2582 4 30
      vertex 59.9728 4.93779 0
    endloop
  endfacet
  facet normal -0.19509 0.980785 0
    outer loop
      vertex 59.9728 4.93779 30
      vertex 59.9728 4.93779 0
      vertex 55.2582 4 30
    endloop
  endfacet
  facet normal 0.195094 0.980785 -0
    outer loop
      vertex 50.5437 4.93779 0
      vertex 50.5437 4.93779 30
      vertex 55.2582 4 0
    endloop
  endfacet
  facet normal 0.195094 0.980785 0
    outer loop
      vertex 55.2582 4 30
      vertex 55.2582 4 0
      vertex 50.5437 4.93779 30
    endloop
  endfacet
  facet normal 0.555562 0.831475 -0
    outer loop
      vertex 75.5155 6.1702 0
      vertex 75.5155 6.1702 30
      vertex 77.9194 4.564 0
    endloop
  endfacet
  facet normal 0.555562 0.831475 0
    outer loop
      vertex 77.9194 4.564 30
      vertex 77.9194 4.564 0
      vertex 75.5155 6.1702 30
    endloop
  endfacet
  facet normal 0.831463 0.55558 -0
    outer loop
      vertex 73.9093 8.57399 0
      vertex 73.9093 8.57399 30
      vertex 75.5155 6.1702 0
    endloop
  endfacet
  facet normal 0.831463 0.55558 0
    outer loop
      vertex 75.5155 6.1702 30
      vertex 75.5155 6.1702 0
      vertex 73.9093 8.57399 30
    endloop
  endfacet
  facet normal 0.980788 0.195078 -0
    outer loop
      vertex 73.3453 11.4096 0
      vertex 73.3453 11.4096 30
      vertex 73.9093 8.57399 0
    endloop
  endfacet
  facet normal 0.980788 0.195078 0
    outer loop
      vertex 73.9093 8.57399 30
      vertex 73.9093 8.57399 0
      vertex 73.3453 11.4096 30
    endloop
  endfacet
  facet normal 0.980786 -0.195085 0
    outer loop
      vertex 73.9093 14.2451 0
      vertex 73.9093 14.2451 30
      vertex 73.3453 11.4096 0
    endloop
  endfacet
  facet normal 0.980786 -0.195085 0
    outer loop
      vertex 73.3453 11.4096 30
      vertex 73.3453 11.4096 0
      vertex 73.9093 14.2451 30
    endloop
  endfacet
  facet normal 0.831464 -0.555578 0
    outer loop
      vertex 75.5155 16.6489 0
      vertex 75.5155 16.6489 30
      vertex 73.9093 14.2451 0
    endloop
  endfacet
  facet normal 0.831464 -0.555578 0
    outer loop
      vertex 73.9093 14.2451 30
      vertex 73.9093 14.2451 0
      vertex 75.5155 16.6489 30
    endloop
  endfacet
  facet normal 0.555562 -0.831475 0
    outer loop
      vertex 77.9194 18.2551 0
      vertex 77.9194 18.2551 30
      vertex 75.5155 16.6489 0
    endloop
  endfacet
  facet normal 0.555562 -0.831475 0
    outer loop
      vertex 75.5155 16.6489 30
      vertex 75.5155 16.6489 0
      vertex 77.9194 18.2551 30
    endloop
  endfacet
  facet normal 0.195085 -0.980786 0
    outer loop
      vertex 80.7549 18.8191 0
      vertex 80.7549 18.8191 30
      vertex 77.9194 18.2551 0
    endloop
  endfacet
  facet normal 0.195085 -0.980786 0
    outer loop
      vertex 77.9194 18.2551 30
      vertex 77.9194 18.2551 0
      vertex 80.7549 18.8191 30
    endloop
  endfacet
  facet normal -0.195085 -0.980786 0
    outer loop
      vertex 83.5904 18.2551 0
      vertex 83.5904 18.2551 30
      vertex 80.7549 18.8191 0
    endloop
  endfacet
  facet normal -0.195085 -0.980786 -0
    outer loop
      vertex 80.7549 18.8191 30
      vertex 80.7549 18.8191 0
      vertex 83.5904 18.2551 30
    endloop
  endfacet
  facet normal -0.555578 -0.831464 0
    outer loop
      vertex 85.9942 16.6489 0
      vertex 85.9942 16.6489 30
      vertex 83.5904 18.2551 0
    endloop
  endfacet
  facet normal -0.555578 -0.831464 -0
    outer loop
      vertex 83.5904 18.2551 30
      vertex 83.5904 18.2551 0
      vertex 85.9942 16.6489 30
    endloop
  endfacet
  facet normal -0.831464 -0.555578 0
    outer loop
      vertex 87.6004 14.2451 0
      vertex 87.6004 14.2451 30
      vertex 85.9942 16.6489 0
    endloop
  endfacet
  facet normal -0.831464 -0.555578 -0
    outer loop
      vertex 85.9942 16.6489 30
      vertex 85.9942 16.6489 0
      vertex 87.6004 14.2451 30
    endloop
  endfacet
  facet normal -0.98078 -0.195118 0
    outer loop
      vertex 88.1645 11.4096 0
      vertex 88.1645 11.4096 30
      vertex 87.6004 14.2451 0
    endloop
  endfacet
  facet normal -0.98078 -0.195118 -0
    outer loop
      vertex 87.6004 14.2451 30
      vertex 87.6004 14.2451 0
      vertex 88.1645 11.4096 30
    endloop
  endfacet
  facet normal -0.980781 0.195111 0
    outer loop
      vertex 87.6004 8.57399 0
      vertex 87.6004 8.57399 30
      vertex 88.1645 11.4096 0
    endloop
  endfacet
  facet normal -0.980781 0.195111 0
    outer loop
      vertex 88.1645 11.4096 30
      vertex 88.1645 11.4096 0
      vertex 87.6004 8.57399 30
    endloop
  endfacet
  facet normal -0.831463 0.55558 0
    outer loop
      vertex 85.9942 6.1702 0
      vertex 85.9942 6.1702 30
      vertex 87.6004 8.57399 0
    endloop
  endfacet
  facet normal -0.831463 0.55558 0
    outer loop
      vertex 87.6004 8.57399 30
      vertex 87.6004 8.57399 0
      vertex 85.9942 6.1702 30
    endloop
  endfacet
  facet normal -0.555578 0.831464 0
    outer loop
      vertex 83.5904 4.564 0
      vertex 83.5904 4.564 30
      vertex 85.9942 6.1702 0
    endloop
  endfacet
  facet normal -0.555578 0.831464 0
    outer loop
      vertex 85.9942 6.1702 30
      vertex 85.9942 6.1702 0
      vertex 83.5904 4.564 30
    endloop
  endfacet
  facet normal -0.195085 0.980786 0
    outer loop
      vertex 80.7549 4 0
      vertex 80.7549 4 30
      vertex 83.5904 4.564 0
    endloop
  endfacet
  facet normal -0.195085 0.980786 0
    outer loop
      vertex 83.5904 4.564 30
      vertex 83.5904 4.564 0
      vertex 80.7549 4 30
    endloop
  endfacet
  facet normal 0.195085 0.980786 -0
    outer loop
      vertex 77.9194 4.564 0
      vertex 77.9194 4.564 30
      vertex 80.7549 4 0
    endloop
  endfacet
  facet normal 0.195085 0.980786 0
    outer loop
      vertex 80.7549 4 30
      vertex 80.7549 4 0
      vertex 77.9194 4.564 30
    endloop
  endfacet
  facet normal 0.555543 0.831488 -0
    outer loop
      vertex 94.4009 5.23259 0
      vertex 94.4009 5.23259 30
      vertex 95.7662 4.32039 0
    endloop
  endfacet
  facet normal 0.555543 0.831488 0
    outer loop
      vertex 95.7662 4.32039 30
      vertex 95.7662 4.32039 0
      vertex 94.4009 5.23259 30
    endloop
  endfacet
  facet normal 0.831478 0.555557 -0
    outer loop
      vertex 93.4886 6.59799 0
      vertex 93.4886 6.59799 30
      vertex 94.4009 5.23259 0
    endloop
  endfacet
  facet normal 0.831478 0.555557 0
    outer loop
      vertex 94.4009 5.23259 30
      vertex 94.4009 5.23259 0
      vertex 93.4886 6.59799 30
    endloop
  endfacet
  facet normal 0.980779 0.195119 -0
    outer loop
      vertex 93.1682 8.2085 0
      vertex 93.1682 8.2085 30
      vertex 93.4886 6.59799 0
    endloop
  endfacet
  facet normal 0.980779 0.195119 0
    outer loop
      vertex 93.4886 6.59799 30
      vertex 93.4886 6.59799 0
      vertex 93.1682 8.2085 30
    endloop
  endfacet
  facet normal 0.980779 -0.195123 0
    outer loop
      vertex 93.4886 9.81898 0
      vertex 93.4886 9.81898 30
      vertex 93.1682 8.2085 0
    endloop
  endfacet
  facet normal 0.980779 -0.195123 0
    outer loop
      vertex 93.1682 8.2085 30
      vertex 93.1682 8.2085 0
      vertex 93.4886 9.81898 30
    endloop
  endfacet
  facet normal 0.831463 -0.55558 0
    outer loop
      vertex 94.4009 11.1843 0
      vertex 94.4009 11.1843 30
      vertex 93.4886 9.81898 0
    endloop
  endfacet
  facet normal 0.831463 -0.55558 0
    outer loop
      vertex 93.4886 9.81898 30
      vertex 93.4886 9.81898 0
      vertex 94.4009 11.1843 30
    endloop
  endfacet
  facet normal 0.555585 -0.83146 0
    outer loop
      vertex 95.7662 12.0966 0
      vertex 95.7662 12.0966 30
      vertex 94.4009 11.1843 0
    endloop
  endfacet
  facet normal 0.555585 -0.83146 0
    outer loop
      vertex 94.4009 11.1843 30
      vertex 94.4009 11.1843 0
      vertex 95.7662 12.0966 30
    endloop
  endfacet
  facet normal 0.195121 -0.980779 0
    outer loop
      vertex 97.3767 12.417 0
      vertex 97.3767 12.417 30
      vertex 95.7662 12.0966 0
    endloop
  endfacet
  facet normal 0.195121 -0.980779 0
    outer loop
      vertex 95.7662 12.0966 30
      vertex 95.7662 12.0966 0
      vertex 97.3767 12.417 30
    endloop
  endfacet
  facet normal -0.195109 -0.980782 0
    outer loop
      vertex 98.9873 12.0966 0
      vertex 98.9873 12.0966 30
      vertex 97.3767 12.417 0
    endloop
  endfacet
  facet normal -0.195109 -0.980782 -0
    outer loop
      vertex 97.3767 12.417 30
      vertex 97.3767 12.417 0
      vertex 98.9873 12.0966 30
    endloop
  endfacet
  facet normal -0.555473 -0.831535 0
    outer loop
      vertex 100.353 11.1843 0
      vertex 100.353 11.1843 30
      vertex 98.9873 12.0966 0
    endloop
  endfacet
  facet normal -0.555473 -0.831535 -0
    outer loop
      vertex 98.9873 12.0966 30
      vertex 98.9873 12.0966 0
      vertex 100.353 11.1843 30
    endloop
  endfacet
  facet normal -0.831548 -0.555453 0
    outer loop
      vertex 101.265 9.81898 0
      vertex 101.265 9.81898 30
      vertex 100.353 11.1843 0
    endloop
  endfacet
  facet normal -0.831548 -0.555453 -0
    outer loop
      vertex 100.353 11.1843 30
      vertex 100.353 11.1843 0
      vertex 101.265 9.81898 30
    endloop
  endfacet
  facet normal -0.980825 -0.194889 0
    outer loop
      vertex 101.585 8.2085 0
      vertex 101.585 8.2085 30
      vertex 101.265 9.81898 0
    endloop
  endfacet
  facet normal -0.980825 -0.194889 -0
    outer loop
      vertex 101.265 9.81898 30
      vertex 101.265 9.81898 0
      vertex 101.585 8.2085 30
    endloop
  endfacet
  facet normal -0.980826 0.194885 0
    outer loop
      vertex 101.265 6.59799 0
      vertex 101.265 6.59799 30
      vertex 101.585 8.2085 0
    endloop
  endfacet
  facet normal -0.980826 0.194885 0
    outer loop
      vertex 101.585 8.2085 30
      vertex 101.585 8.2085 0
      vertex 101.265 6.59799 30
    endloop
  endfacet
  facet normal -0.831563 0.555431 0
    outer loop
      vertex 100.353 5.23259 0
      vertex 100.353 5.23259 30
      vertex 101.265 6.59799 0
    endloop
  endfacet
  facet normal -0.831563 0.555431 0
    outer loop
      vertex 101.265 6.59799 30
      vertex 101.265 6.59799 0
      vertex 100.353 5.23259 30
    endloop
  endfacet
  facet normal -0.555431 0.831563 0
    outer loop
      vertex 98.9873 4.32039 0
      vertex 98.9873 4.32039 30
      vertex 100.353 5.23259 0
    endloop
  endfacet
  facet normal -0.555431 0.831563 0
    outer loop
      vertex 100.353 5.23259 30
      vertex 100.353 5.23259 0
      vertex 98.9873 4.32039 30
    endloop
  endfacet
  facet normal -0.195103 0.980783 0
    outer loop
      vertex 97.3767 4 0
      vertex 97.3767 4 30
      vertex 98.9873 4.32039 0
    endloop
  endfacet
  facet normal -0.195103 0.980783 0
    outer loop
      vertex 98.9873 4.32039 30
      vertex 98.9873 4.32039 0
      vertex 97.3767 4 30
    endloop
  endfacet
  facet normal 0.195115 0.98078 -0
    outer loop
      vertex 95.7662 4.32039 0
      vertex 95.7662 4.32039 30
      vertex 97.3767 4 0
    endloop
  endfacet
  facet normal 0.195115 0.98078 0
    outer loop
      vertex 97.3767 4 30
      vertex 97.3767 4 0
      vertex 95.7662 4.32039 30
    endloop
  endfacet
  facet normal 0.555732 0.831362 -0
    outer loop
      vertex 106.713 4.6214 0
      vertex 106.713 4.6214 30
      vertex 107.401 4.1615 0
    endloop
  endfacet
  facet normal 0.555732 0.831362 0
    outer loop
      vertex 107.401 4.1615 30
      vertex 107.401 4.1615 0
      vertex 106.713 4.6214 30
    endloop
  endfacet
  facet normal 0.831414 0.555653 -0
    outer loop
      vertex 106.253 5.30969 0
      vertex 106.253 5.30969 30
      vertex 106.713 4.6214 0
    endloop
  endfacet
  facet normal 0.831414 0.555653 0
    outer loop
      vertex 106.713 4.6214 30
      vertex 106.713 4.6214 0
      vertex 106.253 5.30969 30
    endloop
  endfacet
  facet normal 0.980669 0.195672 -0
    outer loop
      vertex 106.091 6.1216 0
      vertex 106.091 6.1216 30
      vertex 106.253 5.30969 0
    endloop
  endfacet
  facet normal 0.980669 0.195672 0
    outer loop
      vertex 106.253 5.30969 30
      vertex 106.253 5.30969 0
      vertex 106.091 6.1216 30
    endloop
  endfacet
  facet normal 0.980668 -0.195677 0
    outer loop
      vertex 106.253 6.93349 0
      vertex 106.253 6.93349 30
      vertex 106.091 6.1216 0
    endloop
  endfacet
  facet normal 0.980668 -0.195677 0
    outer loop
      vertex 106.091 6.1216 30
      vertex 106.091 6.1216 0
      vertex 106.253 6.93349 30
    endloop
  endfacet
  facet normal 0.831455 -0.555592 0
    outer loop
      vertex 106.713 7.62189 0
      vertex 106.713 7.62189 30
      vertex 106.253 6.93349 0
    endloop
  endfacet
  facet normal 0.831455 -0.555592 0
    outer loop
      vertex 106.253 6.93349 30
      vertex 106.253 6.93349 0
      vertex 106.713 7.62189 30
    endloop
  endfacet
  facet normal 0.555732 -0.831362 0
    outer loop
      vertex 107.401 8.08179 0
      vertex 107.401 8.08179 30
      vertex 106.713 7.62189 0
    endloop
  endfacet
  facet normal 0.555732 -0.831362 0
    outer loop
      vertex 106.713 7.62189 30
      vertex 106.713 7.62189 0
      vertex 107.401 8.08179 30
    endloop
  endfacet
  facet normal 0.195071 -0.980789 0
    outer loop
      vertex 108.213 8.24329 0
      vertex 108.213 8.24329 30
      vertex 107.401 8.08179 0
    endloop
  endfacet
  facet normal 0.195071 -0.980789 0
    outer loop
      vertex 107.401 8.08179 30
      vertex 107.401 8.08179 0
      vertex 108.213 8.24329 30
    endloop
  endfacet
  facet normal -0.195071 -0.980789 0
    outer loop
      vertex 109.025 8.08179 0
      vertex 109.025 8.08179 30
      vertex 108.213 8.24329 0
    endloop
  endfacet
  facet normal -0.195071 -0.980789 -0
    outer loop
      vertex 108.213 8.24329 30
      vertex 108.213 8.24329 0
      vertex 109.025 8.08179 30
    endloop
  endfacet
  facet normal -0.555732 -0.831362 0
    outer loop
      vertex 109.713 7.62189 0
      vertex 109.713 7.62189 30
      vertex 109.025 8.08179 0
    endloop
  endfacet
  facet normal -0.555732 -0.831362 -0
    outer loop
      vertex 109.025 8.08179 30
      vertex 109.025 8.08179 0
      vertex 109.713 7.62189 30
    endloop
  endfacet
  facet normal -0.831455 -0.555592 0
    outer loop
      vertex 110.173 6.93349 0
      vertex 110.173 6.93349 30
      vertex 109.713 7.62189 0
    endloop
  endfacet
  facet normal -0.831455 -0.555592 -0
    outer loop
      vertex 109.713 7.62189 30
      vertex 109.713 7.62189 0
      vertex 110.173 6.93349 30
    endloop
  endfacet
  facet normal -0.9809 -0.194515 0
    outer loop
      vertex 110.334 6.1216 0
      vertex 110.334 6.1216 30
      vertex 110.173 6.93349 0
    endloop
  endfacet
  facet normal -0.9809 -0.194515 -0
    outer loop
      vertex 110.173 6.93349 30
      vertex 110.173 6.93349 0
      vertex 110.334 6.1216 30
    endloop
  endfacet
  facet normal -0.9809 0.19451 0
    outer loop
      vertex 110.173 5.30969 0
      vertex 110.173 5.30969 30
      vertex 110.334 6.1216 0
    endloop
  endfacet
  facet normal -0.9809 0.19451 0
    outer loop
      vertex 110.334 6.1216 30
      vertex 110.334 6.1216 0
      vertex 110.173 5.30969 30
    endloop
  endfacet
  facet normal -0.831414 0.555653 0
    outer loop
      vertex 109.713 4.6214 0
      vertex 109.713 4.6214 30
      vertex 110.173 5.30969 0
    endloop
  endfacet
  facet normal -0.831414 0.555653 0
    outer loop
      vertex 110.173 5.30969 30
      vertex 110.173 5.30969 0
      vertex 109.713 4.6214 30
    endloop
  endfacet
  facet normal -0.555732 0.831362 0
    outer loop
      vertex 109.025 4.1615 0
      vertex 109.025 4.1615 30
      vertex 109.713 4.6214 0
    endloop
  endfacet
  facet normal -0.555732 0.831362 0
    outer loop
      vertex 109.713 4.6214 30
      vertex 109.713 4.6214 0
      vertex 109.025 4.1615 30
    endloop
  endfacet
  facet normal -0.195071 0.980789 0
    outer loop
      vertex 108.213 4 0
      vertex 108.213 4 30
      vertex 109.025 4.1615 0
    endloop
  endfacet
  facet normal -0.195071 0.980789 0
    outer loop
      vertex 109.025 4.1615 30
      vertex 109.025 4.1615 0
      vertex 108.213 4 30
    endloop
  endfacet
  facet normal 0.195071 0.980789 -0
    outer loop
      vertex 107.401 4.1615 0
      vertex 107.401 4.1615 30
      vertex 108.213 4 0
    endloop
  endfacet
  facet normal 0.195071 0.980789 0
    outer loop
      vertex 108.213 4 30
      vertex 108.213 4 0
      vertex 107.401 4.1615 30
    endloop
  endfacet
endsolid OpenSCAD_Model
