<svg width="122" height="96" viewBox="-6 -5 122 96" xmlns="http://www.w3.org/2000/svg"><path d="M 5.0000 78.0000 L 97.0000 78.0000 A 5.0000 5.0000 0 0 0 102.0000 73.0000 L 102.0000 5.0000 A 5.0000 5.0000 0 0 0 97.0000 0.0000 L 5.0000 0.0000 A 5.0000 5.0000 0 0 0 0.0000 5.0000 L 0.0000 73.0000 A 5.0000 5.0000 0 0 0 5.0000 78.0000 Z" stroke="green" stroke-width="1" fill="none" /><path d="M 12.0000 68.0000 L 18.0000 68.0000 A 2.0000 2.0000 0 0 0 20.0000 66.0000 L 20.0000 60.0000 A 2.0000 2.0000 0 0 0 18.0000 58.0000 L 12.0000 58.0000 A 2.0000 2.0000 0 0 0 10.0000 60.0000 L 10.0000 66.0000 A 2.0000 2.0000 0 0 0 12.0000 68.0000 Z" stroke="green" stroke-width="1" fill="none" /><path d="M 12.0000 56.0000 L 18.0000 56.0000 A 2.0000 2.0000 0 0 0 20.0000 54.0000 L 20.0000 48.0000 A 2.0000 2.0000 0 0 0 18.0000 46.0000 L 12.0000 46.0000 A 2.0000 2.0000 0 0 0 10.0000 48.0000 L 10.0000 54.0000 A 2.0000 2.0000 0 0 0 12.0000 56.0000 Z" stroke="green" stroke-width="1" fill="none" /><path d="M 12.0000 44.0000 L 18.0000 44.0000 A 2.0000 2.0000 0 0 0 20.0000 42.0000 L 20.0000 36.0000 A 2.0000 2.0000 0 0 0 18.0000 34.0000 L 12.0000 34.0000 A 2.0000 2.0000 0 0 0 10.0000 36.0000 L 10.0000 42.0000 A 2.0000 2.0000 0 0 0 12.0000 44.0000 Z" stroke="green" stroke-width="1" fill="none" /><path d="M 12.0000 32.0000 L 18.0000 32.0000 A 2.0000 2.0000 0 0 0 20.0000 30.0000 L 20.0000 24.0000 A 2.0000 2.0000 0 0 0 18.0000 22.0000 L 12.0000 22.0000 A 2.0000 2.0000 0 0 0 10.0000 24.0000 L 10.0000 30.0000 A 2.0000 2.0000 0 0 0 12.0000 32.0000 Z" stroke="green" stroke-width="1" fill="none" /><path d="M 12.0000 20.0000 L 18.0000 20.0000 A 2.0000 2.0000 0 0 0 20.0000 18.0000 L 20.0000 12.0000 A 2.0000 2.0000 0 0 0 18.0000 10.0000 L 12.0000 10.0000 A 2.0000 2.0000 0 0 0 10.0000 12.0000 L 10.0000 18.0000 A 2.0000 2.0000 0 0 0 12.0000 20.0000 Z" stroke="green" stroke-width="1" fill="none" /><path d="M 24.0000 68.0000 L 30.0000 68.0000 A 2.0000 2.0000 0 0 0 32.0000 66.0000 L 32.0000 60.0000 A 2.0000 2.0000 0 0 0 30.0000 58.0000 L 24.0000 58.0000 A 2.0000 2.0000 0 0 0 22.0000 60.0000 L 22.0000 66.0000 A 2.0000 2.0000 0 0 0 24.0000 68.0000 Z" stroke="green" stroke-width="1" fill="none" /><path d="M 24.0000 56.0000 L 30.0000 56.0000 A 2.0000 2.0000 0 0 0 32.0000 54.0000 L 32.0000 48.0000 A 2.0000 2.0000 0 0 0 30.0000 46.0000 L 24.0000 46.0000 A 2.0000 2.0000 0 0 0 22.0000 48.0000 L 22.0000 54.0000 A 2.0000 2.0000 0 0 0 24.0000 56.0000 Z" stroke="green" stroke-width="1" fill="none" /><path d="M 24.0000 44.0000 L 30.0000 44.0000 A 2.0000 2.0000 0 0 0 32.0000 42.0000 L 32.0000 36.0000 A 2.0000 2.0000 0 0 0 30.0000 34.0000 L 24.0000 34.0000 A 2.0000 2.0000 0 0 0 22.0000 36.0000 L 22.0000 42.0000 A 2.0000 2.0000 0 0 0 24.0000 44.0000 Z" stroke="green" stroke-width="1" fill="none" /><path d="M 24.0000 32.0000 L 30.0000 32.0000 A 2.0000 2.0000 0 0 0 32.0000 30.0000 L 32.0000 24.0000 A 2.0000 2.0000 0 0 0 30.0000 22.0000 L 24.0000 22.0000 A 2.0000 2.0000 0 0 0 22.0000 24.0000 L 22.0000 30.0000 A 2.0000 2.0000 0 0 0 24.0000 32.0000 Z" stroke="green" stroke-width="1" fill="none" /><path d="M 24.0000 20.0000 L 30.0000 20.0000 A 2.0000 2.0000 0 0 0 32.0000 18.0000 L 32.0000 12.0000 A 2.0000 2.0000 0 0 0 30.0000 10.0000 L 24.0000 10.0000 A 2.0000 2.0000 0 0 0 22.0000 12.0000 L 22.0000 18.0000 A 2.0000 2.0000 0 0 0 24.0000 20.0000 Z" stroke="green" stroke-width="1" fill="none" /><path d="M 36.0000 68.0000 L 42.0000 68.0000 A 2.0000 2.0000 0 0 0 44.0000 66.0000 L 44.0000 60.0000 A 2.0000 2.0000 0 0 0 42.0000 58.0000 L 36.0000 58.0000 A 2.0000 2.0000 0 0 0 34.0000 60.0000 L 34.0000 66.0000 A 2.0000 2.0000 0 0 0 36.0000 68.0000 Z" stroke="green" stroke-width="1" fill="none" /><path d="M 36.0000 56.0000 L 42.0000 56.0000 A 2.0000 2.0000 0 0 0 44.0000 54.0000 L 44.0000 48.0000 A 2.0000 2.0000 0 0 0 42.0000 46.0000 L 36.0000 46.0000 A 2.0000 2.0000 0 0 0 34.0000 48.0000 L 34.0000 54.0000 A 2.0000 2.0000 0 0 0 36.0000 56.0000 Z" stroke="green" stroke-width="1" fill="none" /><path d="M 36.0000 44.0000 L 42.0000 44.0000 A 2.0000 2.0000 0 0 0 44.0000 42.0000 L 44.0000 36.0000 A 2.0000 2.0000 0 0 0 42.0000 34.0000 L 36.0000 34.0000 A 2.0000 2.0000 0 0 0 34.0000 36.0000 L 34.0000 42.0000 A 2.0000 2.0000 0 0 0 36.0000 44.0000 Z" stroke="green" stroke-width="1" fill="none" /><path d="M 36.0000 32.0000 L 42.0000 32.0000 A 2.0000 2.0000 0 0 0 44.0000 30.0000 L 44.0000 24.0000 A 2.0000 2.0000 0 0 0 42.0000 22.0000 L 36.0000 22.0000 A 2.0000 2.0000 0 0 0 34.0000 24.0000 L 34.0000 30.0000 A 2.0000 2.0000 0 0 0 36.0000 32.0000 Z" stroke="green" stroke-width="1" fill="none" /><path d="M 36.0000 20.0000 L 42.0000 20.0000 A 2.0000 2.0000 0 0 0 44.0000 18.0000 L 44.0000 12.0000 A 2.0000 2.0000 0 0 0 42.0000 10.0000 L 36.0000 10.0000 A 2.0000 2.0000 0 0 0 34.0000 12.0000 L 34.0000 18.0000 A 2.0000 2.0000 0 0 0 36.0000 20.0000 Z" stroke="green" stroke-width="1" fill="none" /><path d="M 48.0000 68.0000 L 54.0000 68.0000 A 2.0000 2.0000 0 0 0 56.0000 66.0000 L 56.0000 60.0000 A 2.0000 2.0000 0 0 0 54.0000 58.0000 L 48.0000 58.0000 A 2.0000 2.0000 0 0 0 46.0000 60.0000 L 46.0000 66.0000 A 2.0000 2.0000 0 0 0 48.0000 68.0000 Z" stroke="green" stroke-width="1" fill="none" /><path d="M 48.0000 56.0000 L 54.0000 56.0000 A 2.0000 2.0000 0 0 0 56.0000 54.0000 L 56.0000 48.0000 A 2.0000 2.0000 0 0 0 54.0000 46.0000 L 48.0000 46.0000 A 2.0000 2.0000 0 0 0 46.0000 48.0000 L 46.0000 54.0000 A 2.0000 2.0000 0 0 0 48.0000 56.0000 Z" stroke="green" stroke-width="1" fill="none" /><path d="M 48.0000 44.0000 L 54.0000 44.0000 A 2.0000 2.0000 0 0 0 56.0000 42.0000 L 56.0000 36.0000 A 2.0000 2.0000 0 0 0 54.0000 34.0000 L 48.0000 34.0000 A 2.0000 2.0000 0 0 0 46.0000 36.0000 L 46.0000 42.0000 A 2.0000 2.0000 0 0 0 48.0000 44.0000 Z" stroke="green" stroke-width="1" fill="none" /><path d="M 48.0000 32.0000 L 54.0000 32.0000 A 2.0000 2.0000 0 0 0 56.0000 30.0000 L 56.0000 24.0000 A 2.0000 2.0000 0 0 0 54.0000 22.0000 L 48.0000 22.0000 A 2.0000 2.0000 0 0 0 46.0000 24.0000 L 46.0000 30.0000 A 2.0000 2.0000 0 0 0 48.0000 32.0000 Z" stroke="green" stroke-width="1" fill="none" /><path d="M 48.0000 20.0000 L 54.0000 20.0000 A 2.0000 2.0000 0 0 0 56.0000 18.0000 L 56.0000 12.0000 A 2.0000 2.0000 0 0 0 54.0000 10.0000 L 48.0000 10.0000 A 2.0000 2.0000 0 0 0 46.0000 12.0000 L 46.0000 18.0000 A 2.0000 2.0000 0 0 0 48.0000 20.0000 Z" stroke="green" stroke-width="1" fill="none" /><path d="M 60.0000 68.0000 L 66.0000 68.0000 A 2.0000 2.0000 0 0 0 68.0000 66.0000 L 68.0000 60.0000 A 2.0000 2.0000 0 0 0 66.0000 58.0000 L 60.0000 58.0000 A 2.0000 2.0000 0 0 0 58.0000 60.0000 L 58.0000 66.0000 A 2.0000 2.0000 0 0 0 60.0000 68.0000 Z" stroke="green" stroke-width="1" fill="none" /><path d="M 60.0000 56.0000 L 66.0000 56.0000 A 2.0000 2.0000 0 0 0 68.0000 54.0000 L 68.0000 48.0000 A 2.0000 2.0000 0 0 0 66.0000 46.0000 L 60.0000 46.0000 A 2.0000 2.0000 0 0 0 58.0000 48.0000 L 58.0000 54.0000 A 2.0000 2.0000 0 0 0 60.0000 56.0000 Z" stroke="green" stroke-width="1" fill="none" /><path d="M 60.0000 44.0000 L 66.0000 44.0000 A 2.0000 2.0000 0 0 0 68.0000 42.0000 L 68.0000 36.0000 A 2.0000 2.0000 0 0 0 66.0000 34.0000 L 60.0000 34.0000 A 2.0000 2.0000 0 0 0 58.0000 36.0000 L 58.0000 42.0000 A 2.0000 2.0000 0 0 0 60.0000 44.0000 Z" stroke="green" stroke-width="1" fill="none" /><path d="M 60.0000 32.0000 L 66.0000 32.0000 A 2.0000 2.0000 0 0 0 68.0000 30.0000 L 68.0000 24.0000 A 2.0000 2.0000 0 0 0 66.0000 22.0000 L 60.0000 22.0000 A 2.0000 2.0000 0 0 0 58.0000 24.0000 L 58.0000 30.0000 A 2.0000 2.0000 0 0 0 60.0000 32.0000 Z" stroke="green" stroke-width="1" fill="none" /><path d="M 60.0000 20.0000 L 66.0000 20.0000 A 2.0000 2.0000 0 0 0 68.0000 18.0000 L 68.0000 12.0000 A 2.0000 2.0000 0 0 0 66.0000 10.0000 L 60.0000 10.0000 A 2.0000 2.0000 0 0 0 58.0000 12.0000 L 58.0000 18.0000 A 2.0000 2.0000 0 0 0 60.0000 20.0000 Z" stroke="green" stroke-width="1" fill="none" /><path d="M 72.0000 68.0000 L 78.0000 68.0000 A 2.0000 2.0000 0 0 0 80.0000 66.0000 L 80.0000 60.0000 A 2.0000 2.0000 0 0 0 78.0000 58.0000 L 72.0000 58.0000 A 2.0000 2.0000 0 0 0 70.0000 60.0000 L 70.0000 66.0000 A 2.0000 2.0000 0 0 0 72.0000 68.0000 Z" stroke="green" stroke-width="1" fill="none" /><path d="M 72.0000 56.0000 L 78.0000 56.0000 A 2.0000 2.0000 0 0 0 80.0000 54.0000 L 80.0000 48.0000 A 2.0000 2.0000 0 0 0 78.0000 46.0000 L 72.0000 46.0000 A 2.0000 2.0000 0 0 0 70.0000 48.0000 L 70.0000 54.0000 A 2.0000 2.0000 0 0 0 72.0000 56.0000 Z" stroke="green" stroke-width="1" fill="none" /><path d="M 72.0000 44.0000 L 78.0000 44.0000 A 2.0000 2.0000 0 0 0 80.0000 42.0000 L 80.0000 36.0000 A 2.0000 2.0000 0 0 0 78.0000 34.0000 L 72.0000 34.0000 A 2.0000 2.0000 0 0 0 70.0000 36.0000 L 70.0000 42.0000 A 2.0000 2.0000 0 0 0 72.0000 44.0000 Z" stroke="green" stroke-width="1" fill="none" /><path d="M 72.0000 32.0000 L 78.0000 32.0000 A 2.0000 2.0000 0 0 0 80.0000 30.0000 L 80.0000 24.0000 A 2.0000 2.0000 0 0 0 78.0000 22.0000 L 72.0000 22.0000 A 2.0000 2.0000 0 0 0 70.0000 24.0000 L 70.0000 30.0000 A 2.0000 2.0000 0 0 0 72.0000 32.0000 Z" stroke="green" stroke-width="1" fill="none" /><path d="M 72.0000 20.0000 L 78.0000 20.0000 A 2.0000 2.0000 0 0 0 80.0000 18.0000 L 80.0000 12.0000 A 2.0000 2.0000 0 0 0 78.0000 10.0000 L 72.0000 10.0000 A 2.0000 2.0000 0 0 0 70.0000 12.0000 L 70.0000 18.0000 A 2.0000 2.0000 0 0 0 72.0000 20.0000 Z" stroke="green" stroke-width="1" fill="none" /><path d="M 84.0000 68.0000 L 90.0000 68.0000 A 2.0000 2.0000 0 0 0 92.0000 66.0000 L 92.0000 60.0000 A 2.0000 2.0000 0 0 0 90.0000 58.0000 L 84.0000 58.0000 A 2.0000 2.0000 0 0 0 82.0000 60.0000 L 82.0000 66.0000 A 2.0000 2.0000 0 0 0 84.0000 68.0000 Z" stroke="green" stroke-width="1" fill="none" /><path d="M 84.0000 56.0000 L 90.0000 56.0000 A 2.0000 2.0000 0 0 0 92.0000 54.0000 L 92.0000 48.0000 A 2.0000 2.0000 0 0 0 90.0000 46.0000 L 84.0000 46.0000 A 2.0000 2.0000 0 0 0 82.0000 48.0000 L 82.0000 54.0000 A 2.0000 2.0000 0 0 0 84.0000 56.0000 Z" stroke="green" stroke-width="1" fill="none" /><path d="M 84.0000 44.0000 L 90.0000 44.0000 A 2.0000 2.0000 0 0 0 92.0000 42.0000 L 92.0000 36.0000 A 2.0000 2.0000 0 0 0 90.0000 34.0000 L 84.0000 34.0000 A 2.0000 2.0000 0 0 0 82.0000 36.0000 L 82.0000 42.0000 A 2.0000 2.0000 0 0 0 84.0000 44.0000 Z" stroke="green" stroke-width="1" fill="none" /><path d="M 84.0000 32.0000 L 90.0000 32.0000 A 2.0000 2.0000 0 0 0 92.0000 30.0000 L 92.0000 24.0000 A 2.0000 2.0000 0 0 0 90.0000 22.0000 L 84.0000 22.0000 A 2.0000 2.0000 0 0 0 82.0000 24.0000 L 82.0000 30.0000 A 2.0000 2.0000 0 0 0 84.0000 32.0000 Z" stroke="green" stroke-width="1" fill="none" /><path d="M 84.0000 20.0000 L 90.0000 20.0000 A 2.0000 2.0000 0 0 0 92.0000 18.0000 L 92.0000 12.0000 A 2.0000 2.0000 0 0 0 90.0000 10.0000 L 84.0000 10.0000 A 2.0000 2.0000 0 0 0 82.0000 12.0000 L 82.0000 18.0000 A 2.0000 2.0000 0 0 0 84.0000 20.0000 Z" stroke="green" stroke-width="1" fill="none" /></svg>