0
SECTION
2
ENTITIES
0
LINE
8
PARAMETRIX
10
5.0000
20
0.0000
11
97.0000
21
0.0000
0
ARC
8
PARAMETRIX
10
97.0000
20
5.0000
40
5.0000
50
270.0000
51
0.0000
0
LINE
8
PARAMETRIX
10
102.0000
20
5.0000
11
102.0000
21
73.0000
0
ARC
8
PARAMETRIX
10
97.0000
20
73.0000
40
5.0000
50
0.0000
51
90.0000
0
LINE
8
PARAMETRIX
10
97.0000
20
78.0000
11
5.0000
21
78.0000
0
ARC
8
PARAMETRIX
10
5.0000
20
73.0000
40
5.0000
50
90.0000
51
180.0000
0
LINE
8
PARAMETRIX
10
0.0000
20
73.0000
11
0.0000
21
5.0000
0
ARC
8
PARAMETRIX
10
5.0000
20
5.0000
40
5.0000
50
180.0000
51
270.0000
0
LINE
8
PARAMETRIX
10
12.0000
20
10.0000
11
18.0000
21
10.0000
0
ARC
8
PARAMETRIX
10
18.0000
20
12.0000
40
2.0000
50
270.0000
51
0.0000
0
LINE
8
PARAMETRIX
10
20.0000
20
12.0000
11
20.0000
21
18.0000
0
ARC
8
PARAMETRIX
10
18.0000
20
18.0000
40
2.0000
50
0.0000
51
90.0000
0
LINE
8
PARAMETRIX
10
18.0000
20
20.0000
11
12.0000
21
20.0000
0
ARC
8
PARAMETRIX
10
12.0000
20
18.0000
40
2.0000
50
90.0000
51
180.0000
0
LINE
8
PARAMETRIX
10
10.0000
20
18.0000
11
10.0000
21
12.0000
0
ARC
8
PARAMETRIX
10
12.0000
20
12.0000
40
2.0000
50
180.0000
51
270.0000
0
LINE
8
PARAMETRIX
10
12.0000
20
22.0000
11
18.0000
21
22.0000
0
ARC
8
PARAMETRIX
10
18.0000
20
24.0000
40
2.0000
50
270.0000
51
0.0000
0
LINE
8
PARAMETRIX
10
20.0000
20
24.0000
11
20.0000
21
30.0000
0
ARC
8
PARAMETRIX
10
18.0000
20
30.0000
40
2.0000
50
0.0000
51
90.0000
0
LINE
8
PARAMETRIX
10
18.0000
20
32.0000
11
12.0000
21
32.0000
0
ARC
8
PARAMETRIX
10
12.0000
20
30.0000
40
2.0000
50
90.0000
51
180.0000
0
LINE
8
PARAMETRIX
10
10.0000
20
30.0000
11
10.0000
21
24.0000
0
ARC
8
PARAMETRIX
10
12.0000
20
24.0000
40
2.0000
50
180.0000
51
270.0000
0
LINE
8
PARAMETRIX
10
12.0000
20
34.0000
11
18.0000
21
34.0000
0
ARC
8
PARAMETRIX
10
18.0000
20
36.0000
40
2.0000
50
270.0000
51
0.0000
0
LINE
8
PARAMETRIX
10
20.0000
20
36.0000
11
20.0000
21
42.0000
0
ARC
8
PARAMETRIX
10
18.0000
20
42.0000
40
2.0000
50
0.0000
51
90.0000
0
LINE
8
PARAMETRIX
10
18.0000
20
44.0000
11
12.0000
21
44.0000
0
ARC
8
PARAMETRIX
10
12.0000
20
42.0000
40
2.0000
50
90.0000
51
180.0000
0
LINE
8
PARAMETRIX
10
10.0000
20
42.0000
11
10.0000
21
36.0000
0
ARC
8
PARAMETRIX
10
12.0000
20
36.0000
40
2.0000
50
180.0000
51
270.0000
0
LINE
8
PARAMETRIX
10
12.0000
20
46.0000
11
18.0000
21
46.0000
0
ARC
8
PARAMETRIX
10
18.0000
20
48.0000
40
2.0000
50
270.0000
51
0.0000
0
LINE
8
PARAMETRIX
10
20.0000
20
48.0000
11
20.0000
21
54.0000
0
ARC
8
PARAMETRIX
10
18.0000
20
54.0000
40
2.0000
50
0.0000
51
90.0000
0
LINE
8
PARAMETRIX
10
18.0000
20
56.0000
11
12.0000
21
56.0000
0
ARC
8
PARAMETRIX
10
12.0000
20
54.0000
40
2.0000
50
90.0000
51
180.0000
0
LINE
8
PARAMETRIX
10
10.0000
20
54.0000
11
10.0000
21
48.0000
0
ARC
8
PARAMETRIX
10
12.0000
20
48.0000
40
2.0000
50
180.0000
51
270.0000
0
LINE
8
PARAMETRIX
10
12.0000
20
58.0000
11
18.0000
21
58.0000
0
ARC
8
PARAMETRIX
10
18.0000
20
60.0000
40
2.0000
50
270.0000
51
0.0000
0
LINE
8
PARAMETRIX
10
20.0000
20
60.0000
11
20.0000
21
66.0000
0
ARC
8
PARAMETRIX
10
18.0000
20
66.0000
40
2.0000
50
0.0000
51
90.0000
0
LINE
8
PARAMETRIX
10
18.0000
20
68.0000
11
12.0000
21
68.0000
0
ARC
8
PARAMETRIX
10
12.0000
20
66.0000
40
2.0000
50
90.0000
51
180.0000
0
LINE
8
PARAMETRIX
10
10.0000
20
66.0000
11
10.0000
21
60.0000
0
ARC
8
PARAMETRIX
10
12.0000
20
60.0000
40
2.0000
50
180.0000
51
270.0000
0
LINE
8
PARAMETRIX
10
24.0000
20
10.0000
11
30.0000
21
10.0000
0
ARC
8
PARAMETRIX
10
30.0000
20
12.0000
40
2.0000
50
270.0000
51
0.0000
0
LINE
8
PARAMETRIX
10
32.0000
20
12.0000
11
32.0000
21
18.0000
0
ARC
8
PARAMETRIX
10
30.0000
20
18.0000
40
2.0000
50
0.0000
51
90.0000
0
LINE
8
PARAMETRIX
10
30.0000
20
20.0000
11
24.0000
21
20.0000
0
ARC
8
PARAMETRIX
10
24.0000
20
18.0000
40
2.0000
50
90.0000
51
180.0000
0
LINE
8
PARAMETRIX
10
22.0000
20
18.0000
11
22.0000
21
12.0000
0
ARC
8
PARAMETRIX
10
24.0000
20
12.0000
40
2.0000
50
180.0000
51
270.0000
0
LINE
8
PARAMETRIX
10
24.0000
20
22.0000
11
30.0000
21
22.0000
0
ARC
8
PARAMETRIX
10
30.0000
20
24.0000
40
2.0000
50
270.0000
51
0.0000
0
LINE
8
PARAMETRIX
10
32.0000
20
24.0000
11
32.0000
21
30.0000
0
ARC
8
PARAMETRIX
10
30.0000
20
30.0000
40
2.0000
50
0.0000
51
90.0000
0
LINE
8
PARAMETRIX
10
30.0000
20
32.0000
11
24.0000
21
32.0000
0
ARC
8
PARAMETRIX
10
24.0000
20
30.0000
40
2.0000
50
90.0000
51
180.0000
0
LINE
8
PARAMETRIX
10
22.0000
20
30.0000
11
22.0000
21
24.0000
0
ARC
8
PARAMETRIX
10
24.0000
20
24.0000
40
2.0000
50
180.0000
51
270.0000
0
LINE
8
PARAMETRIX
10
24.0000
20
34.0000
11
30.0000
21
34.0000
0
ARC
8
PARAMETRIX
10
30.0000
20
36.0000
40
2.0000
50
270.0000
51
0.0000
0
LINE
8
PARAMETRIX
10
32.0000
20
36.0000
11
32.0000
21
42.0000
0
ARC
8
PARAMETRIX
10
30.0000
20
42.0000
40
2.0000
50
0.0000
51
90.0000
0
LINE
8
PARAMETRIX
10
30.0000
20
44.0000
11
24.0000
21
44.0000
0
ARC
8
PARAMETRIX
10
24.0000
20
42.0000
40
2.0000
50
90.0000
51
180.0000
0
LINE
8
PARAMETRIX
10
22.0000
20
42.0000
11
22.0000
21
36.0000
0
ARC
8
PARAMETRIX
10
24.0000
20
36.0000
40
2.0000
50
180.0000
51
270.0000
0
LINE
8
PARAMETRIX
10
24.0000
20
46.0000
11
30.0000
21
46.0000
0
ARC
8
PARAMETRIX
10
30.0000
20
48.0000
40
2.0000
50
270.0000
51
0.0000
0
LINE
8
PARAMETRIX
10
32.0000
20
48.0000
11
32.0000
21
54.0000
0
ARC
8
PARAMETRIX
10
30.0000
20
54.0000
40
2.0000
50
0.0000
51
90.0000
0
LINE
8
PARAMETRIX
10
30.0000
20
56.0000
11
24.0000
21
56.0000
0
ARC
8
PARAMETRIX
10
24.0000
20
54.0000
40
2.0000
50
90.0000
51
180.0000
0
LINE
8
PARAMETRIX
10
22.0000
20
54.0000
11
22.0000
21
48.0000
0
ARC
8
PARAMETRIX
10
24.0000
20
48.0000
40
2.0000
50
180.0000
51
270.0000
0
LINE
8
PARAMETRIX
10
24.0000
20
58.0000
11
30.0000
21
58.0000
0
ARC
8
PARAMETRIX
10
30.0000
20
60.0000
40
2.0000
50
270.0000
51
0.0000
0
LINE
8
PARAMETRIX
10
32.0000
20
60.0000
11
32.0000
21
66.0000
0
ARC
8
PARAMETRIX
10
30.0000
20
66.0000
40
2.0000
50
0.0000
51
90.0000
0
LINE
8
PARAMETRIX
10
30.0000
20
68.0000
11
24.0000
21
68.0000
0
ARC
8
PARAMETRIX
10
24.0000
20
66.0000
40
2.0000
50
90.0000
51
180.0000
0
LINE
8
PARAMETRIX
10
22.0000
20
66.0000
11
22.0000
21
60.0000
0
ARC
8
PARAMETRIX
10
24.0000
20
60.0000
40
2.0000
50
180.0000
51
270.0000
0
LINE
8
PARAMETRIX
10
36.0000
20
10.0000
11
42.0000
21
10.0000
0
ARC
8
PARAMETRIX
10
42.0000
20
12.0000
40
2.0000
50
270.0000
51
0.0000
0
LINE
8
PARAMETRIX
10
44.0000
20
12.0000
11
44.0000
21
18.0000
0
ARC
8
PARAMETRIX
10
42.0000
20
18.0000
40
2.0000
50
0.0000
51
90.0000
0
LINE
8
PARAMETRIX
10
42.0000
20
20.0000
11
36.0000
21
20.0000
0
ARC
8
PARAMETRIX
10
36.0000
20
18.0000
40
2.0000
50
90.0000
51
180.0000
0
LINE
8
PARAMETRIX
10
34.0000
20
18.0000
11
34.0000
21
12.0000
0
ARC
8
PARAMETRIX
10
36.0000
20
12.0000
40
2.0000
50
180.0000
51
270.0000
0
LINE
8
PARAMETRIX
10
36.0000
20
22.0000
11
42.0000
21
22.0000
0
ARC
8
PARAMETRIX
10
42.0000
20
24.0000
40
2.0000
50
270.0000
51
0.0000
0
LINE
8
PARAMETRIX
10
44.0000
20
24.0000
11
44.0000
21
30.0000
0
ARC
8
PARAMETRIX
10
42.0000
20
30.0000
40
2.0000
50
0.0000
51
90.0000
0
LINE
8
PARAMETRIX
10
42.0000
20
32.0000
11
36.0000
21
32.0000
0
ARC
8
PARAMETRIX
10
36.0000
20
30.0000
40
2.0000
50
90.0000
51
180.0000
0
LINE
8
PARAMETRIX
10
34.0000
20
30.0000
11
34.0000
21
24.0000
0
ARC
8
PARAMETRIX
10
36.0000
20
24.0000
40
2.0000
50
180.0000
51
270.0000
0
LINE
8
PARAMETRIX
10
36.0000
20
34.0000
11
42.0000
21
34.0000
0
ARC
8
PARAMETRIX
10
42.0000
20
36.0000
40
2.0000
50
270.0000
51
0.0000
0
LINE
8
PARAMETRIX
10
44.0000
20
36.0000
11
44.0000
21
42.0000
0
ARC
8
PARAMETRIX
10
42.0000
20
42.0000
40
2.0000
50
0.0000
51
90.0000
0
LINE
8
PARAMETRIX
10
42.0000
20
44.0000
11
36.0000
21
44.0000
0
ARC
8
PARAMETRIX
10
36.0000
20
42.0000
40
2.0000
50
90.0000
51
180.0000
0
LINE
8
PARAMETRIX
10
34.0000
20
42.0000
11
34.0000
21
36.0000
0
ARC
8
PARAMETRIX
10
36.0000
20
36.0000
40
2.0000
50
180.0000
51
270.0000
0
LINE
8
PARAMETRIX
10
36.0000
20
46.0000
11
42.0000
21
46.0000
0
ARC
8
PARAMETRIX
10
42.0000
20
48.0000
40
2.0000
50
270.0000
51
0.0000
0
LINE
8
PARAMETRIX
10
44.0000
20
48.0000
11
44.0000
21
54.0000
0
ARC
8
PARAMETRIX
10
42.0000
20
54.0000
40
2.0000
50
0.0000
51
90.0000
0
LINE
8
PARAMETRIX
10
42.0000
20
56.0000
11
36.0000
21
56.0000
0
ARC
8
PARAMETRIX
10
36.0000
20
54.0000
40
2.0000
50
90.0000
51
180.0000
0
LINE
8
PARAMETRIX
10
34.0000
20
54.0000
11
34.0000
21
48.0000
0
ARC
8
PARAMETRIX
10
36.0000
20
48.0000
40
2.0000
50
180.0000
51
270.0000
0
LINE
8
PARAMETRIX
10
36.0000
20
58.0000
11
42.0000
21
58.0000
0
ARC
8
PARAMETRIX
10
42.0000
20
60.0000
40
2.0000
50
270.0000
51
0.0000
0
LINE
8
PARAMETRIX
10
44.0000
20
60.0000
11
44.0000
21
66.0000
0
ARC
8
PARAMETRIX
10
42.0000
20
66.0000
40
2.0000
50
0.0000
51
90.0000
0
LINE
8
PARAMETRIX
10
42.0000
20
68.0000
11
36.0000
21
68.0000
0
ARC
8
PARAMETRIX
10
36.0000
20
66.0000
40
2.0000
50
90.0000
51
180.0000
0
LINE
8
PARAMETRIX
10
34.0000
20
66.0000
11
34.0000
21
60.0000
0
ARC
8
PARAMETRIX
10
36.0000
20
60.0000
40
2.0000
50
180.0000
51
270.0000
0
LINE
8
PARAMETRIX
10
48.0000
20
10.0000
11
54.0000
21
10.0000
0
ARC
8
PARAMETRIX
10
54.0000
20
12.0000
40
2.0000
50
270.0000
51
0.0000
0
LINE
8
PARAMETRIX
10
56.0000
20
12.0000
11
56.0000
21
18.0000
0
ARC
8
PARAMETRIX
10
54.0000
20
18.0000
40
2.0000
50
0.0000
51
90.0000
0
LINE
8
PARAMETRIX
10
54.0000
20
20.0000
11
48.0000
21
20.0000
0
ARC
8
PARAMETRIX
10
48.0000
20
18.0000
40
2.0000
50
90.0000
51
180.0000
0
LINE
8
PARAMETRIX
10
46.0000
20
18.0000
11
46.0000
21
12.0000
0
ARC
8
PARAMETRIX
10
48.0000
20
12.0000
40
2.0000
50
180.0000
51
270.0000
0
LINE
8
PARAMETRIX
10
48.0000
20
22.0000
11
54.0000
21
22.0000
0
ARC
8
PARAMETRIX
10
54.0000
20
24.0000
40
2.0000
50
270.0000
51
0.0000
0
LINE
8
PARAMETRIX
10
56.0000
20
24.0000
11
56.0000
21
30.0000
0
ARC
8
PARAMETRIX
10
54.0000
20
30.0000
40
2.0000
50
0.0000
51
90.0000
0
LINE
8
PARAMETRIX
10
54.0000
20
32.0000
11
48.0000
21
32.0000
0
ARC
8
PARAMETRIX
10
48.0000
20
30.0000
40
2.0000
50
90.0000
51
180.0000
0
LINE
8
PARAMETRIX
10
46.0000
20
30.0000
11
46.0000
21
24.0000
0
ARC
8
PARAMETRIX
10
48.0000
20
24.0000
40
2.0000
50
180.0000
51
270.0000
0
LINE
8
PARAMETRIX
10
48.0000
20
34.0000
11
54.0000
21
34.0000
0
ARC
8
PARAMETRIX
10
54.0000
20
36.0000
40
2.0000
50
270.0000
51
0.0000
0
LINE
8
PARAMETRIX
10
56.0000
20
36.0000
11
56.0000
21
42.0000
0
ARC
8
PARAMETRIX
10
54.0000
20
42.0000
40
2.0000
50
0.0000
51
90.0000
0
LINE
8
PARAMETRIX
10
54.0000
20
44.0000
11
48.0000
21
44.0000
0
ARC
8
PARAMETRIX
10
48.0000
20
42.0000
40
2.0000
50
90.0000
51
180.0000
0
LINE
8
PARAMETRIX
10
46.0000
20
42.0000
11
46.0000
21
36.0000
0
ARC
8
PARAMETRIX
10
48.0000
20
36.0000
40
2.0000
50
180.0000
51
270.0000
0
LINE
8
PARAMETRIX
10
48.0000
20
46.0000
11
54.0000
21
46.0000
0
ARC
8
PARAMETRIX
10
54.0000
20
48.0000
40
2.0000
50
270.0000
51
0.0000
0
LINE
8
PARAMETRIX
10
56.0000
20
48.0000
11
56.0000
21
54.0000
0
ARC
8
PARAMETRIX
10
54.0000
20
54.0000
40
2.0000
50
0.0000
51
90.0000
0
LINE
8
PARAMETRIX
10
54.0000
20
56.0000
11
48.0000
21
56.0000
0
ARC
8
PARAMETRIX
10
48.0000
20
54.0000
40
2.0000
50
90.0000
51
180.0000
0
LINE
8
PARAMETRIX
10
46.0000
20
54.0000
11
46.0000
21
48.0000
0
ARC
8
PARAMETRIX
10
48.0000
20
48.0000
40
2.0000
50
180.0000
51
270.0000
0
LINE
8
PARAMETRIX
10
48.0000
20
58.0000
11
54.0000
21
58.0000
0
ARC
8
PARAMETRIX
10
54.0000
20
60.0000
40
2.0000
50
270.0000
51
0.0000
0
LINE
8
PARAMETRIX
10
56.0000
20
60.0000
11
56.0000
21
66.0000
0
ARC
8
PARAMETRIX
10
54.0000
20
66.0000
40
2.0000
50
0.0000
51
90.0000
0
LINE
8
PARAMETRIX
10
54.0000
20
68.0000
11
48.0000
21
68.0000
0
ARC
8
PARAMETRIX
10
48.0000
20
66.0000
40
2.0000
50
90.0000
51
180.0000
0
LINE
8
PARAMETRIX
10
46.0000
20
66.0000
11
46.0000
21
60.0000
0
ARC
8
PARAMETRIX
10
48.0000
20
60.0000
40
2.0000
50
180.0000
51
270.0000
0
LINE
8
PARAMETRIX
10
60.0000
20
10.0000
11
66.0000
21
10.0000
0
ARC
8
PARAMETRIX
10
66.0000
20
12.0000
40
2.0000
50
270.0000
51
0.0000
0
LINE
8
PARAMETRIX
10
68.0000
20
12.0000
11
68.0000
21
18.0000
0
ARC
8
PARAMETRIX
10
66.0000
20
18.0000
40
2.0000
50
0.0000
51
90.0000
0
LINE
8
PARAMETRIX
10
66.0000
20
20.0000
11
60.0000
21
20.0000
0
ARC
8
PARAMETRIX
10
60.0000
20
18.0000
40
2.0000
50
90.0000
51
180.0000
0
LINE
8
PARAMETRIX
10
58.0000
20
18.0000
11
58.0000
21
12.0000
0
ARC
8
PARAMETRIX
10
60.0000
20
12.0000
40
2.0000
50
180.0000
51
270.0000
0
LINE
8
PARAMETRIX
10
60.0000
20
22.0000
11
66.0000
21
22.0000
0
ARC
8
PARAMETRIX
10
66.0000
20
24.0000
40
2.0000
50
270.0000
51
0.0000
0
LINE
8
PARAMETRIX
10
68.0000
20
24.0000
11
68.0000
21
30.0000
0
ARC
8
PARAMETRIX
10
66.0000
20
30.0000
40
2.0000
50
0.0000
51
90.0000
0
LINE
8
PARAMETRIX
10
66.0000
20
32.0000
11
60.0000
21
32.0000
0
ARC
8
PARAMETRIX
10
60.0000
20
30.0000
40
2.0000
50
90.0000
51
180.0000
0
LINE
8
PARAMETRIX
10
58.0000
20
30.0000
11
58.0000
21
24.0000
0
ARC
8
PARAMETRIX
10
60.0000
20
24.0000
40
2.0000
50
180.0000
51
270.0000
0
LINE
8
PARAMETRIX
10
60.0000
20
34.0000
11
66.0000
21
34.0000
0
ARC
8
PARAMETRIX
10
66.0000
20
36.0000
40
2.0000
50
270.0000
51
0.0000
0
LINE
8
PARAMETRIX
10
68.0000
20
36.0000
11
68.0000
21
42.0000
0
ARC
8
PARAMETRIX
10
66.0000
20
42.0000
40
2.0000
50
0.0000
51
90.0000
0
LINE
8
PARAMETRIX
10
66.0000
20
44.0000
11
60.0000
21
44.0000
0
ARC
8
PARAMETRIX
10
60.0000
20
42.0000
40
2.0000
50
90.0000
51
180.0000
0
LINE
8
PARAMETRIX
10
58.0000
20
42.0000
11
58.0000
21
36.0000
0
ARC
8
PARAMETRIX
10
60.0000
20
36.0000
40
2.0000
50
180.0000
51
270.0000
0
LINE
8
PARAMETRIX
10
60.0000
20
46.0000
11
66.0000
21
46.0000
0
ARC
8
PARAMETRIX
10
66.0000
20
48.0000
40
2.0000
50
270.0000
51
0.0000
0
LINE
8
PARAMETRIX
10
68.0000
20
48.0000
11
68.0000
21
54.0000
0
ARC
8
PARAMETRIX
10
66.0000
20
54.0000
40
2.0000
50
0.0000
51
90.0000
0
LINE
8
PARAMETRIX
10
66.0000
20
56.0000
11
60.0000
21
56.0000
0
ARC
8
PARAMETRIX
10
60.0000
20
54.0000
40
2.0000
50
90.0000
51
180.0000
0
LINE
8
PARAMETRIX
10
58.0000
20
54.0000
11
58.0000
21
48.0000
0
ARC
8
PARAMETRIX
10
60.0000
20
48.0000
40
2.0000
50
180.0000
51
270.0000
0
LINE
8
PARAMETRIX
10
60.0000
20
58.0000
11
66.0000
21
58.0000
0
ARC
8
PARAMETRIX
10
66.0000
20
60.0000
40
2.0000
50
270.0000
51
0.0000
0
LINE
8
PARAMETRIX
10
68.0000
20
60.0000
11
68.0000
21
66.0000
0
ARC
8
PARAMETRIX
10
66.0000
20
66.0000
40
2.0000
50
0.0000
51
90.0000
0
LINE
8
PARAMETRIX
10
66.0000
20
68.0000
11
60.0000
21
68.0000
0
ARC
8
PARAMETRIX
10
60.0000
20
66.0000
40
2.0000
50
90.0000
51
180.0000
0
LINE
8
PARAMETRIX
10
58.0000
20
66.0000
11
58.0000
21
60.0000
0
ARC
8
PARAMETRIX
10
60.0000
20
60.0000
40
2.0000
50
180.0000
51
270.0000
0
LINE
8
PARAMETRIX
10
72.0000
20
10.0000
11
78.0000
21
10.0000
0
ARC
8
PARAMETRIX
10
78.0000
20
12.0000
40
2.0000
50
270.0000
51
0.0000
0
LINE
8
PARAMETRIX
10
80.0000
20
12.0000
11
80.0000
21
18.0000
0
ARC
8
PARAMETRIX
10
78.0000
20
18.0000
40
2.0000
50
0.0000
51
90.0000
0
LINE
8
PARAMETRIX
10
78.0000
20
20.0000
11
72.0000
21
20.0000
0
ARC
8
PARAMETRIX
10
72.0000
20
18.0000
40
2.0000
50
90.0000
51
180.0000
0
LINE
8
PARAMETRIX
10
70.0000
20
18.0000
11
70.0000
21
12.0000
0
ARC
8
PARAMETRIX
10
72.0000
20
12.0000
40
2.0000
50
180.0000
51
270.0000
0
LINE
8
PARAMETRIX
10
72.0000
20
22.0000
11
78.0000
21
22.0000
0
ARC
8
PARAMETRIX
10
78.0000
20
24.0000
40
2.0000
50
270.0000
51
0.0000
0
LINE
8
PARAMETRIX
10
80.0000
20
24.0000
11
80.0000
21
30.0000
0
ARC
8
PARAMETRIX
10
78.0000
20
30.0000
40
2.0000
50
0.0000
51
90.0000
0
LINE
8
PARAMETRIX
10
78.0000
20
32.0000
11
72.0000
21
32.0000
0
ARC
8
PARAMETRIX
10
72.0000
20
30.0000
40
2.0000
50
90.0000
51
180.0000
0
LINE
8
PARAMETRIX
10
70.0000
20
30.0000
11
70.0000
21
24.0000
0
ARC
8
PARAMETRIX
10
72.0000
20
24.0000
40
2.0000
50
180.0000
51
270.0000
0
LINE
8
PARAMETRIX
10
72.0000
20
34.0000
11
78.0000
21
34.0000
0
ARC
8
PARAMETRIX
10
78.0000
20
36.0000
40
2.0000
50
270.0000
51
0.0000
0
LINE
8
PARAMETRIX
10
80.0000
20
36.0000
11
80.0000
21
42.0000
0
ARC
8
PARAMETRIX
10
78.0000
20
42.0000
40
2.0000
50
0.0000
51
90.0000
0
LINE
8
PARAMETRIX
10
78.0000
20
44.0000
11
72.0000
21
44.0000
0
ARC
8
PARAMETRIX
10
72.0000
20
42.0000
40
2.0000
50
90.0000
51
180.0000
0
LINE
8
PARAMETRIX
10
70.0000
20
42.0000
11
70.0000
21
36.0000
0
ARC
8
PARAMETRIX
10
72.0000
20
36.0000
40
2.0000
50
180.0000
51
270.0000
0
LINE
8
PARAMETRIX
10
72.0000
20
46.0000
11
78.0000
21
46.0000
0
ARC
8
PARAMETRIX
10
78.0000
20
48.0000
40
2.0000
50
270.0000
51
0.0000
0
LINE
8
PARAMETRIX
10
80.0000
20
48.0000
11
80.0000
21
54.0000
0
ARC
8
PARAMETRIX
10
78.0000
20
54.0000
40
2.0000
50
0.0000
51
90.0000
0
LINE
8
PARAMETRIX
10
78.0000
20
56.0000
11
72.0000
21
56.0000
0
ARC
8
PARAMETRIX
10
72.0000
20
54.0000
40
2.0000
50
90.0000
51
180.0000
0
LINE
8
PARAMETRIX
10
70.0000
20
54.0000
11
70.0000
21
48.0000
0
ARC
8
PARAMETRIX
10
72.0000
20
48.0000
40
2.0000
50
180.0000
51
270.0000
0
LINE
8
PARAMETRIX
10
72.0000
20
58.0000
11
78.0000
21
58.0000
0
ARC
8
PARAMETRIX
10
78.0000
20
60.0000
40
2.0000
50
270.0000
51
0.0000
0
LINE
8
PARAMETRIX
10
80.0000
20
60.0000
11
80.0000
21
66.0000
0
ARC
8
PARAMETRIX
10
78.0000
20
66.0000
40
2.0000
50
0.0000
51
90.0000
0
LINE
8
PARAMETRIX
10
78.0000
20
68.0000
11
72.0000
21
68.0000
0
ARC
8
PARAMETRIX
10
72.0000
20
66.0000
40
2.0000
50
90.0000
51
180.0000
0
LINE
8
PARAMETRIX
10
70.0000
20
66.0000
11
70.0000
21
60.0000
0
ARC
8
PARAMETRIX
10
72.0000
20
60.0000
40
2.0000
50
180.0000
51
270.0000
0
LINE
8
PARAMETRIX
10
84.0000
20
10.0000
11
90.0000
21
10.0000
0
ARC
8
PARAMETRIX
10
90.0000
20
12.0000
40
2.0000
50
270.0000
51
0.0000
0
LINE
8
PARAMETRIX
10
92.0000
20
12.0000
11
92.0000
21
18.0000
0
ARC
8
PARAMETRIX
10
90.0000
20
18.0000
40
2.0000
50
0.0000
51
90.0000
0
LINE
8
PARAMETRIX
10
90.0000
20
20.0000
11
84.0000
21
20.0000
0
ARC
8
PARAMETRIX
10
84.0000
20
18.0000
40
2.0000
50
90.0000
51
180.0000
0
LINE
8
PARAMETRIX
10
82.0000
20
18.0000
11
82.0000
21
12.0000
0
ARC
8
PARAMETRIX
10
84.0000
20
12.0000
40
2.0000
50
180.0000
51
270.0000
0
LINE
8
PARAMETRIX
10
84.0000
20
22.0000
11
90.0000
21
22.0000
0
ARC
8
PARAMETRIX
10
90.0000
20
24.0000
40
2.0000
50
270.0000
51
0.0000
0
LINE
8
PARAMETRIX
10
92.0000
20
24.0000
11
92.0000
21
30.0000
0
ARC
8
PARAMETRIX
10
90.0000
20
30.0000
40
2.0000
50
0.0000
51
90.0000
0
LINE
8
PARAMETRIX
10
90.0000
20
32.0000
11
84.0000
21
32.0000
0
ARC
8
PARAMETRIX
10
84.0000
20
30.0000
40
2.0000
50
90.0000
51
180.0000
0
LINE
8
PARAMETRIX
10
82.0000
20
30.0000
11
82.0000
21
24.0000
0
ARC
8
PARAMETRIX
10
84.0000
20
24.0000
40
2.0000
50
180.0000
51
270.0000
0
LINE
8
PARAMETRIX
10
84.0000
20
34.0000
11
90.0000
21
34.0000
0
ARC
8
PARAMETRIX
10
90.0000
20
36.0000
40
2.0000
50
270.0000
51
0.0000
0
LINE
8
PARAMETRIX
10
92.0000
20
36.0000
11
92.0000
21
42.0000
0
ARC
8
PARAMETRIX
10
90.0000
20
42.0000
40
2.0000
50
0.0000
51
90.0000
0
LINE
8
PARAMETRIX
10
90.0000
20
44.0000
11
84.0000
21
44.0000
0
ARC
8
PARAMETRIX
10
84.0000
20
42.0000
40
2.0000
50
90.0000
51
180.0000
0
LINE
8
PARAMETRIX
10
82.0000
20
42.0000
11
82.0000
21
36.0000
0
ARC
8
PARAMETRIX
10
84.0000
20
36.0000
40
2.0000
50
180.0000
51
270.0000
0
LINE
8
PARAMETRIX
10
84.0000
20
46.0000
11
90.0000
21
46.0000
0
ARC
8
PARAMETRIX
10
90.0000
20
48.0000
40
2.0000
50
270.0000
51
0.0000
0
LINE
8
PARAMETRIX
10
92.0000
20
48.0000
11
92.0000
21
54.0000
0
ARC
8
PARAMETRIX
10
90.0000
20
54.0000
40
2.0000
50
0.0000
51
90.0000
0
LINE
8
PARAMETRIX
10
90.0000
20
56.0000
11
84.0000
21
56.0000
0
ARC
8
PARAMETRIX
10
84.0000
20
54.0000
40
2.0000
50
90.0000
51
180.0000
0
LINE
8
PARAMETRIX
10
82.0000
20
54.0000
11
82.0000
21
48.0000
0
ARC
8
PARAMETRIX
10
84.0000
20
48.0000
40
2.0000
50
180.0000
51
270.0000
0
LINE
8
PARAMETRIX
10
84.0000
20
58.0000
11
90.0000
21
58.0000
0
ARC
8
PARAMETRIX
10
90.0000
20
60.0000
40
2.0000
50
270.0000
51
0.0000
0
LINE
8
PARAMETRIX
10
92.0000
20
60.0000
11
92.0000
21
66.0000
0
ARC
8
PARAMETRIX
10
90.0000
20
66.0000
40
2.0000
50
0.0000
51
90.0000
0
LINE
8
PARAMETRIX
10
90.0000
20
68.0000
11
84.0000
21
68.0000
0
ARC
8
PARAMETRIX
10
84.0000
20
66.0000
40
2.0000
50
90.0000
51
180.0000
0
LINE
8
PARAMETRIX
10
82.0000
20
66.0000
11
82.0000
21
60.0000
0
ARC
8
PARAMETRIX
10
84.0000
20
60.0000
40
2.0000
50
180.0000
51
270.0000
0
ENDSEC
0
EOF
